STARTFONT 2.1
COMMENT
COMMENT Converted from OpenType font "MultiTypeGamerChess-Regular.otf" by "otf2bdf 3.0".
COMMENT
FONT -FreeType-MultiType Gamer Chess-Medium-R-Normal--17-120-100-100-P-102-ISO10646-1
SIZE 12 100 100
FONTBOUNDINGBOX 44 29 -15 -5
STARTPROPERTIES 19
FOUNDRY "FreeType"
FAMILY_NAME "MultiType Gamer Chess"
WEIGHT_NAME "Medium"
SLANT "R"
SETWIDTH_NAME "Normal"
ADD_STYLE_NAME ""
PIXEL_SIZE 17
POINT_SIZE 120
RESOLUTION_X 100
RESOLUTION_Y 100
SPACING "P"
AVERAGE_WIDTH 102
CHARSET_REGISTRY "ISO10646"
CHARSET_ENCODING "1"
FONT_ASCENT 18
FONT_DESCENT 1
COPYRIGHT "-FreeType-MultiType Gamer Chess-Medium-R-Normal--17-120-100-100-P-102-ISO10646-1"
_OTF_FONTFILE "MultiTypeGamerChess-Regular.otf"
_OTF_PSNAME "MultiTypeGamer-Chess"
ENDPROPERTIES
CHARS 758
STARTCHAR 0020
ENCODING 32
SWIDTH 300 0
DWIDTH 5 0
BBX 0 0 0 0
BITMAP
ENDCHAR
STARTCHAR 0021
ENCODING 33
SWIDTH 300 0
DWIDTH 5 0
BBX 3 13 1 0
BITMAP
A0
40
A0
40
A0
E0
40
A0
40
00
A0
40
A0
ENDCHAR
STARTCHAR 0022
ENCODING 34
SWIDTH 420 0
DWIDTH 7 0
BBX 7 4 0 10
BITMAP
A2
E6
44
A2
ENDCHAR
STARTCHAR 0023
ENCODING 35
SWIDTH 900 0
DWIDTH 15 0
BBX 13 16 1 -2
BITMAP
18C0
18C0
0000
18C0
A528
5AD0
BDE8
0000
18C0
A528
5AD0
BDE8
0000
18C0
0000
18C0
ENDCHAR
STARTCHAR 0024
ENCODING 36
SWIDTH 660 0
DWIDTH 11 0
BBX 9 16 1 -2
BITMAP
0400
2D00
5A80
A500
4000
A000
E500
5A80
2500
0080
0100
A580
5A80
A500
0800
0400
ENDCHAR
STARTCHAR 0025
ENCODING 37
SWIDTH 1260 0
DWIDTH 21 0
BBX 19 13 1 0
BITMAP
242800
5A1000
A52800
425000
A52000
E77140
5A46A0
242940
00C420
000840
01CD60
0086A0
010140
ENDCHAR
STARTCHAR 0026
ENCODING 38
SWIDTH 780 0
DWIDTH 13 0
BBX 11 13 1 0
BITMAP
2500
5A00
A500
4000
A100
75A0
1AC0
2520
5080
A100
E5A0
5AC0
2520
ENDCHAR
STARTCHAR 0027
ENCODING 39
SWIDTH 180 0
DWIDTH 3 0
BBX 3 4 0 10
BITMAP
A0
E0
40
A0
ENDCHAR
STARTCHAR 0028
ENCODING 40
SWIDTH 300 0
DWIDTH 5 0
BBX 4 19 1 -3
BITMAP
20
50
A0
E0
40
A0
40
A0
E0
40
A0
40
A0
E0
40
A0
40
A0
70
ENDCHAR
STARTCHAR 0029
ENCODING 41
SWIDTH 300 0
DWIDTH 5 0
BBX 4 19 0 -3
BITMAP
40
A0
50
70
20
50
20
50
70
20
50
20
50
70
20
50
20
50
E0
ENDCHAR
STARTCHAR 002A
ENCODING 42
SWIDTH 900 0
DWIDTH 15 0
BBX 13 11 1 3
BITMAP
A528
E738
5250
2520
1AC0
0500
3FE0
5250
A528
4210
A528
ENDCHAR
STARTCHAR 002B
ENCODING 43
SWIDTH 660 0
DWIDTH 11 0
BBX 9 9 1 2
BITMAP
0400
0800
0400
AD00
5A80
A500
0800
0400
0C00
ENDCHAR
STARTCHAR 002C
ENCODING 44
SWIDTH 180 0
DWIDTH 3 0
BBX 3 5 0 -2
BITMAP
A0
40
A0
40
80
ENDCHAR
STARTCHAR 002D
ENCODING 45
SWIDTH 480 0
DWIDTH 8 0
BBX 8 3 0 5
BITMAP
AD
52
AD
ENDCHAR
STARTCHAR 002E
ENCODING 46
SWIDTH 180 0
DWIDTH 3 0
BBX 3 3 0 0
BITMAP
A0
40
A0
ENDCHAR
STARTCHAR 002F
ENCODING 47
SWIDTH 360 0
DWIDTH 6 0
BBX 6 13 0 0
BITMAP
0C
00
0C
10
08
38
10
28
50
20
F0
40
A0
ENDCHAR
STARTCHAR 0030
ENCODING 48
SWIDTH 660 0
DWIDTH 11 0
BBX 9 13 1 0
BITMAP
0400
1A00
2500
5280
A100
E180
4080
A100
4080
A100
7780
1A00
0400
ENDCHAR
STARTCHAR 0031
ENCODING 49
SWIDTH 360 0
DWIDTH 6 0
BBX 4 13 1 0
BITMAP
A0
50
A0
10
20
30
10
20
10
20
30
10
20
ENDCHAR
STARTCHAR 0032
ENCODING 50
SWIDTH 660 0
DWIDTH 11 0
BBX 9 13 1 0
BITMAP
2500
5A80
A500
4080
A100
0780
0A00
0400
1800
2000
F500
5A80
A500
ENDCHAR
STARTCHAR 0033
ENCODING 51
SWIDTH 660 0
DWIDTH 11 0
BBX 9 13 1 0
BITMAP
2500
5A80
A500
4080
A100
0780
0A80
0500
0080
A100
E580
5A80
2500
ENDCHAR
STARTCHAR 0034
ENCODING 52
SWIDTH 660 0
DWIDTH 11 0
BBX 9 13 1 0
BITMAP
0500
0A00
0500
1A00
2500
F700
4200
A500
5A80
A500
0700
0200
0500
ENDCHAR
STARTCHAR 0035
ENCODING 53
SWIDTH 660 0
DWIDTH 11 0
BBX 9 13 1 0
BITMAP
A500
5A80
A500
4000
A000
E500
5A80
A500
0080
0100
A580
5A80
A500
ENDCHAR
STARTCHAR 0036
ENCODING 54
SWIDTH 660 0
DWIDTH 11 0
BBX 9 13 1 0
BITMAP
0500
1A80
2500
5000
A000
E500
5A80
A500
4080
A100
E580
5A80
2500
ENDCHAR
STARTCHAR 0037
ENCODING 55
SWIDTH 660 0
DWIDTH 11 0
BBX 9 13 1 0
BITMAP
A500
5A80
A500
0080
0100
0780
0A00
0400
1800
2000
3000
1000
2000
ENDCHAR
STARTCHAR 0038
ENCODING 56
SWIDTH 660 0
DWIDTH 11 0
BBX 9 13 1 0
BITMAP
2500
5A80
A500
4080
A100
7780
1A00
2500
5280
A100
E580
5A80
2500
ENDCHAR
STARTCHAR 0039
ENCODING 57
SWIDTH 660 0
DWIDTH 11 0
BBX 9 13 1 0
BITMAP
2500
5A80
A500
4080
A100
E580
5A80
2500
0080
0100
A780
5A00
A400
ENDCHAR
STARTCHAR 003A
ENCODING 58
SWIDTH 180 0
DWIDTH 3 0
BBX 3 8 0 2
BITMAP
A0
40
A0
00
00
A0
40
A0
ENDCHAR
STARTCHAR 003B
ENCODING 59
SWIDTH 180 0
DWIDTH 3 0
BBX 3 10 0 -2
BITMAP
A0
40
A0
00
00
A0
40
A0
40
80
ENDCHAR
STARTCHAR 003C
ENCODING 60
SWIDTH 600 0
DWIDTH 10 0
BBX 9 13 0 0
BITMAP
0280
0500
0200
0C00
1000
7800
A000
5000
2800
1000
0E00
0500
0280
ENDCHAR
STARTCHAR 003D
ENCODING 61
SWIDTH 660 0
DWIDTH 11 0
BBX 9 7 1 2
BITMAP
A500
FF80
0000
0000
0000
A500
FF80
ENDCHAR
STARTCHAR 003E
ENCODING 62
SWIDTH 600 0
DWIDTH 10 0
BBX 8 13 2 0
BITMAP
A0
40
30
08
14
0F
02
05
0A
14
38
40
A0
ENDCHAR
STARTCHAR 003F
ENCODING 63
SWIDTH 660 0
DWIDTH 11 0
BBX 9 13 1 0
BITMAP
2500
5A80
A500
4080
A100
0580
0A80
0500
0800
0400
0400
0800
0400
ENDCHAR
STARTCHAR 0040
ENCODING 64
SWIDTH 1200 0
DWIDTH 20 0
BBX 18 18 1 -2
BITMAP
052800
1AD600
252900
F003C0
400080
A12940
42D080
A52940
E739C0
421080
A52940
42D680
A12900
E00000
500000
252940
1AD680
052940
ENDCHAR
STARTCHAR 0041
ENCODING 65
SWIDTH 660 0
DWIDTH 11 0
BBX 9 13 1 0
BITMAP
0400
1A00
2500
5280
A100
E180
4080
A500
5A80
A500
E180
4080
A100
ENDCHAR
STARTCHAR 0042
ENCODING 66
SWIDTH 660 0
DWIDTH 11 0
BBX 9 13 1 0
BITMAP
A500
5A80
A500
4080
A100
E780
5A80
A500
4080
A100
E580
5A80
A500
ENDCHAR
STARTCHAR 0043
ENCODING 67
SWIDTH 780 0
DWIDTH 13 0
BBX 11 13 1 0
BITMAP
0500
1A80
2500
50C0
A020
E060
4000
A000
4000
A020
75C0
1A80
0500
ENDCHAR
STARTCHAR 0044
ENCODING 68
SWIDTH 780 0
DWIDTH 13 0
BBX 11 13 1 0
BITMAP
A500
5A80
A500
40C0
A020
E060
4040
A020
4040
A020
E5C0
5A80
A500
ENDCHAR
STARTCHAR 0045
ENCODING 69
SWIDTH 660 0
DWIDTH 11 0
BBX 9 13 1 0
BITMAP
0500
1A80
2500
5000
A000
E500
5A00
A500
4000
A000
7500
1A80
0500
ENDCHAR
STARTCHAR 0046
ENCODING 70
SWIDTH 660 0
DWIDTH 11 0
BBX 9 13 1 0
BITMAP
0500
1A80
2500
5000
A000
E500
5A00
A500
4000
A000
E000
4000
A000
ENDCHAR
STARTCHAR 0047
ENCODING 71
SWIDTH 780 0
DWIDTH 13 0
BBX 11 13 1 0
BITMAP
0520
1AC0
2520
5000
A000
E520
42C0
A520
4040
A020
7560
1AC0
0520
ENDCHAR
STARTCHAR 0048
ENCODING 72
SWIDTH 780 0
DWIDTH 13 0
BBX 11 13 1 0
BITMAP
A020
4040
A020
4040
A020
E560
5AC0
A520
4040
A020
E060
4040
A020
ENDCHAR
STARTCHAR 0049
ENCODING 73
SWIDTH 480 0
DWIDTH 8 0
BBX 6 13 1 0
BITMAP
A4
58
A4
10
20
30
10
20
10
20
B4
58
A4
ENDCHAR
STARTCHAR 004A
ENCODING 74
SWIDTH 600 0
DWIDTH 10 0
BBX 8 13 1 0
BITMAP
A5
5A
A5
02
05
07
02
05
02
05
AE
58
A0
ENDCHAR
STARTCHAR 004B
ENCODING 75
SWIDTH 660 0
DWIDTH 11 0
BBX 9 13 1 0
BITMAP
A100
4080
A100
4280
A500
EE00
5800
A400
4A00
A500
E380
4080
A100
ENDCHAR
STARTCHAR 004C
ENCODING 76
SWIDTH 660 0
DWIDTH 11 0
BBX 9 13 1 0
BITMAP
A000
4000
A000
4000
A000
E000
4000
A000
4000
A000
E500
5A80
2500
ENDCHAR
STARTCHAR 004D
ENCODING 77
SWIDTH 960 0
DWIDTH 16 0
BBX 14 13 1 0
BITMAP
A008
5014
A028
5854
A428
EFCC
4284
A108
4004
A008
E00C
4004
A008
ENDCHAR
STARTCHAR 004E
ENCODING 78
SWIDTH 780 0
DWIDTH 13 0
BBX 11 13 1 0
BITMAP
A020
5040
A020
5840
A420
EF60
42C0
A120
40C0
A020
E060
4040
A020
ENDCHAR
STARTCHAR 004F
ENCODING 79
SWIDTH 780 0
DWIDTH 13 0
BBX 11 13 1 0
BITMAP
0500
1A80
2500
50C0
A020
E060
4040
A020
4040
A020
75C0
1A80
0500
ENDCHAR
STARTCHAR 0050
ENCODING 80
SWIDTH 660 0
DWIDTH 11 0
BBX 9 13 1 0
BITMAP
A400
5A00
A500
4280
A100
E180
4080
A100
4280
A500
FE00
4000
A000
ENDCHAR
STARTCHAR 0051
ENCODING 81
SWIDTH 780 0
DWIDTH 13 0
BBX 11 15 1 -2
BITMAP
0500
1A80
2500
50C0
A020
E060
4040
A020
4040
A020
75C0
1A80
0500
0280
0100
ENDCHAR
STARTCHAR 0052
ENCODING 82
SWIDTH 660 0
DWIDTH 11 0
BBX 9 13 1 0
BITMAP
A400
5A00
A500
4280
A100
E180
4080
A100
4280
A500
FF00
4280
A100
ENDCHAR
STARTCHAR 0053
ENCODING 83
SWIDTH 660 0
DWIDTH 11 0
BBX 9 13 1 0
BITMAP
2500
5A80
A500
4080
A100
E500
5A80
2500
0080
A100
E580
5A80
2500
ENDCHAR
STARTCHAR 0054
ENCODING 84
SWIDTH 660 0
DWIDTH 11 0
BBX 9 13 1 0
BITMAP
A500
5A80
A500
0800
0400
0C00
0800
0400
0800
0400
0C00
0800
0400
ENDCHAR
STARTCHAR 0055
ENCODING 85
SWIDTH 780 0
DWIDTH 13 0
BBX 11 13 1 0
BITMAP
A020
4040
A020
4040
A020
E060
4040
A020
4040
A020
75C0
1A80
0500
ENDCHAR
STARTCHAR 0056
ENCODING 86
SWIDTH 660 0
DWIDTH 11 0
BBX 9 13 1 0
BITMAP
A100
4080
A100
4080
A100
E180
4080
A100
4080
A100
7780
1A00
0400
ENDCHAR
STARTCHAR 0057
ENCODING 87
SWIDTH 1080 0
DWIDTH 18 0
BBX 16 13 1 0
BITMAP
A101
4082
A101
4082
A101
E183
4082
A101
4082
A101
77EE
1A54
0428
ENDCHAR
STARTCHAR 0058
ENCODING 88
SWIDTH 780 0
DWIDTH 13 0
BBX 11 13 1 0
BITMAP
A020
4040
A020
4040
A020
75C0
1A80
2500
50C0
A020
E060
4040
A020
ENDCHAR
STARTCHAR 0059
ENCODING 89
SWIDTH 660 0
DWIDTH 11 0
BBX 9 13 1 0
BITMAP
A100
4080
A100
4080
A100
E180
5280
2500
1A00
0400
0C00
0800
0400
ENDCHAR
STARTCHAR 005A
ENCODING 90
SWIDTH 660 0
DWIDTH 11 0
BBX 9 13 1 0
BITMAP
A500
5A80
A500
0280
0500
0E00
1800
2000
5000
A000
E500
5A80
A500
ENDCHAR
STARTCHAR 005B
ENCODING 91
SWIDTH 300 0
DWIDTH 5 0
BBX 4 19 1 -3
BITMAP
A0
50
A0
E0
40
A0
40
A0
E0
40
A0
40
A0
E0
40
A0
40
A0
F0
ENDCHAR
STARTCHAR 005C
ENCODING 92
SWIDTH 360 0
DWIDTH 6 0
BBX 6 13 0 0
BITMAP
A0
40
A0
50
20
78
10
28
10
08
1C
00
0C
ENDCHAR
STARTCHAR 005D
ENCODING 93
SWIDTH 300 0
DWIDTH 5 0
BBX 5 19 0 -3
BITMAP
A8
50
A8
38
10
28
10
28
38
10
28
10
28
38
10
28
10
A8
F8
ENDCHAR
STARTCHAR 005F
ENCODING 95
SWIDTH 780 0
DWIDTH 13 0
BBX 13 3 0 -2
BITMAP
AD68
5290
AD68
ENDCHAR
STARTCHAR 0060
ENCODING 96
SWIDTH 300 0
DWIDTH 5 0
BBX 6 5 -1 13
BITMAP
C0
20
50
28
14
ENDCHAR
STARTCHAR 0061
ENCODING 97
SWIDTH 660 0
DWIDTH 11 0
BBX 9 13 1 0
BITMAP
2500
5A80
A500
4080
A100
E180
4080
A500
5A80
A500
E180
4080
A100
ENDCHAR
STARTCHAR 0062
ENCODING 98
SWIDTH 660 0
DWIDTH 11 0
BBX 9 13 1 0
BITMAP
A500
5A80
A500
4080
A100
E780
5A00
A500
4280
A100
E580
5A80
A500
ENDCHAR
STARTCHAR 0063
ENCODING 99
SWIDTH 660 0
DWIDTH 11 0
BBX 9 13 1 0
BITMAP
2500
5A80
A500
4080
A100
E180
4000
A000
4000
A100
E580
5A80
2500
ENDCHAR
STARTCHAR 0064
ENCODING 100
SWIDTH 660 0
DWIDTH 11 0
BBX 9 13 1 0
BITMAP
A500
5A80
A500
4080
A100
E180
4080
A100
4080
A100
E580
5A80
A500
ENDCHAR
STARTCHAR 0065
ENCODING 101
SWIDTH 660 0
DWIDTH 11 0
BBX 9 13 1 0
BITMAP
2500
5A80
A500
4000
A000
E500
5A00
A500
4000
A000
E500
5A80
2500
ENDCHAR
STARTCHAR 0066
ENCODING 102
SWIDTH 660 0
DWIDTH 11 0
BBX 9 13 1 0
BITMAP
2500
5A80
A500
4000
A000
E500
5A00
A500
4000
A000
E000
4000
A000
ENDCHAR
STARTCHAR 0067
ENCODING 103
SWIDTH 660 0
DWIDTH 11 0
BBX 9 13 1 0
BITMAP
2500
5A80
A500
4000
A000
E500
4280
A500
4080
A100
E580
5A80
2500
ENDCHAR
STARTCHAR 0068
ENCODING 104
SWIDTH 660 0
DWIDTH 11 0
BBX 9 13 1 0
BITMAP
A100
4080
A100
4080
A100
E580
5A80
A500
4080
A100
E180
4080
A100
ENDCHAR
STARTCHAR 0069
ENCODING 105
SWIDTH 300 0
DWIDTH 5 0
BBX 3 13 1 0
BITMAP
A0
40
A0
40
A0
E0
40
A0
40
A0
E0
40
A0
ENDCHAR
STARTCHAR 006A
ENCODING 106
SWIDTH 480 0
DWIDTH 8 0
BBX 6 13 1 0
BITMAP
04
08
04
08
04
0C
08
04
08
04
AC
58
A0
ENDCHAR
STARTCHAR 006B
ENCODING 107
SWIDTH 660 0
DWIDTH 11 0
BBX 9 13 1 0
BITMAP
A100
4080
A100
4080
A100
E780
5A00
A500
4280
A100
E180
4080
A100
ENDCHAR
STARTCHAR 006C
ENCODING 108
SWIDTH 600 0
DWIDTH 10 0
BBX 8 13 1 0
BITMAP
A0
40
A0
40
A0
E0
40
A0
40
A0
E5
5A
25
ENDCHAR
STARTCHAR 006D
ENCODING 109
SWIDTH 900 0
DWIDTH 15 0
BBX 13 13 1 0
BITMAP
A028
5050
A028
58D0
A528
EFB8
4210
A028
4010
A028
E038
4010
A028
ENDCHAR
STARTCHAR 006E
ENCODING 110
SWIDTH 660 0
DWIDTH 11 0
BBX 9 13 1 0
BITMAP
A100
5080
A100
5880
A500
EF80
4280
A100
4080
A100
E180
4080
A100
ENDCHAR
STARTCHAR 006F
ENCODING 111
SWIDTH 660 0
DWIDTH 11 0
BBX 9 13 1 0
BITMAP
2500
5A80
A500
4080
A100
E180
4080
A100
4080
A100
E580
5A80
2500
ENDCHAR
STARTCHAR 0070
ENCODING 112
SWIDTH 660 0
DWIDTH 11 0
BBX 9 13 1 0
BITMAP
A500
5A80
A500
4080
A100
E180
4080
A500
5A80
A500
E000
4000
A000
ENDCHAR
STARTCHAR 0071
ENCODING 113
SWIDTH 660 0
DWIDTH 11 0
BBX 9 15 1 -2
BITMAP
2500
5A80
A500
4080
A100
E180
4080
A100
4080
A100
E580
5A80
2500
0280
0100
ENDCHAR
STARTCHAR 0072
ENCODING 114
SWIDTH 660 0
DWIDTH 11 0
BBX 9 13 1 0
BITMAP
A500
5A80
A500
4080
A100
E180
4080
A500
5A80
A500
E380
4080
A100
ENDCHAR
STARTCHAR 0073
ENCODING 115
SWIDTH 660 0
DWIDTH 11 0
BBX 9 13 1 0
BITMAP
2500
5A80
A500
4080
A100
E500
5A80
2500
0080
A100
E580
5A80
2500
ENDCHAR
STARTCHAR 0074
ENCODING 116
SWIDTH 660 0
DWIDTH 11 0
BBX 9 13 1 0
BITMAP
A500
5A80
A500
0800
0400
0C00
0800
0400
0800
0400
0C00
0800
0400
ENDCHAR
STARTCHAR 0075
ENCODING 117
SWIDTH 660 0
DWIDTH 11 0
BBX 9 13 1 0
BITMAP
A100
4080
A100
4080
A100
E180
4080
A100
4080
A100
E580
5A80
2500
ENDCHAR
STARTCHAR 0076
ENCODING 118
SWIDTH 660 0
DWIDTH 11 0
BBX 9 13 1 0
BITMAP
A100
4080
A100
4080
A100
E180
4080
A100
4080
A100
7780
1A00
0400
ENDCHAR
STARTCHAR 0077
ENCODING 119
SWIDTH 1080 0
DWIDTH 18 0
BBX 16 13 1 0
BITMAP
A101
4082
A101
4082
A101
E183
4082
A101
4082
A101
E7EB
5A56
2428
ENDCHAR
STARTCHAR 0078
ENCODING 120
SWIDTH 660 0
DWIDTH 11 0
BBX 9 13 1 0
BITMAP
A100
4080
A100
4080
A100
7780
1A00
2500
5280
A100
E180
4080
A100
ENDCHAR
STARTCHAR 0079
ENCODING 121
SWIDTH 660 0
DWIDTH 11 0
BBX 9 13 1 0
BITMAP
A100
4080
A100
4080
A100
E180
4080
A500
5A80
2500
0C00
0800
0400
ENDCHAR
STARTCHAR 007A
ENCODING 122
SWIDTH 660 0
DWIDTH 11 0
BBX 9 13 1 0
BITMAP
A500
5A80
A500
0080
0100
2580
5A80
A500
4000
A000
E500
5A80
A500
ENDCHAR
STARTCHAR 007B
ENCODING 123
SWIDTH 360 0
DWIDTH 6 0
BBX 7 19 0 -3
BITMAP
02
0C
10
18
08
10
08
10
78
A0
50
28
10
18
08
10
08
10
0E
ENDCHAR
STARTCHAR 007C
ENCODING 124
SWIDTH 300 0
DWIDTH 5 0
BBX 3 16 1 -2
BITMAP
A0
E0
40
A0
40
A0
E0
40
A0
40
A0
E0
40
A0
40
A0
ENDCHAR
STARTCHAR 007D
ENCODING 125
SWIDTH 360 0
DWIDTH 6 0
BBX 6 19 0 -3
BITMAP
40
A0
50
70
20
50
20
50
38
0C
10
28
50
70
20
50
20
50
E0
ENDCHAR
STARTCHAR 00A1
ENCODING 161
SWIDTH 300 0
DWIDTH 5 0
BBX 3 13 1 0
BITMAP
A0
40
A0
00
00
E0
40
A0
40
A0
E0
40
A0
ENDCHAR
STARTCHAR 00A2
ENCODING 162
SWIDTH 660 0
DWIDTH 11 0
BBX 9 16 1 -2
BITMAP
0400
2D00
5A80
A500
4080
A100
E180
4000
A000
4000
A100
E580
5A80
2500
0800
0400
ENDCHAR
STARTCHAR 00A3
ENCODING 163
SWIDTH 660 0
DWIDTH 11 0
BBX 9 14 1 0
BITMAP
0500
3F80
1080
2100
1000
2000
B500
5A00
A500
1000
2000
B500
5A80
A500
ENDCHAR
STARTCHAR 00A4
ENCODING 164
SWIDTH 780 0
DWIDTH 13 0
BBX 11 11 1 3
BITMAP
2000
3520
1AC0
2520
1080
2100
B580
5A80
A500
0080
0100
ENDCHAR
STARTCHAR 00A5
ENCODING 165
SWIDTH 660 0
DWIDTH 11 0
BBX 9 18 1 -2
BITMAP
A100
4080
A100
E180
5280
2500
1A00
0400
AD00
5A80
A500
0800
0400
AD00
5A80
A500
0800
0400
ENDCHAR
STARTCHAR 00A6
ENCODING 166
SWIDTH 300 0
DWIDTH 5 0
BBX 3 16 1 -2
BITMAP
A0
E0
40
A0
40
A0
00
00
00
00
A0
E0
40
A0
40
A0
ENDCHAR
STARTCHAR 00A7
ENCODING 167
SWIDTH 660 0
DWIDTH 11 0
BBX 9 19 1 -3
BITMAP
0500
1A80
2500
F000
4000
A400
5A00
A500
E380
4080
A100
5080
2500
1F80
0080
0100
0280
A500
FE00
ENDCHAR
STARTCHAR 00A8
ENCODING 168
SWIDTH 360 0
DWIDTH 6 0
BBX 6 3 0 13
BITMAP
AC
40
AC
ENDCHAR
STARTCHAR 00AB
ENCODING 171
SWIDTH 840 0
DWIDTH 14 0
BBX 12 9 0 2
BITMAP
0210
0C60
1080
7BC0
A500
5280
2940
1080
0E70
ENDCHAR
STARTCHAR 00AD
ENCODING 173
SWIDTH 480 0
DWIDTH 8 0
BBX 8 3 0 5
BITMAP
AD
52
AD
ENDCHAR
STARTCHAR 00AF
ENCODING 175
SWIDTH 360 0
DWIDTH 6 0
BBX 6 3 0 13
BITMAP
AC
50
AC
ENDCHAR
STARTCHAR 00B0
ENCODING 176
SWIDTH 480 0
DWIDTH 8 0
BBX 8 7 0 7
BITMAP
2C
FF
42
A5
42
AD
7E
ENDCHAR
STARTCHAR 00B4
ENCODING 180
SWIDTH 300 0
DWIDTH 5 0
BBX 6 5 0 13
BITMAP
0C
10
28
50
A0
ENDCHAR
STARTCHAR 00B6
ENCODING 182
SWIDTH 660 0
DWIDTH 11 0
BBX 9 13 1 0
BITMAP
2500
5880
A500
5880
A500
FD80
5880
2500
0880
0500
0D80
0880
0500
ENDCHAR
STARTCHAR 00B7
ENCODING 183
SWIDTH 180 0
DWIDTH 3 0
BBX 3 3 0 5
BITMAP
A0
40
A0
ENDCHAR
STARTCHAR 00B8
ENCODING 184
SWIDTH 240 0
DWIDTH 4 0
BBX 4 3 0 -3
BITMAP
20
50
E0
ENDCHAR
STARTCHAR 00BB
ENCODING 187
SWIDTH 840 0
DWIDTH 14 0
BBX 12 9 2 2
BITMAP
A500
4200
3180
1CE0
0A50
14A0
0840
3180
E700
ENDCHAR
STARTCHAR 00BF
ENCODING 191
SWIDTH 660 0
DWIDTH 11 0
BBX 9 13 1 0
BITMAP
0400
0800
0400
0000
0400
2C00
5800
A000
4000
A100
E580
5A80
2500
ENDCHAR
STARTCHAR 00C0
ENCODING 192
SWIDTH 660 0
DWIDTH 11 0
BBX 9 18 1 0
BITMAP
A000
5000
2000
1800
0400
0400
1A00
2500
5280
A100
E180
4080
A500
5A80
A500
E180
4080
A100
ENDCHAR
STARTCHAR 00C1
ENCODING 193
SWIDTH 660 0
DWIDTH 11 0
BBX 9 18 1 0
BITMAP
0280
0500
0A00
0400
1800
0400
1A00
2500
5280
A100
E180
4080
A500
5A80
A500
E180
4080
A100
ENDCHAR
STARTCHAR 00C2
ENCODING 194
SWIDTH 660 0
DWIDTH 11 0
BBX 9 18 1 0
BITMAP
0400
1A00
2500
1200
2500
0400
1A00
2500
5280
A100
E180
4080
A500
5A80
A500
E180
4080
A100
ENDCHAR
STARTCHAR 00C3
ENCODING 195
SWIDTH 660 0
DWIDTH 11 0
BBX 9 18 1 0
BITMAP
2100
5880
A500
4A80
A500
0400
1A00
2500
5280
A100
E180
4080
A500
5A80
A500
E180
4080
A100
ENDCHAR
STARTCHAR 00C4
ENCODING 196
SWIDTH 660 0
DWIDTH 11 0
BBX 9 16 1 0
BITMAP
2500
1200
2500
0400
1A00
2500
5280
A100
E180
4080
A500
5A80
A500
E180
4080
A100
ENDCHAR
STARTCHAR 00C5
ENCODING 197
SWIDTH 660 0
DWIDTH 11 0
BBX 9 21 1 0
BITMAP
1A00
2500
5A80
7380
2100
5A80
2500
1A00
0400
1A00
2500
5280
A100
E180
4080
A500
5A80
A500
E180
4080
A100
ENDCHAR
STARTCHAR 00C6
ENCODING 198
SWIDTH 1080 0
DWIDTH 18 0
BBX 16 13 1 0
BITMAP
0529
1AD6
2529
5080
A100
E1A8
40D4
A528
5A80
A500
E1A9
40D6
A029
ENDCHAR
STARTCHAR 00C7
ENCODING 199
SWIDTH 780 0
DWIDTH 13 0
BBX 11 16 1 -3
BITMAP
0500
1A80
2500
50C0
A020
E060
4000
A000
4000
A020
75C0
1A80
0500
0200
0500
0E00
ENDCHAR
STARTCHAR 00C8
ENCODING 200
SWIDTH 660 0
DWIDTH 11 0
BBX 9 18 1 0
BITMAP
A000
5000
2000
1800
0400
0500
1A80
2500
5000
A000
E500
5A00
A500
4000
A000
7500
1A80
0500
ENDCHAR
STARTCHAR 00C9
ENCODING 201
SWIDTH 660 0
DWIDTH 11 0
BBX 9 18 1 0
BITMAP
0280
0500
0A00
0400
1800
0500
1A80
2500
5000
A000
E500
5A00
A500
4000
A000
7500
1A80
0500
ENDCHAR
STARTCHAR 00CA
ENCODING 202
SWIDTH 660 0
DWIDTH 11 0
BBX 9 18 1 0
BITMAP
0400
1A00
2500
1200
2500
0500
1A80
2500
5000
A000
E500
5A00
A500
4000
A000
7500
1A80
0500
ENDCHAR
STARTCHAR 00CB
ENCODING 203
SWIDTH 660 0
DWIDTH 11 0
BBX 9 16 1 0
BITMAP
2500
1200
2500
0500
1A80
2500
5000
A000
E500
5A00
A500
4000
A000
7500
1A80
0500
ENDCHAR
STARTCHAR 00CC
ENCODING 204
SWIDTH 480 0
DWIDTH 8 0
BBX 7 18 0 0
BITMAP
40
A0
50
28
10
52
2C
52
08
10
18
08
10
08
10
5A
2C
52
ENDCHAR
STARTCHAR 00CD
ENCODING 205
SWIDTH 480 0
DWIDTH 8 0
BBX 7 18 1 0
BITMAP
0A
04
18
20
50
A4
58
A4
10
20
30
10
20
10
20
B4
58
A4
ENDCHAR
STARTCHAR 00CE
ENCODING 206
SWIDTH 480 0
DWIDTH 8 0
BBX 6 18 1 0
BITMAP
20
58
A4
48
A4
A4
58
A4
10
20
30
10
20
10
20
B4
58
A4
ENDCHAR
STARTCHAR 00CF
ENCODING 207
SWIDTH 480 0
DWIDTH 8 0
BBX 6 16 1 0
BITMAP
A4
48
A4
A4
58
A4
10
20
30
10
20
10
20
B4
58
A4
ENDCHAR
STARTCHAR 00D0
ENCODING 208
SWIDTH 840 0
DWIDTH 14 0
BBX 13 13 0 0
BITMAP
2D40
1280
2D60
1010
2828
BC38
5010
AC28
1010
2828
3D70
1280
2D40
ENDCHAR
STARTCHAR 00D1
ENCODING 209
SWIDTH 780 0
DWIDTH 13 0
BBX 11 18 1 0
BITMAP
18C0
2400
5AC0
2500
5280
A020
5040
A020
5840
A420
EF60
42C0
A120
40C0
A020
E060
4040
A020
ENDCHAR
STARTCHAR 00D2
ENCODING 210
SWIDTH 780 0
DWIDTH 13 0
BBX 11 18 1 0
BITMAP
5000
2000
1800
0400
0A00
0500
1A80
2500
50C0
A020
E060
4040
A020
4040
A020
75C0
1A80
0500
ENDCHAR
STARTCHAR 00D3
ENCODING 211
SWIDTH 780 0
DWIDTH 13 0
BBX 11 18 1 0
BITMAP
0100
0280
0500
0A00
0400
0500
1A80
2500
50C0
A020
E060
4040
A020
4040
A020
75C0
1A80
0500
ENDCHAR
STARTCHAR 00D4
ENCODING 212
SWIDTH 780 0
DWIDTH 13 0
BBX 11 18 1 0
BITMAP
0A00
0500
1A80
0100
1A80
0500
1A80
2500
50C0
A020
E060
4040
A020
4040
A020
75C0
1A80
0500
ENDCHAR
STARTCHAR 00D5
ENCODING 213
SWIDTH 780 0
DWIDTH 13 0
BBX 11 18 1 0
BITMAP
18C0
2400
5AC0
2500
5280
0500
1A80
2500
50C0
A020
E060
4040
A020
4040
A020
75C0
1A80
0500
ENDCHAR
STARTCHAR 00D6
ENCODING 214
SWIDTH 780 0
DWIDTH 13 0
BBX 11 16 1 0
BITMAP
1A80
0100
1A80
0500
1A80
2500
50C0
A020
E060
4040
A020
4040
A020
75C0
1A80
0500
ENDCHAR
STARTCHAR 00D7
ENCODING 215
SWIDTH 660 0
DWIDTH 11 0
BBX 9 10 1 2
BITMAP
4080
A100
5280
2500
1E00
1A00
2500
5280
A100
E180
ENDCHAR
STARTCHAR 00D8
ENCODING 216
SWIDTH 900 0
DWIDTH 15 0
BBX 15 13 0 0
BITMAP
0540
0280
0D60
1010
2828
BD7A
5294
AD6A
1010
2828
1D70
0280
0540
ENDCHAR
STARTCHAR 00D9
ENCODING 217
SWIDTH 780 0
DWIDTH 13 0
BBX 11 18 1 0
BITMAP
5000
2000
1800
0400
0A00
A020
4040
A020
4040
A020
E060
4040
A020
4040
A020
75C0
1A80
0500
ENDCHAR
STARTCHAR 00DA
ENCODING 218
SWIDTH 780 0
DWIDTH 13 0
BBX 11 18 1 0
BITMAP
0100
0280
0500
0A00
0400
A020
4040
A020
4040
A020
E060
4040
A020
4040
A020
75C0
1A80
0500
ENDCHAR
STARTCHAR 00DB
ENCODING 219
SWIDTH 780 0
DWIDTH 13 0
BBX 11 18 1 0
BITMAP
0A00
0500
1A80
0100
1A80
A020
4040
A020
4040
A020
E060
4040
A020
4040
A020
75C0
1A80
0500
ENDCHAR
STARTCHAR 00DC
ENCODING 220
SWIDTH 780 0
DWIDTH 13 0
BBX 11 16 1 0
BITMAP
1A80
0100
1A80
A020
4040
A020
4040
A020
E060
4040
A020
4040
A020
75C0
1A80
0500
ENDCHAR
STARTCHAR 00DD
ENCODING 221
SWIDTH 660 0
DWIDTH 11 0
BBX 9 18 1 0
BITMAP
0280
0500
0A00
0400
1800
A100
4080
A100
4080
A100
E180
5280
2500
1A00
0400
0C00
0800
0400
ENDCHAR
STARTCHAR 00DE
ENCODING 222
SWIDTH 660 0
DWIDTH 11 0
BBX 9 13 1 0
BITMAP
A000
4000
A500
5A80
A500
E180
4080
A100
4080
A500
FF80
4000
A000
ENDCHAR
STARTCHAR 00DF
ENCODING 223
SWIDTH 660 0
DWIDTH 11 0
BBX 9 13 1 0
BITMAP
2500
5A80
A500
4080
A100
E780
4A80
A500
4080
A100
E580
4A80
A500
ENDCHAR
STARTCHAR 00E0
ENCODING 224
SWIDTH 660 0
DWIDTH 11 0
BBX 9 18 1 0
BITMAP
A000
5000
2000
1800
0400
2500
5A80
A500
4080
A100
E180
4080
A500
5A80
A500
E180
4080
A100
ENDCHAR
STARTCHAR 00E1
ENCODING 225
SWIDTH 660 0
DWIDTH 11 0
BBX 9 18 1 0
BITMAP
0280
0500
0A00
0400
1800
2500
5A80
A500
4080
A100
E180
4080
A500
5A80
A500
E180
4080
A100
ENDCHAR
STARTCHAR 00E2
ENCODING 226
SWIDTH 660 0
DWIDTH 11 0
BBX 9 18 1 0
BITMAP
0400
1A00
2500
1200
2500
2500
5A80
A500
4080
A100
E180
4080
A500
5A80
A500
E180
4080
A100
ENDCHAR
STARTCHAR 00E3
ENCODING 227
SWIDTH 660 0
DWIDTH 11 0
BBX 9 18 1 0
BITMAP
2100
5880
A500
4A80
A500
2500
5A80
A500
4080
A100
E180
4080
A500
5A80
A500
E180
4080
A100
ENDCHAR
STARTCHAR 00E4
ENCODING 228
SWIDTH 660 0
DWIDTH 11 0
BBX 9 16 1 0
BITMAP
2500
1200
2500
2500
5A80
A500
4080
A100
E180
4080
A500
5A80
A500
E180
4080
A100
ENDCHAR
STARTCHAR 00E5
ENCODING 229
SWIDTH 660 0
DWIDTH 11 0
BBX 9 21 1 0
BITMAP
1A00
2500
5A80
7380
2100
5A80
2500
1A00
2500
5A80
A500
4080
A100
E180
4080
A500
5A80
A500
E180
4080
A100
ENDCHAR
STARTCHAR 00E6
ENCODING 230
SWIDTH 1080 0
DWIDTH 18 0
BBX 16 13 1 0
BITMAP
2529
5AD6
A529
4080
A100
E1A8
40D4
A528
5A80
A500
E1A9
40D6
A029
ENDCHAR
STARTCHAR 00E7
ENCODING 231
SWIDTH 660 0
DWIDTH 11 0
BBX 9 16 1 -3
BITMAP
2500
5A80
A500
4080
A100
E180
4000
A000
4000
A100
E580
5A80
2500
0800
2400
3800
ENDCHAR
STARTCHAR 00E8
ENCODING 232
SWIDTH 660 0
DWIDTH 11 0
BBX 9 18 1 0
BITMAP
A000
5000
2000
1800
0400
2500
5A80
A500
4000
A000
E500
5A00
A500
4000
A000
E500
5A80
2500
ENDCHAR
STARTCHAR 00E9
ENCODING 233
SWIDTH 660 0
DWIDTH 11 0
BBX 9 18 1 0
BITMAP
0280
0500
0A00
0400
1800
2500
5A80
A500
4000
A000
E500
5A00
A500
4000
A000
E500
5A80
2500
ENDCHAR
STARTCHAR 00EA
ENCODING 234
SWIDTH 660 0
DWIDTH 11 0
BBX 9 18 1 0
BITMAP
0400
1A00
2500
1200
2500
2500
5A80
A500
4000
A000
E500
5A00
A500
4000
A000
E500
5A80
2500
ENDCHAR
STARTCHAR 00EB
ENCODING 235
SWIDTH 660 0
DWIDTH 11 0
BBX 9 16 1 0
BITMAP
2500
1200
2500
2500
5A80
A500
4000
A000
E500
5A00
A500
4000
A000
E500
5A80
2500
ENDCHAR
STARTCHAR 00EC
ENCODING 236
SWIDTH 300 0
DWIDTH 5 0
BBX 6 18 -2 0
BITMAP
80
60
10
28
14
14
08
14
08
14
1C
08
14
08
14
1C
08
14
ENDCHAR
STARTCHAR 00ED
ENCODING 237
SWIDTH 300 0
DWIDTH 5 0
BBX 6 18 0 0
BITMAP
0C
10
28
50
A0
50
20
50
20
50
70
20
50
20
50
70
20
50
ENDCHAR
STARTCHAR 00EE
ENCODING 238
SWIDTH 300 0
DWIDTH 5 0
BBX 5 18 0 0
BITMAP
50
A8
50
88
50
50
20
50
20
50
70
20
50
20
50
70
20
50
ENDCHAR
STARTCHAR 00EF
ENCODING 239
SWIDTH 300 0
DWIDTH 5 0
BBX 5 16 0 0
BITMAP
50
88
50
50
20
50
20
50
70
20
50
20
50
70
20
50
ENDCHAR
STARTCHAR 00F0
ENCODING 240
SWIDTH 720 0
DWIDTH 12 0
BBX 11 13 0 0
BITMAP
2D40
1280
2D60
1000
2860
BC60
5000
AC60
1000
2860
3D60
1280
2D40
ENDCHAR
STARTCHAR 00F1
ENCODING 241
SWIDTH 660 0
DWIDTH 11 0
BBX 9 18 1 0
BITMAP
2100
5880
A500
4A80
A500
A100
5080
A100
5880
A500
EF80
4280
A100
4080
A100
E180
4080
A100
ENDCHAR
STARTCHAR 00F2
ENCODING 242
SWIDTH 660 0
DWIDTH 11 0
BBX 9 18 1 0
BITMAP
A000
5000
2000
1800
0400
2500
5A80
A500
4080
A100
E180
4080
A100
4080
A100
E580
5A80
2500
ENDCHAR
STARTCHAR 00F3
ENCODING 243
SWIDTH 660 0
DWIDTH 11 0
BBX 9 18 1 0
BITMAP
0280
0500
0A00
0400
1800
2500
5A80
A500
4080
A100
E180
4080
A100
4080
A100
E580
5A80
2500
ENDCHAR
STARTCHAR 00F4
ENCODING 244
SWIDTH 660 0
DWIDTH 11 0
BBX 9 18 1 0
BITMAP
0400
1A00
2500
1200
2500
2500
5A80
A500
4080
A100
E180
4080
A100
4080
A100
E580
5A80
2500
ENDCHAR
STARTCHAR 00F5
ENCODING 245
SWIDTH 660 0
DWIDTH 11 0
BBX 9 18 1 0
BITMAP
2100
5880
A500
4A80
A500
2500
5A80
A500
4080
A100
E180
4080
A100
4080
A100
E580
5A80
2500
ENDCHAR
STARTCHAR 00F6
ENCODING 246
SWIDTH 660 0
DWIDTH 11 0
BBX 9 16 1 0
BITMAP
2500
1200
2500
2500
5A80
A500
4080
A100
E180
4080
A100
4080
A100
E580
5A80
2500
ENDCHAR
STARTCHAR 00F7
ENCODING 247
SWIDTH 660 0
DWIDTH 11 0
BBX 9 9 1 2
BITMAP
0400
0800
0400
A500
5A80
A500
0000
0400
0C00
ENDCHAR
STARTCHAR 00F8
ENCODING 248
SWIDTH 780 0
DWIDTH 13 0
BBX 13 13 0 0
BITMAP
0D40
1280
2D60
1000
2860
BD68
5290
AD68
1000
2860
3D60
1280
0D40
ENDCHAR
STARTCHAR 00F9
ENCODING 249
SWIDTH 660 0
DWIDTH 11 0
BBX 9 18 1 0
BITMAP
A000
5000
2000
1800
0400
A100
4080
A100
4080
A100
E180
4080
A100
4080
A100
E580
5A80
2500
ENDCHAR
STARTCHAR 00FA
ENCODING 250
SWIDTH 660 0
DWIDTH 11 0
BBX 9 18 1 0
BITMAP
0280
0500
0A00
0400
1800
A100
4080
A100
4080
A100
E180
4080
A100
4080
A100
E580
5A80
2500
ENDCHAR
STARTCHAR 00FB
ENCODING 251
SWIDTH 660 0
DWIDTH 11 0
BBX 9 18 1 0
BITMAP
0400
1A00
2500
1200
2500
A100
4080
A100
4080
A100
E180
4080
A100
4080
A100
E580
5A80
2500
ENDCHAR
STARTCHAR 00FC
ENCODING 252
SWIDTH 660 0
DWIDTH 11 0
BBX 9 16 1 0
BITMAP
2500
1200
2500
A100
4080
A100
4080
A100
E180
4080
A100
4080
A100
E580
5A80
2500
ENDCHAR
STARTCHAR 00FD
ENCODING 253
SWIDTH 660 0
DWIDTH 11 0
BBX 9 18 1 0
BITMAP
0280
0500
0A00
0400
1800
A100
4080
A100
4080
A100
E180
4080
A500
5A80
2500
0C00
0800
0400
ENDCHAR
STARTCHAR 00FE
ENCODING 254
SWIDTH 660 0
DWIDTH 11 0
BBX 9 13 1 0
BITMAP
A000
4000
A500
5A80
A500
E180
4080
A100
4080
A500
FF80
4000
A000
ENDCHAR
STARTCHAR 00FF
ENCODING 255
SWIDTH 660 0
DWIDTH 11 0
BBX 9 16 1 0
BITMAP
2500
1200
2500
A100
4080
A100
4080
A100
E180
4080
A500
5A80
2500
0C00
0800
0400
ENDCHAR
STARTCHAR 0100
ENCODING 256
SWIDTH 660 0
DWIDTH 11 0
BBX 9 16 1 0
BITMAP
2500
1A00
2500
0400
1A00
2500
5280
A100
E180
4080
A500
5A80
A500
E180
4080
A100
ENDCHAR
STARTCHAR 0101
ENCODING 257
SWIDTH 660 0
DWIDTH 11 0
BBX 9 16 1 0
BITMAP
2500
1A00
2500
2500
5A80
A500
4080
A100
E180
4080
A500
5A80
A500
E180
4080
A100
ENDCHAR
STARTCHAR 0102
ENCODING 258
SWIDTH 660 0
DWIDTH 11 0
BBX 9 18 1 0
BITMAP
5280
2100
5A80
2500
1A00
0400
1A00
2500
5280
A100
E180
4080
A500
5A80
A500
E180
4080
A100
ENDCHAR
STARTCHAR 0103
ENCODING 259
SWIDTH 660 0
DWIDTH 11 0
BBX 9 18 1 0
BITMAP
5280
2100
5A80
2500
1A00
2500
5A80
A500
4080
A100
E180
4080
A500
5A80
A500
E180
4080
A100
ENDCHAR
STARTCHAR 0104
ENCODING 260
SWIDTH 660 0
DWIDTH 11 0
BBX 11 16 1 -3
BITMAP
0400
1A00
2500
5280
A100
E180
4080
A500
5A80
A500
E180
4080
A100
0080
0120
00E0
ENDCHAR
STARTCHAR 0105
ENCODING 261
SWIDTH 660 0
DWIDTH 11 0
BBX 11 16 1 -3
BITMAP
2500
5A80
A500
4080
A100
E180
4080
A500
5A80
A500
E180
4080
A100
0080
0120
00E0
ENDCHAR
STARTCHAR 0106
ENCODING 262
SWIDTH 780 0
DWIDTH 13 0
BBX 11 18 1 0
BITMAP
0100
0280
0500
0A00
0400
0500
1A80
2500
50C0
A020
E060
4000
A000
4000
A020
75C0
1A80
0500
ENDCHAR
STARTCHAR 0107
ENCODING 263
SWIDTH 660 0
DWIDTH 11 0
BBX 9 18 1 0
BITMAP
0280
0500
0A00
0400
1800
2500
5A80
A500
4080
A100
E180
4000
A000
4000
A100
E580
5A80
2500
ENDCHAR
STARTCHAR 010A
ENCODING 266
SWIDTH 780 0
DWIDTH 13 0
BBX 11 16 1 0
BITMAP
0A00
0400
0A00
0500
1A80
2500
50C0
A020
E060
4000
A000
4000
A020
75C0
1A80
0500
ENDCHAR
STARTCHAR 010B
ENCODING 267
SWIDTH 660 0
DWIDTH 11 0
BBX 9 16 1 0
BITMAP
0400
0800
0400
2500
5A80
A500
4080
A100
E180
4000
A000
4000
A100
E580
5A80
2500
ENDCHAR
STARTCHAR 010C
ENCODING 268
SWIDTH 780 0
DWIDTH 13 0
BBX 11 18 1 0
BITMAP
1A80
0100
1A80
0500
0A00
0500
1A80
2500
50C0
A020
E060
4000
A000
4000
A020
75C0
1A80
0500
ENDCHAR
STARTCHAR 010D
ENCODING 269
SWIDTH 660 0
DWIDTH 11 0
BBX 9 18 1 0
BITMAP
2500
1200
2500
1A00
0400
2500
5A80
A500
4080
A100
E180
4000
A000
4000
A100
E580
5A80
2500
ENDCHAR
STARTCHAR 010E
ENCODING 270
SWIDTH 780 0
DWIDTH 13 0
BBX 11 18 1 0
BITMAP
1A80
0100
1A80
0500
0A00
A500
5A80
A500
40C0
A020
E060
4040
A020
4040
A020
E5C0
5A80
A500
ENDCHAR
STARTCHAR 010F
ENCODING 271
SWIDTH 660 0
DWIDTH 11 0
BBX 9 18 1 0
BITMAP
2500
1200
2500
1A00
0400
A500
5A80
A500
4080
A100
E180
4080
A100
4080
A100
E580
5A80
A500
ENDCHAR
STARTCHAR 0110
ENCODING 272
SWIDTH 840 0
DWIDTH 14 0
BBX 13 13 0 0
BITMAP
2D40
1280
2D60
1010
2828
BC38
5010
AC28
1010
2828
3D70
1280
2D40
ENDCHAR
STARTCHAR 0111
ENCODING 273
SWIDTH 720 0
DWIDTH 12 0
BBX 11 13 0 0
BITMAP
2D40
1280
2D60
1000
2860
BC60
5000
AC60
1000
2860
3D60
1280
2D40
ENDCHAR
STARTCHAR 0112
ENCODING 274
SWIDTH 660 0
DWIDTH 11 0
BBX 9 16 1 0
BITMAP
2500
1A00
2500
0500
1A80
2500
5000
A000
E500
5A00
A500
4000
A000
7500
1A80
0500
ENDCHAR
STARTCHAR 0113
ENCODING 275
SWIDTH 660 0
DWIDTH 11 0
BBX 9 16 1 0
BITMAP
2500
1A00
2500
2500
5A80
A500
4000
A000
E500
5A00
A500
4000
A000
E500
5A80
2500
ENDCHAR
STARTCHAR 0116
ENCODING 278
SWIDTH 660 0
DWIDTH 11 0
BBX 9 16 1 0
BITMAP
0400
0800
0400
0500
1A80
2500
5000
A000
E500
5A00
A500
4000
A000
7500
1A80
0500
ENDCHAR
STARTCHAR 0117
ENCODING 279
SWIDTH 660 0
DWIDTH 11 0
BBX 9 16 1 0
BITMAP
0400
0800
0400
2500
5A80
A500
4000
A000
E500
5A00
A500
4000
A000
E500
5A80
2500
ENDCHAR
STARTCHAR 0118
ENCODING 280
SWIDTH 660 0
DWIDTH 11 0
BBX 11 16 1 -3
BITMAP
0500
1A80
2500
5000
A000
E500
5A00
A500
4000
A000
7500
1A80
0500
0080
0120
00E0
ENDCHAR
STARTCHAR 0119
ENCODING 281
SWIDTH 660 0
DWIDTH 11 0
BBX 11 16 1 -3
BITMAP
2500
5A80
A500
4000
A000
E500
5A00
A500
4000
A000
E500
5A80
2500
0080
0120
00E0
ENDCHAR
STARTCHAR 011A
ENCODING 282
SWIDTH 660 0
DWIDTH 11 0
BBX 9 18 1 0
BITMAP
2500
1200
2500
1A00
0400
0500
1A80
2500
5000
A000
E500
5A00
A500
4000
A000
7500
1A80
0500
ENDCHAR
STARTCHAR 011B
ENCODING 283
SWIDTH 660 0
DWIDTH 11 0
BBX 9 18 1 0
BITMAP
2500
1200
2500
1A00
0400
2500
5A80
A500
4000
A000
E500
5A00
A500
4000
A000
E500
5A80
2500
ENDCHAR
STARTCHAR 011E
ENCODING 286
SWIDTH 780 0
DWIDTH 13 0
BBX 11 18 1 0
BITMAP
2100
1080
2500
1A80
0500
0520
1AC0
2520
5000
A000
E520
42C0
A520
4040
A020
7560
1AC0
0520
ENDCHAR
STARTCHAR 011F
ENCODING 287
SWIDTH 660 0
DWIDTH 11 0
BBX 9 18 1 0
BITMAP
5280
2100
5A80
2500
1A00
2500
5A80
A500
4000
A000
E500
4280
A500
4080
A100
E580
5A80
2500
ENDCHAR
STARTCHAR 0120
ENCODING 288
SWIDTH 780 0
DWIDTH 13 0
BBX 11 16 1 0
BITMAP
0A00
0400
0A00
0520
1AC0
2520
5000
A000
E520
42C0
A520
4040
A020
7560
1AC0
0520
ENDCHAR
STARTCHAR 0121
ENCODING 289
SWIDTH 660 0
DWIDTH 11 0
BBX 9 16 1 0
BITMAP
0400
0800
0400
2500
5A80
A500
4000
A000
E500
4280
A500
4080
A100
E580
5A80
2500
ENDCHAR
STARTCHAR 0122
ENCODING 290
SWIDTH 780 0
DWIDTH 13 0
BBX 11 18 1 -5
BITMAP
0520
1AC0
2520
5000
A000
E520
42C0
A520
4040
A020
7560
1AC0
0520
0000
0A00
0E00
0400
0800
ENDCHAR
STARTCHAR 0123
ENCODING 291
SWIDTH 660 0
DWIDTH 11 0
BBX 9 17 1 -5
BITMAP
2500
5A80
A500
4000
A000
E500
4280
A500
4080
A100
E580
5A80
2500
0000
0400
0C00
0800
ENDCHAR
STARTCHAR 0126
ENCODING 294
SWIDTH 900 0
DWIDTH 15 0
BBX 15 13 0 0
BITMAP
2828
1010
AD6A
5294
AD6A
3D78
1290
2D68
1010
2828
3838
1010
2828
ENDCHAR
STARTCHAR 0127
ENCODING 295
SWIDTH 780 0
DWIDTH 13 0
BBX 13 13 0 0
BITMAP
2860
1000
AD68
5290
AD68
3D60
1280
2D60
1000
2860
3860
1000
2860
ENDCHAR
STARTCHAR 0128
ENCODING 296
SWIDTH 480 0
DWIDTH 8 0
BBX 9 18 0 0
BITMAP
5280
A900
5280
8D00
4200
5200
2C00
5200
0800
1000
1800
0800
1000
0800
1000
5A00
2C00
5200
ENDCHAR
STARTCHAR 0129
ENCODING 297
SWIDTH 300 0
DWIDTH 5 0
BBX 9 18 -2 0
BITMAP
1080
6900
9480
4B00
8400
1400
0800
1400
0800
1400
1C00
0800
1400
0800
1400
1C00
0800
1400
ENDCHAR
STARTCHAR 012A
ENCODING 298
SWIDTH 480 0
DWIDTH 8 0
BBX 6 16 1 0
BITMAP
A4
58
A4
A4
58
A4
10
20
30
10
20
10
20
B4
58
A4
ENDCHAR
STARTCHAR 012B
ENCODING 299
SWIDTH 300 0
DWIDTH 5 0
BBX 5 16 0 0
BITMAP
50
A8
50
50
20
50
20
50
70
20
50
20
50
70
20
50
ENDCHAR
STARTCHAR 012E
ENCODING 302
SWIDTH 480 0
DWIDTH 8 0
BBX 8 16 1 -3
BITMAP
A4
58
A4
10
20
30
10
20
10
20
B4
58
A4
08
05
0F
ENDCHAR
STARTCHAR 012F
ENCODING 303
SWIDTH 300 0
DWIDTH 5 0
BBX 4 16 1 -3
BITMAP
A0
40
A0
40
A0
E0
40
A0
40
A0
E0
40
A0
40
A0
70
ENDCHAR
STARTCHAR 0130
ENCODING 304
SWIDTH 480 0
DWIDTH 8 0
BBX 6 16 1 0
BITMAP
20
10
20
A4
58
A4
10
20
30
10
20
10
20
B4
58
A4
ENDCHAR
STARTCHAR 0131
ENCODING 305
SWIDTH 300 0
DWIDTH 5 0
BBX 3 13 1 0
BITMAP
A0
40
A0
40
A0
E0
40
A0
40
A0
E0
40
A0
ENDCHAR
STARTCHAR 0136
ENCODING 310
SWIDTH 660 0
DWIDTH 11 0
BBX 9 17 1 -5
BITMAP
A100
4080
A100
4280
A500
EE00
5800
A400
4A00
A500
E380
4080
A100
0000
0400
0C00
0800
ENDCHAR
STARTCHAR 0137
ENCODING 311
SWIDTH 660 0
DWIDTH 11 0
BBX 9 17 1 -5
BITMAP
A100
4080
A100
4080
A100
E780
5A00
A500
4280
A100
E180
4080
A100
0000
0400
0C00
0800
ENDCHAR
STARTCHAR 0139
ENCODING 313
SWIDTH 660 0
DWIDTH 11 0
BBX 10 18 0 0
BITMAP
0C00
1000
2800
5000
A000
5000
2000
5000
2000
5000
7000
2000
5000
2000
5000
7280
2D40
1280
ENDCHAR
STARTCHAR 013A
ENCODING 314
SWIDTH 600 0
DWIDTH 10 0
BBX 9 18 0 0
BITMAP
0C00
1000
2800
5000
A000
5000
2000
5000
2000
5000
7000
2000
5000
2000
5000
7280
2D00
1280
ENDCHAR
STARTCHAR 013B
ENCODING 315
SWIDTH 660 0
DWIDTH 11 0
BBX 9 17 1 -5
BITMAP
A000
4000
A000
4000
A000
E000
4000
A000
4000
A000
E500
5A80
2500
0000
0400
0C00
0800
ENDCHAR
STARTCHAR 013C
ENCODING 316
SWIDTH 600 0
DWIDTH 10 0
BBX 8 18 1 -5
BITMAP
A0
40
A0
40
A0
E0
40
A0
40
A0
E5
5A
25
00
18
18
00
10
ENDCHAR
STARTCHAR 013D
ENCODING 317
SWIDTH 660 0
DWIDTH 11 0
BBX 9 13 1 0
BITMAP
A100
4080
A100
4080
A100
E000
4000
A000
4000
A000
E500
5A80
2500
ENDCHAR
STARTCHAR 013E
ENCODING 318
SWIDTH 600 0
DWIDTH 10 0
BBX 8 13 1 0
BITMAP
A5
42
A5
42
A4
E0
40
A0
40
A0
E5
5A
25
ENDCHAR
STARTCHAR 0141
ENCODING 321
SWIDTH 720 0
DWIDTH 12 0
BBX 11 13 0 0
BITMAP
2800
1000
2800
1000
2C00
BC00
5000
A800
1000
2800
3D60
1280
0D60
ENDCHAR
STARTCHAR 0142
ENCODING 322
SWIDTH 600 0
DWIDTH 10 0
BBX 10 13 0 0
BITMAP
2800
1000
2800
1000
2C00
BC00
5000
A800
1000
2800
3D40
1280
0D40
ENDCHAR
STARTCHAR 0143
ENCODING 323
SWIDTH 780 0
DWIDTH 13 0
BBX 11 18 1 0
BITMAP
0100
0280
0500
0A00
0400
A020
5040
A020
5840
A420
EF60
42C0
A120
40C0
A020
E060
4040
A020
ENDCHAR
STARTCHAR 0144
ENCODING 324
SWIDTH 660 0
DWIDTH 11 0
BBX 9 18 1 0
BITMAP
0280
0500
0A00
0400
1800
A100
5080
A100
5880
A500
EF80
4280
A100
4080
A100
E180
4080
A100
ENDCHAR
STARTCHAR 0145
ENCODING 325
SWIDTH 780 0
DWIDTH 13 0
BBX 11 18 1 -5
BITMAP
A020
5040
A020
5840
A420
EF60
42C0
A120
40C0
A020
E060
4040
A020
0000
0A00
0E00
0400
0800
ENDCHAR
STARTCHAR 0146
ENCODING 326
SWIDTH 660 0
DWIDTH 11 0
BBX 9 17 1 -5
BITMAP
A100
5080
A100
5880
A500
EF80
4280
A100
4080
A100
E180
4080
A100
0000
0400
0C00
0800
ENDCHAR
STARTCHAR 0147
ENCODING 327
SWIDTH 780 0
DWIDTH 13 0
BBX 11 18 1 0
BITMAP
1A80
0100
1A80
0500
0A00
A020
5040
A020
5840
A420
EF60
42C0
A120
40C0
A020
E060
4040
A020
ENDCHAR
STARTCHAR 0148
ENCODING 328
SWIDTH 660 0
DWIDTH 11 0
BBX 9 18 1 0
BITMAP
2500
1200
2500
1A00
0400
A100
5080
A100
5880
A500
EF80
4280
A100
4080
A100
E180
4080
A100
ENDCHAR
STARTCHAR 014A
ENCODING 330
SWIDTH 780 0
DWIDTH 13 0
BBX 11 16 1 -3
BITMAP
A020
5040
A020
5840
A420
EF60
42C0
A120
40C0
A020
E060
4040
A020
0040
0120
01C0
ENDCHAR
STARTCHAR 014B
ENCODING 331
SWIDTH 660 0
DWIDTH 11 0
BBX 9 16 1 -3
BITMAP
A100
5080
A100
5880
A500
EF80
4280
A100
4080
A100
E180
4080
A100
0080
0500
0780
ENDCHAR
STARTCHAR 014C
ENCODING 332
SWIDTH 780 0
DWIDTH 13 0
BBX 11 16 1 0
BITMAP
1A80
0500
1A80
0500
1A80
2500
50C0
A020
E060
4040
A020
4040
A020
75C0
1A80
0500
ENDCHAR
STARTCHAR 014D
ENCODING 333
SWIDTH 660 0
DWIDTH 11 0
BBX 9 16 1 0
BITMAP
2500
1A00
2500
2500
5A80
A500
4080
A100
E180
4080
A100
4080
A100
E580
5A80
2500
ENDCHAR
STARTCHAR 0150
ENCODING 336
SWIDTH 780 0
DWIDTH 13 0
BBX 12 18 1 0
BITMAP
0A50
0420
18C0
2100
5280
0500
1A80
2500
50C0
A020
E060
4040
A020
4040
A020
75C0
1A80
0500
ENDCHAR
STARTCHAR 0151
ENCODING 337
SWIDTH 660 0
DWIDTH 11 0
BBX 11 18 1 0
BITMAP
0420
18C0
2100
5280
A500
2500
5A80
A500
4080
A100
E180
4080
A100
4080
A100
E580
5A80
2500
ENDCHAR
STARTCHAR 0152
ENCODING 338
SWIDTH 1200 0
DWIDTH 20 0
BBX 18 13 1 0
BITMAP
050940
1A9680
252940
50D000
A02000
E06900
405600
A02900
404000
A02000
75F940
1A9680
050940
ENDCHAR
STARTCHAR 0153
ENCODING 339
SWIDTH 1080 0
DWIDTH 18 0
BBX 16 13 1 0
BITMAP
2529
5AD6
A529
4080
A100
E1A8
40D4
A128
4080
A100
E5A9
5AD6
2529
ENDCHAR
STARTCHAR 0154
ENCODING 340
SWIDTH 660 0
DWIDTH 11 0
BBX 9 18 1 0
BITMAP
0280
0500
0A00
0400
1800
A400
5A00
A500
4280
A100
E180
4080
A100
4280
A500
FF00
4280
A100
ENDCHAR
STARTCHAR 0155
ENCODING 341
SWIDTH 660 0
DWIDTH 11 0
BBX 9 18 1 0
BITMAP
0280
0500
0A00
0400
1800
A500
5A80
A500
4080
A100
E180
4080
A500
5A80
A500
E380
4080
A100
ENDCHAR
STARTCHAR 0156
ENCODING 342
SWIDTH 660 0
DWIDTH 11 0
BBX 9 17 1 -5
BITMAP
A400
5A00
A500
4280
A100
E180
4080
A100
4280
A500
FF00
4280
A100
0000
0400
0C00
0800
ENDCHAR
STARTCHAR 0157
ENCODING 343
SWIDTH 660 0
DWIDTH 11 0
BBX 9 17 1 -5
BITMAP
A500
5A80
A500
4080
A100
E180
4080
A500
5A80
A500
E380
4080
A100
0000
0400
0C00
0800
ENDCHAR
STARTCHAR 0158
ENCODING 344
SWIDTH 660 0
DWIDTH 11 0
BBX 9 18 1 0
BITMAP
2500
1200
2500
1A00
0400
A400
5A00
A500
4280
A100
E180
4080
A100
4280
A500
FF00
4280
A100
ENDCHAR
STARTCHAR 0159
ENCODING 345
SWIDTH 660 0
DWIDTH 11 0
BBX 9 18 1 0
BITMAP
2500
1200
2500
1A00
0400
A500
5A80
A500
4080
A100
E180
4080
A500
5A80
A500
E380
4080
A100
ENDCHAR
STARTCHAR 015A
ENCODING 346
SWIDTH 660 0
DWIDTH 11 0
BBX 9 18 1 0
BITMAP
0280
0500
0A00
0400
1800
2500
5A80
A500
4080
A100
E500
5A80
2500
0080
A100
E580
5A80
2500
ENDCHAR
STARTCHAR 015B
ENCODING 347
SWIDTH 660 0
DWIDTH 11 0
BBX 9 18 1 0
BITMAP
0280
0500
0A00
0400
1800
2500
5A80
A500
4080
A100
E500
5A80
2500
0080
A100
E580
5A80
2500
ENDCHAR
STARTCHAR 015E
ENCODING 350
SWIDTH 660 0
DWIDTH 11 0
BBX 9 16 1 -3
BITMAP
2500
5A80
A500
4080
A100
E500
5A80
2500
0080
A100
E580
5A80
2500
0800
2400
3800
ENDCHAR
STARTCHAR 015F
ENCODING 351
SWIDTH 660 0
DWIDTH 11 0
BBX 9 16 1 -3
BITMAP
2500
5A80
A500
4080
A100
E500
5A80
2500
0080
A100
E580
5A80
2500
0800
2400
3800
ENDCHAR
STARTCHAR 0160
ENCODING 352
SWIDTH 660 0
DWIDTH 11 0
BBX 9 18 1 0
BITMAP
2500
1200
2500
1A00
0400
2500
5A80
A500
4080
A100
E500
5A80
2500
0080
A100
E580
5A80
2500
ENDCHAR
STARTCHAR 0161
ENCODING 353
SWIDTH 660 0
DWIDTH 11 0
BBX 9 18 1 0
BITMAP
2500
1200
2500
1A00
0400
2500
5A80
A500
4080
A100
E500
5A80
2500
0080
A100
E580
5A80
2500
ENDCHAR
STARTCHAR 0162
ENCODING 354
SWIDTH 660 0
DWIDTH 11 0
BBX 9 16 1 -3
BITMAP
A500
5A80
A500
0800
0400
0C00
0800
0400
0800
0400
0C00
0800
0400
0800
2400
3800
ENDCHAR
STARTCHAR 0163
ENCODING 355
SWIDTH 660 0
DWIDTH 11 0
BBX 9 16 1 -3
BITMAP
A500
5A80
A500
0800
0400
0C00
0800
0400
0800
0400
0C00
0800
0400
0800
2400
3800
ENDCHAR
STARTCHAR 0164
ENCODING 356
SWIDTH 660 0
DWIDTH 11 0
BBX 9 18 1 0
BITMAP
2500
1200
2500
1A00
0400
A500
5A80
A500
0800
0400
0C00
0800
0400
0800
0400
0C00
0800
0400
ENDCHAR
STARTCHAR 0165
ENCODING 357
SWIDTH 660 0
DWIDTH 11 0
BBX 9 18 1 0
BITMAP
2500
1200
2500
1A00
0400
A500
5A80
A500
0800
0400
0C00
0800
0400
0800
0400
0C00
0800
0400
ENDCHAR
STARTCHAR 0166
ENCODING 358
SWIDTH 660 0
DWIDTH 11 0
BBX 9 13 1 0
BITMAP
A500
5A80
A500
0800
0400
2D00
1A00
2500
0800
0400
0C00
0800
0400
ENDCHAR
STARTCHAR 0167
ENCODING 359
SWIDTH 660 0
DWIDTH 11 0
BBX 9 13 1 0
BITMAP
A500
5A80
A500
0800
0400
2D00
1A00
2500
0800
0400
0C00
0800
0400
ENDCHAR
STARTCHAR 0168
ENCODING 360
SWIDTH 780 0
DWIDTH 13 0
BBX 11 18 1 0
BITMAP
18C0
2400
5AC0
2500
5280
A020
4040
A020
4040
A020
E060
4040
A020
4040
A020
75C0
1A80
0500
ENDCHAR
STARTCHAR 0169
ENCODING 361
SWIDTH 660 0
DWIDTH 11 0
BBX 9 18 1 0
BITMAP
2100
5880
A500
4A80
A500
A100
4080
A100
4080
A100
E180
4080
A100
4080
A100
E580
5A80
2500
ENDCHAR
STARTCHAR 016A
ENCODING 362
SWIDTH 780 0
DWIDTH 13 0
BBX 11 16 1 0
BITMAP
1A80
0500
1A80
A020
4040
A020
4040
A020
E060
4040
A020
4040
A020
75C0
1A80
0500
ENDCHAR
STARTCHAR 016B
ENCODING 363
SWIDTH 660 0
DWIDTH 11 0
BBX 9 16 1 0
BITMAP
2500
1A00
2500
A100
4080
A100
4080
A100
E180
4080
A100
4080
A100
E580
5A80
2500
ENDCHAR
STARTCHAR 016E
ENCODING 366
SWIDTH 780 0
DWIDTH 13 0
BBX 11 21 1 0
BITMAP
0500
1A80
2500
3180
1080
2500
1A80
0500
A020
4040
A020
4040
A020
E060
4040
A020
4040
A020
75C0
1A80
0500
ENDCHAR
STARTCHAR 016F
ENCODING 367
SWIDTH 660 0
DWIDTH 11 0
BBX 9 21 1 0
BITMAP
1A00
2500
5A80
7380
2100
5A80
2500
1A00
A100
4080
A100
4080
A100
E180
4080
A100
4080
A100
E580
5A80
2500
ENDCHAR
STARTCHAR 0170
ENCODING 368
SWIDTH 780 0
DWIDTH 13 0
BBX 12 18 1 0
BITMAP
0A50
0420
18C0
2100
5280
A020
4040
A020
4040
A020
E060
4040
A020
4040
A020
75C0
1A80
0500
ENDCHAR
STARTCHAR 0171
ENCODING 369
SWIDTH 660 0
DWIDTH 11 0
BBX 11 18 1 0
BITMAP
0420
18C0
2100
5280
A500
A100
4080
A100
4080
A100
E180
4080
A100
4080
A100
E580
5A80
2500
ENDCHAR
STARTCHAR 0172
ENCODING 370
SWIDTH 780 0
DWIDTH 13 0
BBX 11 16 1 -3
BITMAP
A020
4040
A020
4040
A020
E060
4040
A020
4040
A020
75C0
1A80
0500
0200
0500
0380
ENDCHAR
STARTCHAR 0173
ENCODING 371
SWIDTH 660 0
DWIDTH 11 0
BBX 9 16 1 -3
BITMAP
A100
4080
A100
4080
A100
E180
4080
A100
4080
A100
E580
5A80
2500
0200
0500
0380
ENDCHAR
STARTCHAR 0174
ENCODING 372
SWIDTH 1080 0
DWIDTH 18 0
BBX 16 18 1 0
BITMAP
0100
02C0
0520
0240
0520
A101
4082
A101
4082
A101
E183
4082
A101
4082
A101
77EE
1A54
0428
ENDCHAR
STARTCHAR 0175
ENCODING 373
SWIDTH 1080 0
DWIDTH 18 0
BBX 16 18 1 0
BITMAP
0100
02C0
0520
0240
0520
A101
4082
A101
4082
A101
E183
4082
A101
4082
A101
E7EB
5A56
2428
ENDCHAR
STARTCHAR 0176
ENCODING 374
SWIDTH 660 0
DWIDTH 11 0
BBX 9 18 1 0
BITMAP
0400
1A00
2500
1200
2500
A100
4080
A100
4080
A100
E180
5280
2500
1A00
0400
0C00
0800
0400
ENDCHAR
STARTCHAR 0177
ENCODING 375
SWIDTH 660 0
DWIDTH 11 0
BBX 9 18 1 0
BITMAP
0400
1A00
2500
1200
2500
A100
4080
A100
4080
A100
E180
4080
A500
5A80
2500
0C00
0800
0400
ENDCHAR
STARTCHAR 0178
ENCODING 376
SWIDTH 660 0
DWIDTH 11 0
BBX 9 16 1 0
BITMAP
2500
1200
2500
A100
4080
A100
4080
A100
E180
5280
2500
1A00
0400
0C00
0800
0400
ENDCHAR
STARTCHAR 0179
ENCODING 377
SWIDTH 660 0
DWIDTH 11 0
BBX 9 18 1 0
BITMAP
0280
0500
0A00
0400
1800
A500
5A80
A500
0280
0500
0E00
1800
2000
5000
A000
E500
5A80
A500
ENDCHAR
STARTCHAR 017A
ENCODING 378
SWIDTH 660 0
DWIDTH 11 0
BBX 9 18 1 0
BITMAP
0280
0500
0A00
0400
1800
A500
5A80
A500
0080
0100
2580
5A80
A500
4000
A000
E500
5A80
A500
ENDCHAR
STARTCHAR 017B
ENCODING 379
SWIDTH 660 0
DWIDTH 11 0
BBX 9 16 1 0
BITMAP
0400
0800
0400
A500
5A80
A500
0280
0500
0E00
1800
2000
5000
A000
E500
5A80
A500
ENDCHAR
STARTCHAR 017C
ENCODING 380
SWIDTH 660 0
DWIDTH 11 0
BBX 9 16 1 0
BITMAP
0400
0800
0400
A500
5A80
A500
0080
0100
2580
5A80
A500
4000
A000
E500
5A80
A500
ENDCHAR
STARTCHAR 017D
ENCODING 381
SWIDTH 660 0
DWIDTH 11 0
BBX 9 18 1 0
BITMAP
2500
1200
2500
1A00
0400
A500
5A80
A500
0280
0500
0E00
1800
2000
5000
A000
E500
5A80
A500
ENDCHAR
STARTCHAR 017E
ENCODING 382
SWIDTH 660 0
DWIDTH 11 0
BBX 9 18 1 0
BITMAP
2500
1200
2500
1A00
0400
A500
5A80
A500
0080
0100
2580
5A80
A500
4000
A000
E500
5A80
A500
ENDCHAR
STARTCHAR 0192
ENCODING 402
SWIDTH 660 0
DWIDTH 11 0
BBX 9 16 1 -3
BITMAP
0500
0A80
0500
0800
0400
2D00
1A00
2500
0800
0400
0C00
0800
0400
0800
A400
F800
ENDCHAR
STARTCHAR 01A0
ENCODING 416
SWIDTH 900 0
DWIDTH 15 0
BBX 14 14 1 0
BITMAP
0008
252C
5AD4
A528
4040
A020
E060
4040
A020
4040
A020
E560
5AC0
2500
ENDCHAR
STARTCHAR 01A1
ENCODING 417
SWIDTH 840 0
DWIDTH 14 0
BBX 13 14 1 0
BITMAP
0028
2538
5AD0
A520
4080
A100
E180
4080
A100
4080
A100
E580
5A80
2500
ENDCHAR
STARTCHAR 01AF
ENCODING 431
SWIDTH 900 0
DWIDTH 15 0
BBX 14 14 1 0
BITMAP
0008
A02C
4054
A028
4040
A020
E060
4040
A020
4040
A020
75C0
1A80
0500
ENDCHAR
STARTCHAR 01B0
ENCODING 432
SWIDTH 840 0
DWIDTH 14 0
BBX 13 14 1 0
BITMAP
0028
A138
40D0
A120
4080
A100
E180
4080
A100
4080
A100
E580
5A80
2500
ENDCHAR
STARTCHAR 01CD
ENCODING 461
SWIDTH 660 0
DWIDTH 11 0
BBX 9 18 1 0
BITMAP
2500
1200
2500
1A00
0400
0400
1A00
2500
5280
A100
E180
4080
A500
5A80
A500
E180
4080
A100
ENDCHAR
STARTCHAR 01CE
ENCODING 462
SWIDTH 660 0
DWIDTH 11 0
BBX 9 18 1 0
BITMAP
2500
1200
2500
1A00
0400
2500
5A80
A500
4080
A100
E180
4080
A500
5A80
A500
E180
4080
A100
ENDCHAR
STARTCHAR 01CF
ENCODING 463
SWIDTH 480 0
DWIDTH 8 0
BBX 6 18 1 0
BITMAP
A4
48
A4
58
20
A4
58
A4
10
20
30
10
20
10
20
B4
58
A4
ENDCHAR
STARTCHAR 01D0
ENCODING 464
SWIDTH 300 0
DWIDTH 5 0
BBX 5 18 0 0
BITMAP
50
88
50
A8
50
50
20
50
20
50
70
20
50
20
50
70
20
50
ENDCHAR
STARTCHAR 01D1
ENCODING 465
SWIDTH 780 0
DWIDTH 13 0
BBX 11 18 1 0
BITMAP
1A80
0100
1A80
0500
0A00
0500
1A80
2500
50C0
A020
E060
4040
A020
4040
A020
75C0
1A80
0500
ENDCHAR
STARTCHAR 01D2
ENCODING 466
SWIDTH 660 0
DWIDTH 11 0
BBX 9 18 1 0
BITMAP
2500
1200
2500
1A00
0400
2500
5A80
A500
4080
A100
E180
4080
A100
4080
A100
E580
5A80
2500
ENDCHAR
STARTCHAR 01D3
ENCODING 467
SWIDTH 780 0
DWIDTH 13 0
BBX 11 18 1 0
BITMAP
1A80
0100
1A80
0500
0A00
A020
4040
A020
4040
A020
E060
4040
A020
4040
A020
75C0
1A80
0500
ENDCHAR
STARTCHAR 01D4
ENCODING 468
SWIDTH 660 0
DWIDTH 11 0
BBX 9 18 1 0
BITMAP
2500
1200
2500
1A00
0400
A100
4080
A100
4080
A100
E180
4080
A100
4080
A100
E580
5A80
2500
ENDCHAR
STARTCHAR 01D5
ENCODING 469
SWIDTH 780 0
DWIDTH 13 0
BBX 11 19 1 0
BITMAP
1A80
1F80
0000
1A80
0100
1A80
A020
4040
A020
4040
A020
E060
4040
A020
4040
A020
75C0
1A80
0500
ENDCHAR
STARTCHAR 01D6
ENCODING 470
SWIDTH 660 0
DWIDTH 11 0
BBX 9 19 1 0
BITMAP
2500
3F00
0000
2500
1200
2500
A100
4080
A100
4080
A100
E180
4080
A100
4080
A100
E580
5A80
2500
ENDCHAR
STARTCHAR 01D7
ENCODING 471
SWIDTH 780 0
DWIDTH 13 0
BBX 11 21 1 0
BITMAP
0100
0280
0500
0E00
0000
1A80
0100
1A80
A020
4040
A020
4040
A020
E060
4040
A020
4040
A020
75C0
1A80
0500
ENDCHAR
STARTCHAR 01D8
ENCODING 472
SWIDTH 660 0
DWIDTH 11 0
BBX 9 21 1 0
BITMAP
0280
0500
0A00
1C00
0000
2500
1200
2500
A100
4080
A100
4080
A100
E180
4080
A100
4080
A100
E580
5A80
2500
ENDCHAR
STARTCHAR 01D9
ENCODING 473
SWIDTH 780 0
DWIDTH 13 0
BBX 11 21 1 0
BITMAP
1A80
0100
1A80
0F00
0000
1A80
0100
1A80
A020
4040
A020
4040
A020
E060
4040
A020
4040
A020
75C0
1A80
0500
ENDCHAR
STARTCHAR 01DA
ENCODING 474
SWIDTH 660 0
DWIDTH 11 0
BBX 9 21 1 0
BITMAP
2500
1200
2500
1E00
0000
2500
1200
2500
A100
4080
A100
4080
A100
E180
4080
A100
4080
A100
E580
5A80
2500
ENDCHAR
STARTCHAR 01DB
ENCODING 475
SWIDTH 780 0
DWIDTH 13 0
BBX 11 21 1 0
BITMAP
5000
2000
1800
0E00
0000
1A80
0100
1A80
A020
4040
A020
4040
A020
E060
4040
A020
4040
A020
75C0
1A80
0500
ENDCHAR
STARTCHAR 01DC
ENCODING 476
SWIDTH 660 0
DWIDTH 11 0
BBX 9 21 1 0
BITMAP
A000
5000
2000
1C00
0000
2500
1200
2500
A100
4080
A100
4080
A100
E180
4080
A100
4080
A100
E580
5A80
2500
ENDCHAR
STARTCHAR 0218
ENCODING 536
SWIDTH 660 0
DWIDTH 11 0
BBX 9 17 1 -5
BITMAP
2500
5A80
A500
4080
A100
E500
5A80
2500
0080
A100
E580
5A80
2500
0000
0400
0C00
0800
ENDCHAR
STARTCHAR 0219
ENCODING 537
SWIDTH 660 0
DWIDTH 11 0
BBX 9 17 1 -5
BITMAP
2500
5A80
A500
4080
A100
E500
5A80
2500
0080
A100
E580
5A80
2500
0000
0400
0C00
0800
ENDCHAR
STARTCHAR 021A
ENCODING 538
SWIDTH 660 0
DWIDTH 11 0
BBX 9 17 1 -5
BITMAP
A500
5A80
A500
0800
0400
0C00
0800
0400
0800
0400
0C00
0800
0400
0000
0400
0C00
0800
ENDCHAR
STARTCHAR 021B
ENCODING 539
SWIDTH 660 0
DWIDTH 11 0
BBX 9 17 1 -5
BITMAP
A500
5A80
A500
0800
0400
0C00
0800
0400
0800
0400
0C00
0800
0400
0000
0400
0C00
0800
ENDCHAR
STARTCHAR 02BC
ENCODING 700
SWIDTH 180 0
DWIDTH 3 0
BBX 3 5 0 8
BITMAP
A0
40
A0
40
80
ENDCHAR
STARTCHAR 02C6
ENCODING 710
SWIDTH 360 0
DWIDTH 6 0
BBX 6 5 0 13
BITMAP
28
50
AC
40
AC
ENDCHAR
STARTCHAR 02C7
ENCODING 711
SWIDTH 360 0
DWIDTH 6 0
BBX 6 5 0 13
BITMAP
AC
40
AC
50
28
ENDCHAR
STARTCHAR 02D8
ENCODING 728
SWIDTH 480 0
DWIDTH 8 0
BBX 8 5 0 13
BITMAP
A5
42
AD
52
2C
ENDCHAR
STARTCHAR 02D9
ENCODING 729
SWIDTH 180 0
DWIDTH 3 0
BBX 3 3 0 13
BITMAP
A0
40
A0
ENDCHAR
STARTCHAR 02DA
ENCODING 730
SWIDTH 480 0
DWIDTH 8 0
BBX 8 8 0 13
BITMAP
2C
52
AD
E7
42
AD
52
2C
ENDCHAR
STARTCHAR 02DB
ENCODING 731
SWIDTH 240 0
DWIDTH 4 0
BBX 4 3 1 -3
BITMAP
40
A0
70
ENDCHAR
STARTCHAR 02DC
ENCODING 732
SWIDTH 600 0
DWIDTH 10 0
BBX 10 5 0 13
BITMAP
2940
5080
AD40
4280
A500
ENDCHAR
STARTCHAR 02DD
ENCODING 733
SWIDTH 600 0
DWIDTH 10 0
BBX 11 5 0 13
BITMAP
0C60
1080
2940
5280
A500
ENDCHAR
STARTCHAR 0300
ENCODING 768
SWIDTH 0 0
DWIDTH 0 0
BBX 6 5 -7 13
BITMAP
80
60
10
28
14
ENDCHAR
STARTCHAR 0301
ENCODING 769
SWIDTH 0 0
DWIDTH 0 0
BBX 5 5 -5 13
BITMAP
10
28
50
A0
40
ENDCHAR
STARTCHAR 0302
ENCODING 770
SWIDTH 0 0
DWIDTH 0 0
BBX 6 5 -6 13
BITMAP
50
28
D4
08
D4
ENDCHAR
STARTCHAR 0303
ENCODING 771
SWIDTH 0 0
DWIDTH 0 0
BBX 10 5 -10 13
BITMAP
2940
5080
AD40
4280
A500
ENDCHAR
STARTCHAR 0304
ENCODING 772
SWIDTH 0 0
DWIDTH 0 0
BBX 6 3 -6 13
BITMAP
D4
28
D4
ENDCHAR
STARTCHAR 0306
ENCODING 774
SWIDTH 0 0
DWIDTH 0 0
BBX 8 5 -8 13
BITMAP
A5
42
B5
4A
34
ENDCHAR
STARTCHAR 0307
ENCODING 775
SWIDTH 0 0
DWIDTH 0 0
BBX 3 3 -3 13
BITMAP
A0
40
A0
ENDCHAR
STARTCHAR 0308
ENCODING 776
SWIDTH 0 0
DWIDTH 0 0
BBX 6 3 -6 13
BITMAP
D4
08
D4
ENDCHAR
STARTCHAR 0309
ENCODING 777
SWIDTH 0 0
DWIDTH 0 0
BBX 6 6 -6 13
BITMAP
D0
FC
08
54
28
50
ENDCHAR
STARTCHAR 030A
ENCODING 778
SWIDTH 0 0
DWIDTH 0 0
BBX 8 8 -8 13
BITMAP
34
4A
B5
E7
42
B5
4A
34
ENDCHAR
STARTCHAR 030B
ENCODING 779
SWIDTH 0 0
DWIDTH 0 0
BBX 10 5 -10 13
BITMAP
1080
2940
5280
A500
4200
ENDCHAR
STARTCHAR 030C
ENCODING 780
SWIDTH 0 0
DWIDTH 0 0
BBX 6 5 -6 13
BITMAP
D4
08
D4
28
50
ENDCHAR
STARTCHAR 031B
ENCODING 795
SWIDTH 0 0
DWIDTH 0 0
BBX 6 4 -6 10
BITMAP
14
DC
28
D0
ENDCHAR
STARTCHAR 0323
ENCODING 803
SWIDTH 0 0
DWIDTH 0 0
BBX 3 2 -3 -3
BITMAP
A0
E0
ENDCHAR
STARTCHAR 0326
ENCODING 806
SWIDTH 0 0
DWIDTH 0 0
BBX 3 4 -3 -5
BITMAP
A0
E0
40
80
ENDCHAR
STARTCHAR 0327
ENCODING 807
SWIDTH 0 0
DWIDTH 0 0
BBX 5 3 -5 -3
BITMAP
10
A8
F0
ENDCHAR
STARTCHAR 0328
ENCODING 808
SWIDTH 0 0
DWIDTH 0 0
BBX 4 3 -3 -3
BITMAP
40
B0
70
ENDCHAR
STARTCHAR 0335
ENCODING 821
SWIDTH 0 0
DWIDTH 0 0
BBX 6 3 -7 5
BITMAP
94
68
94
ENDCHAR
STARTCHAR 0336
ENCODING 822
SWIDTH 0 0
DWIDTH 0 0
BBX 15 3 -15 8
BITMAP
AD6A
5294
AD6A
ENDCHAR
STARTCHAR 0337
ENCODING 823
SWIDTH 0 0
DWIDTH 0 0
BBX 6 3 -7 5
BITMAP
94
68
94
ENDCHAR
STARTCHAR 0338
ENCODING 824
SWIDTH 0 0
DWIDTH 0 0
BBX 6 13 -6 0
BITMAP
14
08
14
28
10
78
20
50
20
40
E0
00
C0
ENDCHAR
STARTCHAR 0401
ENCODING 1025
SWIDTH 660 0
DWIDTH 11 0
BBX 9 16 1 0
BITMAP
2500
1200
2500
0500
1A80
2500
5000
A000
E500
5A00
A500
4000
A000
7500
1A80
0500
ENDCHAR
STARTCHAR 0410
ENCODING 1040
SWIDTH 660 0
DWIDTH 11 0
BBX 9 13 1 0
BITMAP
0400
1A00
2500
5280
A100
E180
4080
A500
5A80
A500
E180
4080
A100
ENDCHAR
STARTCHAR 0411
ENCODING 1041
SWIDTH 660 0
DWIDTH 11 0
BBX 9 13 1 0
BITMAP
A500
5A80
A500
4000
A000
E500
5A80
A500
4080
A100
E580
5A80
2500
ENDCHAR
STARTCHAR 0412
ENCODING 1042
SWIDTH 660 0
DWIDTH 11 0
BBX 9 13 1 0
BITMAP
A500
5A80
A500
4080
A100
E780
5A80
A500
4080
A100
E580
5A80
A500
ENDCHAR
STARTCHAR 0413
ENCODING 1043
SWIDTH 660 0
DWIDTH 11 0
BBX 9 13 1 0
BITMAP
2500
5A80
A500
4000
A000
E000
4000
A000
4000
A000
E000
4000
A000
ENDCHAR
STARTCHAR 0414
ENCODING 1044
SWIDTH 780 0
DWIDTH 13 0
BBX 13 15 0 -2
BITMAP
0D60
1280
2D60
1000
2860
3860
1000
2860
1000
2860
3D60
5290
AD68
4010
A028
ENDCHAR
STARTCHAR 0415
ENCODING 1045
SWIDTH 660 0
DWIDTH 11 0
BBX 9 13 1 0
BITMAP
0500
1A80
2500
5000
A000
E500
5A00
A500
4000
A000
7500
1A80
0500
ENDCHAR
STARTCHAR 0416
ENCODING 1046
SWIDTH 1080 0
DWIDTH 18 0
BBX 16 13 1 0
BITMAP
A101
4082
A101
5086
2108
1DBC
0AD0
0528
1894
2108
F187
4082
A101
ENDCHAR
STARTCHAR 0417
ENCODING 1047
SWIDTH 780 0
DWIDTH 13 0
BBX 11 13 1 0
BITMAP
0500
1A80
2500
50C0
A020
05C0
0A80
0500
00C0
A020
75C0
1A80
0500
ENDCHAR
STARTCHAR 0418
ENCODING 1048
SWIDTH 780 0
DWIDTH 13 0
BBX 11 13 1 0
BITMAP
A020
4040
A020
4040
A020
E1E0
42C0
A520
4A40
A420
F860
5040
A020
ENDCHAR
STARTCHAR 0419
ENCODING 1049
SWIDTH 780 0
DWIDTH 13 0
BBX 11 18 1 0
BITMAP
2100
1080
2500
1A80
0500
A020
4040
A020
4040
A020
E1E0
42C0
A520
4A40
A420
F860
5040
A020
ENDCHAR
STARTCHAR 041A
ENCODING 1050
SWIDTH 660 0
DWIDTH 11 0
BBX 9 13 1 0
BITMAP
A100
4080
A100
4280
A500
EE00
5800
A400
4A00
A500
E380
4080
A100
ENDCHAR
STARTCHAR 041B
ENCODING 1051
SWIDTH 780 0
DWIDTH 13 0
BBX 11 13 1 0
BITMAP
0500
1AC0
2520
1040
2020
3060
1040
2020
1040
2020
B060
5040
A020
ENDCHAR
STARTCHAR 041C
ENCODING 1052
SWIDTH 960 0
DWIDTH 16 0
BBX 14 13 1 0
BITMAP
A008
5014
A028
5854
A428
EFCC
4284
A108
4004
A008
E00C
4004
A008
ENDCHAR
STARTCHAR 041D
ENCODING 1053
SWIDTH 780 0
DWIDTH 13 0
BBX 11 13 1 0
BITMAP
A020
4040
A020
4040
A020
E560
5AC0
A520
4040
A020
E060
4040
A020
ENDCHAR
STARTCHAR 041E
ENCODING 1054
SWIDTH 780 0
DWIDTH 13 0
BBX 11 13 1 0
BITMAP
0500
1A80
2500
50C0
A020
E060
4040
A020
4040
A020
75C0
1A80
0500
ENDCHAR
STARTCHAR 041F
ENCODING 1055
SWIDTH 780 0
DWIDTH 13 0
BBX 11 13 1 0
BITMAP
2500
5AC0
A520
4040
A020
E060
4040
A020
4040
A020
E060
4040
A020
ENDCHAR
STARTCHAR 0420
ENCODING 1056
SWIDTH 660 0
DWIDTH 11 0
BBX 9 13 1 0
BITMAP
A400
5A00
A500
4280
A100
E180
4080
A100
4280
A500
FE00
4000
A000
ENDCHAR
STARTCHAR 0421
ENCODING 1057
SWIDTH 780 0
DWIDTH 13 0
BBX 11 13 1 0
BITMAP
0500
1A80
2500
50C0
A020
E060
4000
A000
4000
A020
75C0
1A80
0500
ENDCHAR
STARTCHAR 0422
ENCODING 1058
SWIDTH 660 0
DWIDTH 11 0
BBX 9 13 1 0
BITMAP
A500
5A80
A500
0800
0400
0C00
0800
0400
0800
0400
0C00
0800
0400
ENDCHAR
STARTCHAR 0423
ENCODING 1059
SWIDTH 660 0
DWIDTH 11 0
BBX 9 13 1 0
BITMAP
A100
4080
A100
4080
A100
7580
1A80
0500
0080
0100
A580
5A80
A500
ENDCHAR
STARTCHAR 0424
ENCODING 1060
SWIDTH 900 0
DWIDTH 15 0
BBX 13 16 1 -2
BITMAP
0500
0700
1AC0
2520
5250
A528
E738
4210
A528
4210
A528
7770
1AC0
0500
0200
0500
ENDCHAR
STARTCHAR 0425
ENCODING 1061
SWIDTH 780 0
DWIDTH 13 0
BBX 11 13 1 0
BITMAP
A020
4040
A020
4040
A020
75C0
1A80
2500
50C0
A020
E060
4040
A020
ENDCHAR
STARTCHAR 0426
ENCODING 1062
SWIDTH 840 0
DWIDTH 14 0
BBX 13 15 1 -2
BITMAP
A020
4040
A020
4040
A020
E060
4040
A020
4040
A020
E560
5AD0
2528
0010
0028
ENDCHAR
STARTCHAR 0427
ENCODING 1063
SWIDTH 660 0
DWIDTH 11 0
BBX 9 13 1 0
BITMAP
A100
4080
A100
4080
A100
7580
1A80
0500
0080
0100
0180
0080
0100
ENDCHAR
STARTCHAR 0428
ENCODING 1064
SWIDTH 1080 0
DWIDTH 18 0
BBX 16 13 1 0
BITMAP
A101
4082
A101
4082
A101
E183
4082
A101
4082
A101
E5AB
5AD6
2528
ENDCHAR
STARTCHAR 0429
ENCODING 1065
SWIDTH 1140 0
DWIDTH 19 0
BBX 18 15 1 -2
BITMAP
A10100
408200
A10100
408200
A10100
E18300
408200
A10100
408200
A10100
E5AB00
5AD680
252940
000080
000140
ENDCHAR
STARTCHAR 042A
ENCODING 1066
SWIDTH 780 0
DWIDTH 13 0
BBX 11 13 1 0
BITMAP
A000
5000
A000
1000
2000
3500
1AC0
2520
1040
2020
3560
1AC0
0500
ENDCHAR
STARTCHAR 042B
ENCODING 1067
SWIDTH 900 0
DWIDTH 15 0
BBX 14 13 1 0
BITMAP
A014
4008
A014
4008
A014
E51C
5A88
A514
4088
A114
E59C
5A88
2514
ENDCHAR
STARTCHAR 042C
ENCODING 1068
SWIDTH 660 0
DWIDTH 11 0
BBX 9 13 1 0
BITMAP
A000
4000
A000
4000
A000
E500
5A80
A500
4080
A100
E580
5A80
2500
ENDCHAR
STARTCHAR 042D
ENCODING 1069
SWIDTH 780 0
DWIDTH 13 0
BBX 11 13 1 0
BITMAP
0500
1A80
2500
50C0
A020
0560
0AC0
0520
0040
A020
75C0
1A80
0500
ENDCHAR
STARTCHAR 042E
ENCODING 1070
SWIDTH 1080 0
DWIDTH 18 0
BBX 16 13 1 0
BITMAP
A028
40D4
A128
4286
A501
E703
5A02
A501
4202
A501
E3AE
40D4
A028
ENDCHAR
STARTCHAR 042F
ENCODING 1071
SWIDTH 660 0
DWIDTH 11 0
BBX 9 13 1 0
BITMAP
0500
1A80
2500
5080
A100
E180
4080
A100
5080
2500
3F80
5080
A100
ENDCHAR
STARTCHAR 0430
ENCODING 1072
SWIDTH 660 0
DWIDTH 11 0
BBX 9 13 1 0
BITMAP
2500
5A80
A500
4080
A100
E180
4080
A500
5A80
A500
E180
4080
A100
ENDCHAR
STARTCHAR 0431
ENCODING 1073
SWIDTH 660 0
DWIDTH 11 0
BBX 9 13 1 0
BITMAP
A500
5A80
A500
4000
A000
E500
5A80
A500
4080
A100
E580
5A80
2500
ENDCHAR
STARTCHAR 0432
ENCODING 1074
SWIDTH 660 0
DWIDTH 11 0
BBX 9 13 1 0
BITMAP
A500
5A80
A500
4080
A100
E780
5A00
A500
4280
A100
E580
5A80
A500
ENDCHAR
STARTCHAR 0433
ENCODING 1075
SWIDTH 600 0
DWIDTH 10 0
BBX 8 13 1 0
BITMAP
25
5A
A5
40
A0
E0
40
A0
40
A0
E0
40
A0
ENDCHAR
STARTCHAR 0434
ENCODING 1076
SWIDTH 780 0
DWIDTH 13 0
BBX 13 15 0 -2
BITMAP
0D60
1280
2D60
1000
2860
3860
1000
2860
1000
2860
3D60
5290
AD68
4010
A028
ENDCHAR
STARTCHAR 0435
ENCODING 1077
SWIDTH 660 0
DWIDTH 11 0
BBX 9 13 1 0
BITMAP
2500
5A80
A500
4000
A000
E500
5A00
A500
4000
A000
E500
5A80
2500
ENDCHAR
STARTCHAR 0436
ENCODING 1078
SWIDTH 1080 0
DWIDTH 18 0
BBX 16 13 1 0
BITMAP
A101
4082
A101
4082
A101
75AE
1AD4
2528
5086
A101
E183
4082
A101
ENDCHAR
STARTCHAR 0437
ENCODING 1079
SWIDTH 660 0
DWIDTH 11 0
BBX 9 13 1 0
BITMAP
2500
5A80
A500
4080
A100
0780
0A00
0500
0280
A100
E580
5A80
2500
ENDCHAR
STARTCHAR 0438
ENCODING 1080
SWIDTH 660 0
DWIDTH 11 0
BBX 9 13 1 0
BITMAP
A100
4080
A100
4080
A100
E180
4280
A500
4A80
A500
F980
5080
A100
ENDCHAR
STARTCHAR 0439
ENCODING 1081
SWIDTH 660 0
DWIDTH 11 0
BBX 9 18 1 0
BITMAP
5280
2100
5A80
2500
1A00
A100
4080
A100
4080
A100
E180
4280
A500
4A80
A500
F980
5080
A100
ENDCHAR
STARTCHAR 043A
ENCODING 1082
SWIDTH 660 0
DWIDTH 11 0
BBX 9 13 1 0
BITMAP
A100
4080
A100
4080
A100
E780
5A00
A500
4280
A100
E180
4080
A100
ENDCHAR
STARTCHAR 043B
ENCODING 1083
SWIDTH 780 0
DWIDTH 13 0
BBX 11 13 1 0
BITMAP
0500
1AC0
2520
1040
2020
3060
1040
2020
1040
2020
B060
5040
A020
ENDCHAR
STARTCHAR 043C
ENCODING 1084
SWIDTH 900 0
DWIDTH 15 0
BBX 13 13 1 0
BITMAP
A028
5050
A028
58D0
A528
EFB8
4210
A028
4010
A028
E038
4010
A028
ENDCHAR
STARTCHAR 043D
ENCODING 1085
SWIDTH 660 0
DWIDTH 11 0
BBX 9 13 1 0
BITMAP
A100
4080
A100
4080
A100
E580
5A80
A500
4080
A100
E180
4080
A100
ENDCHAR
STARTCHAR 043E
ENCODING 1086
SWIDTH 660 0
DWIDTH 11 0
BBX 9 13 1 0
BITMAP
2500
5A80
A500
4080
A100
E180
4080
A100
4080
A100
E580
5A80
2500
ENDCHAR
STARTCHAR 043F
ENCODING 1087
SWIDTH 660 0
DWIDTH 11 0
BBX 9 13 1 0
BITMAP
2500
5A80
A500
4080
A100
E180
4080
A100
4080
A100
E180
4080
A100
ENDCHAR
STARTCHAR 0440
ENCODING 1088
SWIDTH 660 0
DWIDTH 11 0
BBX 9 13 1 0
BITMAP
A500
5A80
A500
4080
A100
E180
4080
A500
5A80
A500
E000
4000
A000
ENDCHAR
STARTCHAR 0441
ENCODING 1089
SWIDTH 660 0
DWIDTH 11 0
BBX 9 13 1 0
BITMAP
2500
5A80
A500
4080
A100
E180
4000
A000
4000
A100
E580
5A80
2500
ENDCHAR
STARTCHAR 0442
ENCODING 1090
SWIDTH 660 0
DWIDTH 11 0
BBX 9 13 1 0
BITMAP
A500
5A80
A500
0800
0400
0C00
0800
0400
0800
0400
0C00
0800
0400
ENDCHAR
STARTCHAR 0443
ENCODING 1091
SWIDTH 660 0
DWIDTH 11 0
BBX 9 13 1 0
BITMAP
A100
4080
A100
4080
A100
E580
5A80
2500
0080
0100
A580
5A80
A500
ENDCHAR
STARTCHAR 0444
ENCODING 1092
SWIDTH 900 0
DWIDTH 15 0
BBX 13 16 1 -2
BITMAP
0500
2720
5AD0
A528
4210
A528
E738
4210
A528
4210
A528
E738
5AD0
2520
0200
0500
ENDCHAR
STARTCHAR 0445
ENCODING 1093
SWIDTH 660 0
DWIDTH 11 0
BBX 9 13 1 0
BITMAP
A100
4080
A100
4080
A100
7780
1A00
2500
5280
A100
E180
4080
A100
ENDCHAR
STARTCHAR 0446
ENCODING 1094
SWIDTH 720 0
DWIDTH 12 0
BBX 11 15 1 -2
BITMAP
A100
4080
A100
4080
A100
E180
4080
A100
4080
A100
E580
5AC0
2520
0040
0020
ENDCHAR
STARTCHAR 0447
ENCODING 1095
SWIDTH 660 0
DWIDTH 11 0
BBX 9 13 1 0
BITMAP
A100
4080
A100
4080
A100
E580
5A80
2500
0080
0100
0180
0080
0100
ENDCHAR
STARTCHAR 0448
ENCODING 1096
SWIDTH 900 0
DWIDTH 15 0
BBX 13 13 1 0
BITMAP
A528
4210
A528
4210
A528
E738
4210
A528
4210
A528
E738
5AD0
2520
ENDCHAR
STARTCHAR 0449
ENCODING 1097
SWIDTH 900 0
DWIDTH 15 0
BBX 14 15 1 -2
BITMAP
A528
4210
A528
4210
A528
E738
4210
A528
4210
A528
E738
5AD4
2528
0004
0008
ENDCHAR
STARTCHAR 044A
ENCODING 1098
SWIDTH 780 0
DWIDTH 13 0
BBX 11 13 1 0
BITMAP
A000
5000
A000
1000
2000
3500
1AC0
2520
1040
2020
3560
1AC0
0500
ENDCHAR
STARTCHAR 044B
ENCODING 1099
SWIDTH 900 0
DWIDTH 15 0
BBX 14 13 1 0
BITMAP
A014
4008
A014
4008
A014
E51C
5A88
A514
4088
A114
E59C
5A88
2514
ENDCHAR
STARTCHAR 044C
ENCODING 1100
SWIDTH 660 0
DWIDTH 11 0
BBX 9 13 1 0
BITMAP
A000
4000
A000
4000
A000
E500
5A80
A500
4080
A100
E580
5A80
2500
ENDCHAR
STARTCHAR 044D
ENCODING 1101
SWIDTH 780 0
DWIDTH 13 0
BBX 11 13 1 0
BITMAP
2500
5AC0
A520
4040
A020
0560
0AC0
0520
0040
A020
E560
5AC0
2500
ENDCHAR
STARTCHAR 044E
ENCODING 1102
SWIDTH 960 0
DWIDTH 16 0
BBX 14 13 1 0
BITMAP
A128
42D4
A528
4204
A508
E70C
5A04
A508
4204
A508
E72C
42D4
A128
ENDCHAR
STARTCHAR 044F
ENCODING 1103
SWIDTH 660 0
DWIDTH 11 0
BBX 9 13 1 0
BITMAP
2500
5A80
A500
4080
A100
E180
4080
A500
5A80
2500
F180
4080
A100
ENDCHAR
STARTCHAR 0451
ENCODING 1105
SWIDTH 660 0
DWIDTH 11 0
BBX 9 16 1 0
BITMAP
2500
1200
2500
2500
5A80
A500
4000
A000
E500
5A00
A500
4000
A000
E500
5A80
2500
ENDCHAR
STARTCHAR 1E80
ENCODING 7808
SWIDTH 1080 0
DWIDTH 18 0
BBX 16 18 1 0
BITMAP
0400
0A00
0500
0280
0100
A101
4082
A101
4082
A101
E183
4082
A101
4082
A101
77EE
1A54
0428
ENDCHAR
STARTCHAR 1E81
ENCODING 7809
SWIDTH 1080 0
DWIDTH 18 0
BBX 16 18 1 0
BITMAP
0400
0A00
0500
0280
0100
A101
4082
A101
4082
A101
E183
4082
A101
4082
A101
E7EB
5A56
2428
ENDCHAR
STARTCHAR 1E82
ENCODING 7810
SWIDTH 1080 0
DWIDTH 18 0
BBX 16 18 1 0
BITMAP
0050
0020
00C0
0100
0280
A101
4082
A101
4082
A101
E183
4082
A101
4082
A101
77EE
1A54
0428
ENDCHAR
STARTCHAR 1E83
ENCODING 7811
SWIDTH 1080 0
DWIDTH 18 0
BBX 16 18 1 0
BITMAP
0050
0020
00C0
0100
0280
A101
4082
A101
4082
A101
E183
4082
A101
4082
A101
E7EB
5A56
2428
ENDCHAR
STARTCHAR 1E84
ENCODING 7812
SWIDTH 1080 0
DWIDTH 18 0
BBX 16 16 1 0
BITMAP
0520
0240
0520
A101
4082
A101
4082
A101
E183
4082
A101
4082
A101
77EE
1A54
0428
ENDCHAR
STARTCHAR 1E85
ENCODING 7813
SWIDTH 1080 0
DWIDTH 18 0
BBX 16 16 1 0
BITMAP
0520
0240
0520
A101
4082
A101
4082
A101
E183
4082
A101
4082
A101
E7EB
5A56
2428
ENDCHAR
STARTCHAR 1E9E
ENCODING 7838
SWIDTH 660 0
DWIDTH 11 0
BBX 9 13 1 0
BITMAP
2500
5A80
A500
4080
A100
E780
4A80
A500
4080
A100
E580
4A80
A500
ENDCHAR
STARTCHAR 1EA0
ENCODING 7840
SWIDTH 660 0
DWIDTH 11 0
BBX 9 16 1 -3
BITMAP
0400
1A00
2500
5280
A100
E180
4080
A500
5A80
A500
E180
4080
A100
0000
0400
0C00
ENDCHAR
STARTCHAR 1EA1
ENCODING 7841
SWIDTH 660 0
DWIDTH 11 0
BBX 9 16 1 -3
BITMAP
2500
5A80
A500
4080
A100
E180
4080
A500
5A80
A500
E180
4080
A100
0000
0400
0C00
ENDCHAR
STARTCHAR 1EA2
ENCODING 7842
SWIDTH 660 0
DWIDTH 11 0
BBX 9 19 1 0
BITMAP
2400
3F00
0200
0500
0A00
0400
0400
1A00
2500
5280
A100
E180
4080
A500
5A80
A500
E180
4080
A100
ENDCHAR
STARTCHAR 1EA3
ENCODING 7843
SWIDTH 660 0
DWIDTH 11 0
BBX 9 19 1 0
BITMAP
2400
3F00
0200
0500
0A00
0400
2500
5A80
A500
4080
A100
E180
4080
A500
5A80
A500
E180
4080
A100
ENDCHAR
STARTCHAR 1EA4
ENCODING 7844
SWIDTH 660 0
DWIDTH 11 0
BBX 9 23 1 0
BITMAP
0280
0500
0A00
0400
1800
0400
1A00
2500
1200
2500
0400
1A00
2500
5280
A100
E180
4080
A500
5A80
A500
E180
4080
A100
ENDCHAR
STARTCHAR 1EA5
ENCODING 7845
SWIDTH 660 0
DWIDTH 11 0
BBX 9 23 1 0
BITMAP
0280
0500
0A00
0400
1800
0400
1A00
2500
1200
2500
2500
5A80
A500
4080
A100
E180
4080
A500
5A80
A500
E180
4080
A100
ENDCHAR
STARTCHAR 1EA6
ENCODING 7846
SWIDTH 660 0
DWIDTH 11 0
BBX 9 23 1 0
BITMAP
A000
5000
2000
1800
0400
0400
1A00
2500
1200
2500
0400
1A00
2500
5280
A100
E180
4080
A500
5A80
A500
E180
4080
A100
ENDCHAR
STARTCHAR 1EA7
ENCODING 7847
SWIDTH 660 0
DWIDTH 11 0
BBX 9 23 1 0
BITMAP
A000
5000
2000
1800
0400
0400
1A00
2500
1200
2500
2500
5A80
A500
4080
A100
E180
4080
A500
5A80
A500
E180
4080
A100
ENDCHAR
STARTCHAR 1EA8
ENCODING 7848
SWIDTH 660 0
DWIDTH 11 0
BBX 9 24 1 0
BITMAP
2400
3F00
0200
0500
0A00
0400
0400
1A00
2500
1200
2500
0400
1A00
2500
5280
A100
E180
4080
A500
5A80
A500
E180
4080
A100
ENDCHAR
STARTCHAR 1EA9
ENCODING 7849
SWIDTH 660 0
DWIDTH 11 0
BBX 9 24 1 0
BITMAP
2400
3F00
0200
0500
0A00
0400
0400
1A00
2500
1200
2500
2500
5A80
A500
4080
A100
E180
4080
A500
5A80
A500
E180
4080
A100
ENDCHAR
STARTCHAR 1EAA
ENCODING 7850
SWIDTH 660 0
DWIDTH 11 0
BBX 9 23 1 0
BITMAP
2100
5880
A500
4A80
A500
0400
1A00
2500
1200
2500
0400
1A00
2500
5280
A100
E180
4080
A500
5A80
A500
E180
4080
A100
ENDCHAR
STARTCHAR 1EAB
ENCODING 7851
SWIDTH 660 0
DWIDTH 11 0
BBX 9 23 1 0
BITMAP
2100
5880
A500
4A80
A500
0400
1A00
2500
1200
2500
2500
5A80
A500
4080
A100
E180
4080
A500
5A80
A500
E180
4080
A100
ENDCHAR
STARTCHAR 1EAC
ENCODING 7852
SWIDTH 660 0
DWIDTH 11 0
BBX 9 21 1 -3
BITMAP
0400
1A00
2500
1200
2500
0400
1A00
2500
5280
A100
E180
4080
A500
5A80
A500
E180
4080
A100
0000
0400
0C00
ENDCHAR
STARTCHAR 1EAD
ENCODING 7853
SWIDTH 660 0
DWIDTH 11 0
BBX 9 21 1 -3
BITMAP
0400
1A00
2500
1200
2500
2500
5A80
A500
4080
A100
E180
4080
A500
5A80
A500
E180
4080
A100
0000
0400
0C00
ENDCHAR
STARTCHAR 1EAE
ENCODING 7854
SWIDTH 660 0
DWIDTH 11 0
BBX 9 23 1 0
BITMAP
0280
0500
0A00
0400
1800
5280
2100
5A80
2500
1A00
0400
1A00
2500
5280
A100
E180
4080
A500
5A80
A500
E180
4080
A100
ENDCHAR
STARTCHAR 1EAF
ENCODING 7855
SWIDTH 660 0
DWIDTH 11 0
BBX 9 23 1 0
BITMAP
0280
0500
0A00
0400
1800
5280
2100
5A80
2500
1A00
2500
5A80
A500
4080
A100
E180
4080
A500
5A80
A500
E180
4080
A100
ENDCHAR
STARTCHAR 1EB0
ENCODING 7856
SWIDTH 660 0
DWIDTH 11 0
BBX 9 23 1 0
BITMAP
A000
4000
3000
0800
1400
5280
2100
5A80
2500
1A00
0400
1A00
2500
5280
A100
E180
4080
A500
5A80
A500
E180
4080
A100
ENDCHAR
STARTCHAR 1EB1
ENCODING 7857
SWIDTH 660 0
DWIDTH 11 0
BBX 9 23 1 0
BITMAP
A000
4000
3000
0800
1400
5280
2100
5A80
2500
1A00
2500
5A80
A500
4080
A100
E180
4080
A500
5A80
A500
E180
4080
A100
ENDCHAR
STARTCHAR 1EB2
ENCODING 7858
SWIDTH 660 0
DWIDTH 11 0
BBX 9 24 1 0
BITMAP
2400
3F00
0200
0500
0A00
0400
5280
2100
5A80
2500
1A00
0400
1A00
2500
5280
A100
E180
4080
A500
5A80
A500
E180
4080
A100
ENDCHAR
STARTCHAR 1EB3
ENCODING 7859
SWIDTH 660 0
DWIDTH 11 0
BBX 9 24 1 0
BITMAP
2400
3F00
0200
0500
0A00
0400
5280
2100
5A80
2500
1A00
2500
5A80
A500
4080
A100
E180
4080
A500
5A80
A500
E180
4080
A100
ENDCHAR
STARTCHAR 1EB4
ENCODING 7860
SWIDTH 660 0
DWIDTH 11 0
BBX 9 23 1 0
BITMAP
2100
5880
A500
4A80
A500
5280
2100
5A80
2500
1A00
0400
1A00
2500
5280
A100
E180
4080
A500
5A80
A500
E180
4080
A100
ENDCHAR
STARTCHAR 1EB5
ENCODING 7861
SWIDTH 660 0
DWIDTH 11 0
BBX 9 23 1 0
BITMAP
2100
5880
A500
4A80
A500
5280
2100
5A80
2500
1A00
2500
5A80
A500
4080
A100
E180
4080
A500
5A80
A500
E180
4080
A100
ENDCHAR
STARTCHAR 1EB6
ENCODING 7862
SWIDTH 660 0
DWIDTH 11 0
BBX 9 21 1 -3
BITMAP
5280
2100
5A80
2500
1A00
0400
1A00
2500
5280
A100
E180
4080
A500
5A80
A500
E180
4080
A100
0000
0400
0C00
ENDCHAR
STARTCHAR 1EB7
ENCODING 7863
SWIDTH 660 0
DWIDTH 11 0
BBX 9 21 1 -3
BITMAP
5280
2100
5A80
2500
1A00
2500
5A80
A500
4080
A100
E180
4080
A500
5A80
A500
E180
4080
A100
0000
0400
0C00
ENDCHAR
STARTCHAR 1EB8
ENCODING 7864
SWIDTH 660 0
DWIDTH 11 0
BBX 9 16 1 -3
BITMAP
0500
1A80
2500
5000
A000
E500
5A00
A500
4000
A000
7500
1A80
0500
0000
0400
0C00
ENDCHAR
STARTCHAR 1EB9
ENCODING 7865
SWIDTH 660 0
DWIDTH 11 0
BBX 9 16 1 -3
BITMAP
2500
5A80
A500
4000
A000
E500
5A00
A500
4000
A000
E500
5A80
2500
0000
0400
0C00
ENDCHAR
STARTCHAR 1EBA
ENCODING 7866
SWIDTH 660 0
DWIDTH 11 0
BBX 9 19 1 0
BITMAP
2400
3F00
0200
0500
0A00
0400
0500
1A80
2500
5000
A000
E500
5A00
A500
4000
A000
7500
1A80
0500
ENDCHAR
STARTCHAR 1EBB
ENCODING 7867
SWIDTH 660 0
DWIDTH 11 0
BBX 9 19 1 0
BITMAP
2400
3F00
0200
0500
0A00
0400
2500
5A80
A500
4000
A000
E500
5A00
A500
4000
A000
E500
5A80
2500
ENDCHAR
STARTCHAR 1EBC
ENCODING 7868
SWIDTH 660 0
DWIDTH 11 0
BBX 9 18 1 0
BITMAP
2100
5880
A500
4A80
A500
0500
1A80
2500
5000
A000
E500
5A00
A500
4000
A000
7500
1A80
0500
ENDCHAR
STARTCHAR 1EBD
ENCODING 7869
SWIDTH 660 0
DWIDTH 11 0
BBX 9 18 1 0
BITMAP
2100
5880
A500
4A80
A500
2500
5A80
A500
4000
A000
E500
5A00
A500
4000
A000
E500
5A80
2500
ENDCHAR
STARTCHAR 1EBE
ENCODING 7870
SWIDTH 660 0
DWIDTH 11 0
BBX 9 23 1 0
BITMAP
0280
0500
0A00
0400
1800
0400
1A00
2500
1200
2500
0500
1A80
2500
5000
A000
E500
5A00
A500
4000
A000
7500
1A80
0500
ENDCHAR
STARTCHAR 1EBF
ENCODING 7871
SWIDTH 660 0
DWIDTH 11 0
BBX 9 23 1 0
BITMAP
0280
0500
0A00
0400
1800
0400
1A00
2500
1200
2500
2500
5A80
A500
4000
A000
E500
5A00
A500
4000
A000
E500
5A80
2500
ENDCHAR
STARTCHAR 1EC0
ENCODING 7872
SWIDTH 660 0
DWIDTH 11 0
BBX 9 23 1 0
BITMAP
A000
5000
2000
1800
0400
0400
1A00
2500
1200
2500
0500
1A80
2500
5000
A000
E500
5A00
A500
4000
A000
7500
1A80
0500
ENDCHAR
STARTCHAR 1EC1
ENCODING 7873
SWIDTH 660 0
DWIDTH 11 0
BBX 9 23 1 0
BITMAP
A000
5000
2000
1800
0400
0400
1A00
2500
1200
2500
2500
5A80
A500
4000
A000
E500
5A00
A500
4000
A000
E500
5A80
2500
ENDCHAR
STARTCHAR 1EC2
ENCODING 7874
SWIDTH 660 0
DWIDTH 11 0
BBX 9 24 1 0
BITMAP
2400
3F00
0200
0500
0A00
0400
0400
1A00
2500
1200
2500
0500
1A80
2500
5000
A000
E500
5A00
A500
4000
A000
7500
1A80
0500
ENDCHAR
STARTCHAR 1EC3
ENCODING 7875
SWIDTH 660 0
DWIDTH 11 0
BBX 9 24 1 0
BITMAP
2400
3F00
0200
0500
0A00
0400
0400
1A00
2500
1200
2500
2500
5A80
A500
4000
A000
E500
5A00
A500
4000
A000
E500
5A80
2500
ENDCHAR
STARTCHAR 1EC4
ENCODING 7876
SWIDTH 660 0
DWIDTH 11 0
BBX 9 23 1 0
BITMAP
2100
5880
A500
4A80
A500
0400
1A00
2500
1200
2500
0500
1A80
2500
5000
A000
E500
5A00
A500
4000
A000
7500
1A80
0500
ENDCHAR
STARTCHAR 1EC5
ENCODING 7877
SWIDTH 660 0
DWIDTH 11 0
BBX 9 23 1 0
BITMAP
2100
5880
A500
4A80
A500
0400
1A00
2500
1200
2500
2500
5A80
A500
4000
A000
E500
5A00
A500
4000
A000
E500
5A80
2500
ENDCHAR
STARTCHAR 1EC6
ENCODING 7878
SWIDTH 660 0
DWIDTH 11 0
BBX 9 21 1 -3
BITMAP
0400
1A00
2500
1200
2500
0500
1A80
2500
5000
A000
E500
5A00
A500
4000
A000
7500
1A80
0500
0000
0400
0C00
ENDCHAR
STARTCHAR 1EC7
ENCODING 7879
SWIDTH 660 0
DWIDTH 11 0
BBX 9 21 1 -3
BITMAP
0400
1A00
2500
1200
2500
2500
5A80
A500
4000
A000
E500
5A00
A500
4000
A000
E500
5A80
2500
0000
0400
0C00
ENDCHAR
STARTCHAR 1EC8
ENCODING 7880
SWIDTH 480 0
DWIDTH 8 0
BBX 6 19 1 0
BITMAP
A0
FC
08
24
18
20
A4
58
A4
10
20
30
10
20
10
20
B4
58
A4
ENDCHAR
STARTCHAR 1EC9
ENCODING 7881
SWIDTH 300 0
DWIDTH 5 0
BBX 5 19 0 0
BITMAP
50
F8
08
50
28
50
50
20
50
20
50
70
20
50
20
50
70
20
50
ENDCHAR
STARTCHAR 1ECA
ENCODING 7882
SWIDTH 480 0
DWIDTH 8 0
BBX 6 16 1 -3
BITMAP
A4
58
A4
10
20
30
10
20
10
20
B4
58
A4
00
20
30
ENDCHAR
STARTCHAR 1ECB
ENCODING 7883
SWIDTH 300 0
DWIDTH 5 0
BBX 3 16 1 -3
BITMAP
A0
40
A0
40
A0
E0
40
A0
40
A0
E0
40
A0
00
A0
E0
ENDCHAR
STARTCHAR 1ECC
ENCODING 7884
SWIDTH 780 0
DWIDTH 13 0
BBX 11 16 1 -3
BITMAP
0500
1A80
2500
50C0
A020
E060
4040
A020
4040
A020
75C0
1A80
0500
0000
0A00
0E00
ENDCHAR
STARTCHAR 1ECD
ENCODING 7885
SWIDTH 660 0
DWIDTH 11 0
BBX 9 16 1 -3
BITMAP
2500
5A80
A500
4080
A100
E180
4080
A100
4080
A100
E580
5A80
2500
0000
0400
0C00
ENDCHAR
STARTCHAR 1ECE
ENCODING 7886
SWIDTH 780 0
DWIDTH 13 0
BBX 11 19 1 0
BITMAP
1A00
1F80
0100
0A80
0500
0A00
0500
1A80
2500
50C0
A020
E060
4040
A020
4040
A020
75C0
1A80
0500
ENDCHAR
STARTCHAR 1ECF
ENCODING 7887
SWIDTH 660 0
DWIDTH 11 0
BBX 9 19 1 0
BITMAP
2400
3F00
0200
0500
0A00
0400
2500
5A80
A500
4080
A100
E180
4080
A100
4080
A100
E580
5A80
2500
ENDCHAR
STARTCHAR 1ED0
ENCODING 7888
SWIDTH 780 0
DWIDTH 13 0
BBX 11 23 1 0
BITMAP
0100
0280
0500
0A00
0400
0A00
0500
1A80
0100
1A80
0500
1A80
2500
50C0
A020
E060
4040
A020
4040
A020
75C0
1A80
0500
ENDCHAR
STARTCHAR 1ED1
ENCODING 7889
SWIDTH 660 0
DWIDTH 11 0
BBX 9 23 1 0
BITMAP
0280
0500
0A00
0400
1800
0400
1A00
2500
1200
2500
2500
5A80
A500
4080
A100
E180
4080
A100
4080
A100
E580
5A80
2500
ENDCHAR
STARTCHAR 1ED2
ENCODING 7890
SWIDTH 780 0
DWIDTH 13 0
BBX 11 23 1 0
BITMAP
5000
2000
1800
0400
0A00
0A00
0500
1A80
0100
1A80
0500
1A80
2500
50C0
A020
E060
4040
A020
4040
A020
75C0
1A80
0500
ENDCHAR
STARTCHAR 1ED3
ENCODING 7891
SWIDTH 660 0
DWIDTH 11 0
BBX 9 23 1 0
BITMAP
A000
5000
2000
1800
0400
0400
1A00
2500
1200
2500
2500
5A80
A500
4080
A100
E180
4080
A100
4080
A100
E580
5A80
2500
ENDCHAR
STARTCHAR 1ED4
ENCODING 7892
SWIDTH 780 0
DWIDTH 13 0
BBX 11 24 1 0
BITMAP
1A00
1F80
0100
0A80
0500
0A00
0A00
0500
1A80
0100
1A80
0500
1A80
2500
50C0
A020
E060
4040
A020
4040
A020
75C0
1A80
0500
ENDCHAR
STARTCHAR 1ED5
ENCODING 7893
SWIDTH 660 0
DWIDTH 11 0
BBX 9 24 1 0
BITMAP
2400
3F00
0200
0500
0A00
0400
0400
1A00
2500
1200
2500
2500
5A80
A500
4080
A100
E180
4080
A100
4080
A100
E580
5A80
2500
ENDCHAR
STARTCHAR 1ED6
ENCODING 7894
SWIDTH 780 0
DWIDTH 13 0
BBX 11 23 1 0
BITMAP
18C0
2400
5AC0
2500
5280
0A00
0500
1A80
0100
1A80
0500
1A80
2500
50C0
A020
E060
4040
A020
4040
A020
75C0
1A80
0500
ENDCHAR
STARTCHAR 1ED7
ENCODING 7895
SWIDTH 660 0
DWIDTH 11 0
BBX 9 23 1 0
BITMAP
2100
5880
A500
4A80
A500
0400
1A00
2500
1200
2500
2500
5A80
A500
4080
A100
E180
4080
A100
4080
A100
E580
5A80
2500
ENDCHAR
STARTCHAR 1ED8
ENCODING 7896
SWIDTH 780 0
DWIDTH 13 0
BBX 11 21 1 -3
BITMAP
0A00
0500
1A80
0100
1A80
0500
1A80
2500
50C0
A020
E060
4040
A020
4040
A020
75C0
1A80
0500
0000
0A00
0E00
ENDCHAR
STARTCHAR 1ED9
ENCODING 7897
SWIDTH 660 0
DWIDTH 11 0
BBX 9 21 1 -3
BITMAP
0400
1A00
2500
1200
2500
2500
5A80
A500
4080
A100
E180
4080
A100
4080
A100
E580
5A80
2500
0000
0400
0C00
ENDCHAR
STARTCHAR 1EDA
ENCODING 7898
SWIDTH 900 0
DWIDTH 15 0
BBX 14 18 1 0
BITMAP
0100
0280
0500
0A00
0408
252C
5AD4
A528
4040
A020
E060
4040
A020
4040
A020
E560
5AC0
2500
ENDCHAR
STARTCHAR 1EDB
ENCODING 7899
SWIDTH 840 0
DWIDTH 14 0
BBX 13 18 1 0
BITMAP
0280
0500
0A00
0400
1828
2538
5AD0
A520
4080
A100
E180
4080
A100
4080
A100
E580
5A80
2500
ENDCHAR
STARTCHAR 1EDC
ENCODING 7900
SWIDTH 900 0
DWIDTH 15 0
BBX 14 18 1 0
BITMAP
5000
2000
1800
0400
0A08
252C
5AD4
A528
4040
A020
E060
4040
A020
4040
A020
E560
5AC0
2500
ENDCHAR
STARTCHAR 1EDD
ENCODING 7901
SWIDTH 840 0
DWIDTH 14 0
BBX 13 18 1 0
BITMAP
A000
5000
2000
1800
0428
2538
5AD0
A520
4080
A100
E180
4080
A100
4080
A100
E580
5A80
2500
ENDCHAR
STARTCHAR 1EDE
ENCODING 7902
SWIDTH 900 0
DWIDTH 15 0
BBX 14 19 1 0
BITMAP
1A00
1F80
0100
0A80
0500
0A08
252C
5AD4
A528
4040
A020
E060
4040
A020
4040
A020
E560
5AC0
2500
ENDCHAR
STARTCHAR 1EDF
ENCODING 7903
SWIDTH 840 0
DWIDTH 14 0
BBX 13 19 1 0
BITMAP
2400
3F00
0200
0500
0A00
0428
2538
5AD0
A520
4080
A100
E180
4080
A100
4080
A100
E580
5A80
2500
ENDCHAR
STARTCHAR 1EE0
ENCODING 7904
SWIDTH 900 0
DWIDTH 15 0
BBX 14 18 1 0
BITMAP
18C0
2400
5AC0
2500
5288
252C
5AD4
A528
4040
A020
E060
4040
A020
4040
A020
E560
5AC0
2500
ENDCHAR
STARTCHAR 1EE1
ENCODING 7905
SWIDTH 840 0
DWIDTH 14 0
BBX 13 18 1 0
BITMAP
2100
5880
A500
4A80
A528
2538
5AD0
A520
4080
A100
E180
4080
A100
4080
A100
E580
5A80
2500
ENDCHAR
STARTCHAR 1EE2
ENCODING 7906
SWIDTH 900 0
DWIDTH 15 0
BBX 14 17 1 -3
BITMAP
0008
252C
5AD4
A528
4040
A020
E060
4040
A020
4040
A020
E560
5AC0
2500
0000
0A00
0E00
ENDCHAR
STARTCHAR 1EE3
ENCODING 7907
SWIDTH 840 0
DWIDTH 14 0
BBX 13 17 1 -3
BITMAP
0028
2538
5AD0
A520
4080
A100
E180
4080
A100
4080
A100
E580
5A80
2500
0000
0400
0C00
ENDCHAR
STARTCHAR 1EE4
ENCODING 7908
SWIDTH 780 0
DWIDTH 13 0
BBX 11 16 1 -3
BITMAP
A020
4040
A020
4040
A020
E060
4040
A020
4040
A020
75C0
1A80
0500
0000
0A00
0E00
ENDCHAR
STARTCHAR 1EE5
ENCODING 7909
SWIDTH 660 0
DWIDTH 11 0
BBX 9 16 1 -3
BITMAP
A100
4080
A100
4080
A100
E180
4080
A100
4080
A100
E580
5A80
2500
0000
0400
0C00
ENDCHAR
STARTCHAR 1EE6
ENCODING 7910
SWIDTH 780 0
DWIDTH 13 0
BBX 11 19 1 0
BITMAP
1A00
1F80
0100
0A80
0500
0A00
A020
4040
A020
4040
A020
E060
4040
A020
4040
A020
75C0
1A80
0500
ENDCHAR
STARTCHAR 1EE7
ENCODING 7911
SWIDTH 660 0
DWIDTH 11 0
BBX 9 19 1 0
BITMAP
2400
3F00
0200
0500
0A00
0400
A100
4080
A100
4080
A100
E180
4080
A100
4080
A100
E580
5A80
2500
ENDCHAR
STARTCHAR 1EE8
ENCODING 7912
SWIDTH 900 0
DWIDTH 15 0
BBX 14 18 1 0
BITMAP
0100
0280
0500
0A00
0408
A02C
4054
A028
4040
A020
E060
4040
A020
4040
A020
75C0
1A80
0500
ENDCHAR
STARTCHAR 1EE9
ENCODING 7913
SWIDTH 840 0
DWIDTH 14 0
BBX 13 18 1 0
BITMAP
0280
0500
0A00
0400
1828
A138
40D0
A120
4080
A100
E180
4080
A100
4080
A100
E580
5A80
2500
ENDCHAR
STARTCHAR 1EEA
ENCODING 7914
SWIDTH 900 0
DWIDTH 15 0
BBX 14 18 1 0
BITMAP
5000
2000
1800
0400
0A08
A02C
4054
A028
4040
A020
E060
4040
A020
4040
A020
75C0
1A80
0500
ENDCHAR
STARTCHAR 1EEB
ENCODING 7915
SWIDTH 840 0
DWIDTH 14 0
BBX 13 18 1 0
BITMAP
A000
5000
2000
1800
0428
A138
40D0
A120
4080
A100
E180
4080
A100
4080
A100
E580
5A80
2500
ENDCHAR
STARTCHAR 1EEC
ENCODING 7916
SWIDTH 900 0
DWIDTH 15 0
BBX 14 19 1 0
BITMAP
1A00
1F80
0100
0A80
0500
0A08
A02C
4054
A028
4040
A020
E060
4040
A020
4040
A020
75C0
1A80
0500
ENDCHAR
STARTCHAR 1EED
ENCODING 7917
SWIDTH 840 0
DWIDTH 14 0
BBX 13 19 1 0
BITMAP
2400
3F00
0200
0500
0A00
0428
A138
40D0
A120
4080
A100
E180
4080
A100
4080
A100
E580
5A80
2500
ENDCHAR
STARTCHAR 1EEE
ENCODING 7918
SWIDTH 900 0
DWIDTH 15 0
BBX 14 18 1 0
BITMAP
18C0
2400
5AC0
2500
5288
A02C
4054
A028
4040
A020
E060
4040
A020
4040
A020
75C0
1A80
0500
ENDCHAR
STARTCHAR 1EEF
ENCODING 7919
SWIDTH 840 0
DWIDTH 14 0
BBX 13 18 1 0
BITMAP
2100
5880
A500
4A80
A528
A138
40D0
A120
4080
A100
E180
4080
A100
4080
A100
E580
5A80
2500
ENDCHAR
STARTCHAR 1EF0
ENCODING 7920
SWIDTH 900 0
DWIDTH 15 0
BBX 14 17 1 -3
BITMAP
0008
A02C
4054
A028
4040
A020
E060
4040
A020
4040
A020
75C0
1A80
0500
0000
0A00
0E00
ENDCHAR
STARTCHAR 1EF1
ENCODING 7921
SWIDTH 840 0
DWIDTH 14 0
BBX 13 17 1 -3
BITMAP
0028
A138
40D0
A120
4080
A100
E180
4080
A100
4080
A100
E580
5A80
2500
0000
0400
0C00
ENDCHAR
STARTCHAR 1EF2
ENCODING 7922
SWIDTH 660 0
DWIDTH 11 0
BBX 9 18 1 0
BITMAP
A000
5000
2000
1800
0400
A100
4080
A100
4080
A100
E180
5280
2500
1A00
0400
0C00
0800
0400
ENDCHAR
STARTCHAR 1EF3
ENCODING 7923
SWIDTH 660 0
DWIDTH 11 0
BBX 9 18 1 0
BITMAP
A000
5000
2000
1800
0400
A100
4080
A100
4080
A100
E180
4080
A500
5A80
2500
0C00
0800
0400
ENDCHAR
STARTCHAR 1EF4
ENCODING 7924
SWIDTH 660 0
DWIDTH 11 0
BBX 9 16 1 -3
BITMAP
A100
4080
A100
4080
A100
E180
5280
2500
1A00
0400
0C00
0800
0400
0000
0400
0C00
ENDCHAR
STARTCHAR 1EF5
ENCODING 7925
SWIDTH 660 0
DWIDTH 11 0
BBX 9 16 1 -3
BITMAP
A100
4080
A100
4080
A100
E180
4080
A500
5A80
2500
0C00
0800
0400
0000
0400
0C00
ENDCHAR
STARTCHAR 1EF6
ENCODING 7926
SWIDTH 660 0
DWIDTH 11 0
BBX 9 19 1 0
BITMAP
2400
3F00
0200
0500
0A00
0400
A100
4080
A100
4080
A100
E180
5280
2500
1A00
0400
0C00
0800
0400
ENDCHAR
STARTCHAR 1EF7
ENCODING 7927
SWIDTH 660 0
DWIDTH 11 0
BBX 9 19 1 0
BITMAP
2400
3F00
0200
0500
0A00
0400
A100
4080
A100
4080
A100
E180
4080
A500
5A80
2500
0C00
0800
0400
ENDCHAR
STARTCHAR 1EF8
ENCODING 7928
SWIDTH 660 0
DWIDTH 11 0
BBX 9 18 1 0
BITMAP
2100
5880
A500
4A80
A500
A100
4080
A100
4080
A100
E180
5280
2500
1A00
0400
0C00
0800
0400
ENDCHAR
STARTCHAR 1EF9
ENCODING 7929
SWIDTH 660 0
DWIDTH 11 0
BBX 9 18 1 0
BITMAP
2100
5880
A500
4A80
A500
A100
4080
A100
4080
A100
E180
4080
A500
5A80
2500
0C00
0800
0400
ENDCHAR
STARTCHAR 2013
ENCODING 8211
SWIDTH 660 0
DWIDTH 11 0
BBX 11 3 0 5
BITMAP
AD60
5280
AD60
ENDCHAR
STARTCHAR 2014
ENCODING 8212
SWIDTH 960 0
DWIDTH 16 0
BBX 16 3 0 5
BITMAP
AD6B
5294
AD6B
ENDCHAR
STARTCHAR 2018
ENCODING 8216
SWIDTH 180 0
DWIDTH 3 0
BBX 3 4 0 10
BITMAP
20
E0
40
A0
ENDCHAR
STARTCHAR 2019
ENCODING 8217
SWIDTH 180 0
DWIDTH 3 0
BBX 3 4 0 10
BITMAP
A0
E0
40
80
ENDCHAR
STARTCHAR 201A
ENCODING 8218
SWIDTH 180 0
DWIDTH 3 0
BBX 3 5 0 -2
BITMAP
A0
40
A0
40
80
ENDCHAR
STARTCHAR 201C
ENCODING 8220
SWIDTH 420 0
DWIDTH 7 0
BBX 7 4 0 10
BITMAP
22
E6
44
A2
ENDCHAR
STARTCHAR 201D
ENCODING 8221
SWIDTH 420 0
DWIDTH 7 0
BBX 7 4 0 10
BITMAP
A2
E6
44
80
ENDCHAR
STARTCHAR 201E
ENCODING 8222
SWIDTH 420 0
DWIDTH 7 0
BBX 7 5 0 -2
BITMAP
A2
44
A2
44
80
ENDCHAR
STARTCHAR 2020
ENCODING 8224
SWIDTH 480 0
DWIDTH 8 0
BBX 6 13 1 0
BITMAP
20
10
A4
58
A4
30
10
20
10
20
30
10
20
ENDCHAR
STARTCHAR 2021
ENCODING 8225
SWIDTH 480 0
DWIDTH 8 0
BBX 6 13 1 0
BITMAP
20
10
A4
58
A4
30
10
A4
58
A4
30
10
20
ENDCHAR
STARTCHAR 2022
ENCODING 8226
SWIDTH 360 0
DWIDTH 6 0
BBX 6 6 0 3
BITMAP
28
FC
50
AC
50
28
ENDCHAR
STARTCHAR 2026
ENCODING 8230
SWIDTH 600 0
DWIDTH 10 0
BBX 10 3 0 0
BITMAP
AD40
4080
AD40
ENDCHAR
STARTCHAR 2030
ENCODING 8240
SWIDTH 1800 0
DWIDTH 30 0
BBX 28 13 1 0
BITMAP
24280000
5A100000
A5280000
42500000
A5200000
E7714240
5A46A5A0
24294A50
00C42420
00084A50
01CD6E70
0086A5A0
01014240
ENDCHAR
STARTCHAR 2039
ENCODING 8249
SWIDTH 540 0
DWIDTH 9 0
BBX 7 9 0 2
BITMAP
02
0C
10
78
A0
50
28
10
0E
ENDCHAR
STARTCHAR 203A
ENCODING 8250
SWIDTH 540 0
DWIDTH 9 0
BBX 7 9 2 2
BITMAP
A0
40
30
1C
0A
14
08
30
E0
ENDCHAR
STARTCHAR 2044
ENCODING 8260
SWIDTH 360 0
DWIDTH 6 0
BBX 6 13 0 0
BITMAP
0C
00
0C
10
08
38
10
28
50
20
F0
40
A0
ENDCHAR
STARTCHAR 20AC
ENCODING 8364
SWIDTH 780 0
DWIDTH 13 0
BBX 11 18 1 -2
BITMAP
0520
0AC0
0520
3800
1000
A500
5A80
A500
3000
1000
A500
5A80
A500
3000
1800
0520
0AC0
0520
ENDCHAR
STARTCHAR 2212
ENCODING 8722
SWIDTH 660 0
DWIDTH 11 0
BBX 9 3 1 5
BITMAP
A500
5A80
A500
ENDCHAR
STARTCHAR E000
ENCODING 57344
SWIDTH 660 0
DWIDTH 11 0
BBX 9 13 1 0
BITMAP
A500
5A80
A500
4080
A100
E180
4080
A500
5A80
A500
E180
4080
A100
ENDCHAR
STARTCHAR E017
ENCODING 57367
SWIDTH 1080 0
DWIDTH 18 0
BBX 16 13 1 0
BITMAP
A529
5AD6
A529
4080
A100
E1A8
40D4
A528
5A80
A500
E1A9
40D6
A129
ENDCHAR
STARTCHAR E018
ENCODING 57368
SWIDTH 660 0
DWIDTH 11 0
BBX 9 13 1 0
BITMAP
A500
5A80
A500
4080
A100
E780
5A00
A500
4280
A100
E580
5A80
A500
ENDCHAR
STARTCHAR E019
ENCODING 57369
SWIDTH 780 0
DWIDTH 13 0
BBX 11 13 1 0
BITMAP
A520
5AC0
A520
4040
A020
E060
4000
A000
4000
A020
E560
5AC0
A520
ENDCHAR
STARTCHAR E01E
ENCODING 57374
SWIDTH 780 0
DWIDTH 13 0
BBX 11 13 1 0
BITMAP
A500
5AC0
A520
4040
A020
E060
4040
A020
4040
A020
E560
5AC0
A500
ENDCHAR
STARTCHAR E01F
ENCODING 57375
SWIDTH 840 0
DWIDTH 14 0
BBX 13 13 0 0
BITMAP
2D60
1290
2D68
1010
2828
BC38
5010
AC28
1010
2828
3D78
1290
2D60
ENDCHAR
STARTCHAR E021
ENCODING 57377
SWIDTH 840 0
DWIDTH 14 0
BBX 13 13 0 0
BITMAP
2D60
1290
2D68
1010
2828
BC38
5010
AC28
1010
2828
3D78
1290
2D60
ENDCHAR
STARTCHAR E022
ENCODING 57378
SWIDTH 660 0
DWIDTH 11 0
BBX 9 13 1 0
BITMAP
A500
5A80
A500
4000
A000
E500
5A00
A500
4000
A000
E500
5A80
A500
ENDCHAR
STARTCHAR E033
ENCODING 57395
SWIDTH 660 0
DWIDTH 11 0
BBX 9 13 1 0
BITMAP
A500
5A80
A500
4000
A000
E500
5A00
A500
4000
A000
E000
4000
A000
ENDCHAR
STARTCHAR E034
ENCODING 57396
SWIDTH 780 0
DWIDTH 13 0
BBX 11 13 1 0
BITMAP
A520
5AC0
A520
4000
A000
E520
42C0
A520
4040
A020
E560
5AC0
A520
ENDCHAR
STARTCHAR E038
ENCODING 57400
SWIDTH 600 0
DWIDTH 10 0
BBX 8 13 1 0
BITMAP
A5
5A
A5
02
05
07
02
A5
42
A5
E7
5A
A4
ENDCHAR
STARTCHAR E039
ENCODING 57401
SWIDTH 660 0
DWIDTH 11 0
BBX 9 13 1 0
BITMAP
A100
4080
A100
4280
A500
EF00
5A80
A500
4080
A100
E180
4080
A100
ENDCHAR
STARTCHAR E03B
ENCODING 57403
SWIDTH 660 0
DWIDTH 11 0
BBX 9 13 1 0
BITMAP
A000
4000
A000
4000
A000
E000
4000
A000
4000
A000
E500
5A80
A500
ENDCHAR
STARTCHAR E040
ENCODING 57408
SWIDTH 1080 0
DWIDTH 18 0
BBX 16 13 1 0
BITMAP
A529
5AD6
A529
4082
A101
E183
4082
A101
4082
A101
E183
4082
A101
ENDCHAR
STARTCHAR E041
ENCODING 57409
SWIDTH 780 0
DWIDTH 13 0
BBX 11 13 1 0
BITMAP
A520
5AC0
A520
4040
A020
E060
4040
A020
4040
A020
E060
4040
A020
ENDCHAR
STARTCHAR E045
ENCODING 57413
SWIDTH 780 0
DWIDTH 13 0
BBX 11 16 1 -3
BITMAP
A520
5AC0
A520
4040
A020
E060
4040
A020
4040
A020
E060
4040
A020
0040
0120
01C0
ENDCHAR
STARTCHAR E047
ENCODING 57415
SWIDTH 780 0
DWIDTH 13 0
BBX 11 13 1 0
BITMAP
A520
5AC0
A520
4040
A020
E060
4040
A020
4040
A020
E560
5AC0
A520
ENDCHAR
STARTCHAR E054
ENCODING 57428
SWIDTH 900 0
DWIDTH 15 0
BBX 14 14 1 0
BITMAP
0008
A52C
5AD4
A528
4040
A020
E060
4040
A020
4040
A020
E560
5AC0
A520
ENDCHAR
STARTCHAR E05E
ENCODING 57438
SWIDTH 1200 0
DWIDTH 20 0
BBX 18 13 1 0
BITMAP
A52940
5AD680
A52940
404000
A02000
E06900
405600
A02900
404000
A02000
E56940
5AD680
A52940
ENDCHAR
STARTCHAR E05F
ENCODING 57439
SWIDTH 660 0
DWIDTH 11 0
BBX 9 13 1 0
BITMAP
A500
5A80
A500
4080
A100
E180
4080
A100
4080
A500
FF80
4000
A000
ENDCHAR
STARTCHAR E060
ENCODING 57440
SWIDTH 660 0
DWIDTH 11 0
BBX 9 13 1 0
BITMAP
A000
4000
A500
5A80
A500
E180
4080
A100
4080
A500
FF80
4000
A000
ENDCHAR
STARTCHAR E061
ENCODING 57441
SWIDTH 780 0
DWIDTH 13 0
BBX 11 15 1 -2
BITMAP
A520
5AC0
A520
4040
A020
E060
4040
A020
4040
A520
E760
5AC0
A520
0200
0500
ENDCHAR
STARTCHAR E062
ENCODING 57442
SWIDTH 660 0
DWIDTH 11 0
BBX 9 13 1 0
BITMAP
A500
5A80
A500
4080
A100
E180
4080
A100
4080
A500
FF80
4280
A100
ENDCHAR
STARTCHAR E066
ENCODING 57446
SWIDTH 660 0
DWIDTH 11 0
BBX 9 13 1 0
BITMAP
A500
5A80
A500
4080
A100
E500
5A80
2500
0080
A100
E580
5A80
A500
ENDCHAR
STARTCHAR E06C
ENCODING 57452
SWIDTH 780 0
DWIDTH 13 0
BBX 11 13 1 0
BITMAP
A020
4040
A020
4040
A020
E060
4040
A020
4040
A020
E560
5AC0
A520
ENDCHAR
STARTCHAR E078
ENCODING 57464
SWIDTH 900 0
DWIDTH 15 0
BBX 14 14 1 0
BITMAP
0008
A02C
4054
A028
4040
A020
E060
4040
A020
4040
A020
E560
5AC0
A520
ENDCHAR
STARTCHAR E083
ENCODING 57475
SWIDTH 1080 0
DWIDTH 18 0
BBX 16 13 1 0
BITMAP
A101
4082
A101
4082
A101
E183
4082
A101
4082
A101
E5AB
5AD6
A529
ENDCHAR
STARTCHAR E088
ENCODING 57480
SWIDTH 780 0
DWIDTH 13 0
BBX 11 13 1 0
BITMAP
A020
4040
A020
4040
A020
75C0
1A80
2500
50C0
A020
E060
4040
A020
ENDCHAR
STARTCHAR E089
ENCODING 57481
SWIDTH 660 0
DWIDTH 11 0
BBX 9 13 1 0
BITMAP
A100
4080
A100
4080
A100
E180
4080
A500
5A80
A500
0C00
0800
0400
ENDCHAR
STARTCHAR E091
ENCODING 57489
SWIDTH 660 0
DWIDTH 11 0
BBX 9 13 1 0
BITMAP
A500
5A80
A500
0080
0100
A580
5A80
A500
4000
A000
E500
5A80
A500
ENDCHAR
STARTCHAR E095
ENCODING 57493
SWIDTH 780 0
DWIDTH 13 0
BBX 11 13 1 0
BITMAP
2500
5AC0
A520
4040
A020
2560
5AC0
A520
4040
A020
E560
5AC0
2500
ENDCHAR
STARTCHAR E0AC
ENCODING 57516
SWIDTH 1260 0
DWIDTH 21 0
BBX 19 13 1 0
BITMAP
252940
5AD6A0
A52940
404020
A02040
256960
5AD6A0
A52940
404000
A02000
E56940
5AD6A0
252940
ENDCHAR
STARTCHAR E0AD
ENCODING 57517
SWIDTH 660 0
DWIDTH 11 0
BBX 9 13 1 0
BITMAP
0500
1A80
2500
5000
A000
E000
4000
A000
4000
A000
7500
1A80
0500
ENDCHAR
STARTCHAR E0B2
ENCODING 57522
SWIDTH 780 0
DWIDTH 13 0
BBX 11 13 1 0
BITMAP
0500
1A80
2500
50C0
A020
E560
5AC0
A520
4000
A000
7520
1AC0
0520
ENDCHAR
STARTCHAR E0C3
ENCODING 57539
SWIDTH 600 0
DWIDTH 10 0
BBX 8 13 1 0
BITMAP
05
02
05
02
05
07
02
05
02
05
AE
58
A0
ENDCHAR
STARTCHAR E0C4
ENCODING 57540
SWIDTH 1260 0
DWIDTH 21 0
BBX 19 13 1 0
BITMAP
050900
1A9680
252940
50D0A0
A02040
E06060
404020
A02040
404020
A02040
E06060
404020
A02040
ENDCHAR
STARTCHAR E0C5
ENCODING 57541
SWIDTH 780 0
DWIDTH 13 0
BBX 11 13 1 0
BITMAP
0500
1A80
2500
50C0
A020
E060
4040
A020
4040
A020
E060
4040
A020
ENDCHAR
STARTCHAR E0C9
ENCODING 57545
SWIDTH 780 0
DWIDTH 13 0
BBX 11 16 1 -3
BITMAP
0500
1A80
2500
50C0
A020
E060
4040
A020
4040
A020
E060
4040
A020
0040
0120
01C0
ENDCHAR
STARTCHAR E0CB
ENCODING 57547
SWIDTH 1260 0
DWIDTH 21 0
BBX 19 13 1 0
BITMAP
050900
1A9680
252940
50D0A0
A02040
E06960
4056A0
A02940
404000
A02000
75F940
1A96A0
050940
ENDCHAR
STARTCHAR E0CC
ENCODING 57548
SWIDTH 600 0
DWIDTH 10 0
BBX 8 13 1 0
BITMAP
05
1A
25
50
A0
E0
40
A0
40
A0
E0
40
A0
ENDCHAR
STARTCHAR E0D0
ENCODING 57552
SWIDTH 660 0
DWIDTH 11 0
BBX 9 13 1 0
BITMAP
2500
5A80
A500
4000
A000
E500
5A80
2500
0080
0100
A580
5A80
A500
ENDCHAR
STARTCHAR E0D5
ENCODING 57557
SWIDTH 1260 0
DWIDTH 21 0
BBX 19 13 1 0
BITMAP
A02040
404020
A02040
404020
A02040
E06060
404020
A02040
404020
A02040
75F9E0
1A9680
050900
ENDCHAR
STARTCHAR E0DA
ENCODING 57562
SWIDTH 660 0
DWIDTH 11 0
BBX 9 13 1 0
BITMAP
A100
4080
A100
4080
A100
7580
1A80
0500
0080
0100
A580
5A80
A500
ENDCHAR
STARTCHAR E0E2
ENCODING 57570
SWIDTH 660 0
DWIDTH 11 0
BBX 9 13 1 0
BITMAP
0500
0A80
0500
1880
2100
F180
4080
A500
5A80
A500
E180
4080
A100
ENDCHAR
STARTCHAR E0FA
ENCODING 57594
SWIDTH 660 0
DWIDTH 11 0
BBX 9 13 1 0
BITMAP
A500
5A80
A500
4080
A100
E780
5A80
A500
4080
A100
E780
5A00
A400
ENDCHAR
STARTCHAR E0FB
ENCODING 57595
SWIDTH 660 0
DWIDTH 11 0
BBX 9 13 1 0
BITMAP
0500
0A80
0500
1800
2000
F000
4000
A000
4000
A000
E500
5A80
A500
ENDCHAR
STARTCHAR E100
ENCODING 57600
SWIDTH 780 0
DWIDTH 13 0
BBX 11 13 1 0
BITMAP
A400
5A00
A500
4280
A100
E0E0
4040
A020
4040
A020
E560
5AC0
A520
ENDCHAR
STARTCHAR E101
ENCODING 57601
SWIDTH 840 0
DWIDTH 14 0
BBX 13 13 0 0
BITMAP
2D00
1280
2D40
1080
2860
BC38
5010
AC28
1010
2828
3D78
1290
2D68
ENDCHAR
STARTCHAR E103
ENCODING 57603
SWIDTH 840 0
DWIDTH 14 0
BBX 13 13 0 0
BITMAP
2D00
1280
2D40
1080
2860
BC38
5010
AC28
1010
2828
3D78
1290
2D68
ENDCHAR
STARTCHAR E104
ENCODING 57604
SWIDTH 660 0
DWIDTH 11 0
BBX 9 13 1 0
BITMAP
A500
5A80
A500
4000
A000
E500
5A00
A500
4000
A000
7500
1A80
0500
ENDCHAR
STARTCHAR E115
ENCODING 57621
SWIDTH 780 0
DWIDTH 13 0
BBX 11 13 1 0
BITMAP
0520
1AC0
2520
5000
A000
E520
42C0
A520
4040
A020
E560
5AC0
A520
ENDCHAR
STARTCHAR E119
ENCODING 57625
SWIDTH 660 0
DWIDTH 11 0
BBX 9 13 1 0
BITMAP
A000
4000
A000
4000
A000
E000
4000
A000
4000
A000
7500
1A80
0500
ENDCHAR
STARTCHAR E11E
ENCODING 57630
SWIDTH 1080 0
DWIDTH 18 0
BBX 16 13 1 0
BITMAP
A120
58D0
A528
4A94
A508
E387
4082
A101
4082
A101
E183
4082
A101
ENDCHAR
STARTCHAR E11F
ENCODING 57631
SWIDTH 660 0
DWIDTH 11 0
BBX 9 13 1 0
BITMAP
A000
5800
A400
4A00
A500
E380
4080
A100
4080
A100
E180
4080
A100
ENDCHAR
STARTCHAR E123
ENCODING 57635
SWIDTH 660 0
DWIDTH 11 0
BBX 9 16 1 -3
BITMAP
A000
5800
A400
4A00
A500
E380
4080
A100
4080
A100
E180
4080
A100
0080
0500
0780
ENDCHAR
STARTCHAR E125
ENCODING 57637
SWIDTH 780 0
DWIDTH 13 0
BBX 11 13 1 0
BITMAP
A500
5A80
A500
40C0
A020
E060
4040
A020
4040
A020
7560
1AC0
0520
ENDCHAR
STARTCHAR E136
ENCODING 57654
SWIDTH 660 0
DWIDTH 11 0
BBX 9 13 1 0
BITMAP
A500
5A80
A500
4080
A100
E180
4080
A100
4280
A500
FE00
4000
A000
ENDCHAR
STARTCHAR E137
ENCODING 57655
SWIDTH 660 0
DWIDTH 11 0
BBX 9 13 1 0
BITMAP
A000
4000
A500
5A80
A500
E180
4080
A100
4280
A500
FE00
4000
A000
ENDCHAR
STARTCHAR E138
ENCODING 57656
SWIDTH 780 0
DWIDTH 13 0
BBX 11 15 1 -2
BITMAP
A500
5A80
A500
40C0
A020
E060
4040
A020
4040
A520
7760
1AC0
0520
0200
0500
ENDCHAR
STARTCHAR E139
ENCODING 57657
SWIDTH 660 0
DWIDTH 11 0
BBX 9 13 1 0
BITMAP
A500
5A80
A500
4080
A100
E180
4080
A100
4280
A500
FF00
4280
A100
ENDCHAR
STARTCHAR E13D
ENCODING 57661
SWIDTH 660 0
DWIDTH 11 0
BBX 9 13 1 0
BITMAP
0500
1A80
2500
5000
A000
E500
5A80
A500
0080
0100
A780
5A00
A400
ENDCHAR
STARTCHAR E141
ENCODING 57665
SWIDTH 660 0
DWIDTH 11 0
BBX 9 13 1 0
BITMAP
A100
4080
A100
4080
A100
E180
4080
A100
4280
A500
EE00
5800
A000
ENDCHAR
STARTCHAR E142
ENCODING 57666
SWIDTH 1080 0
DWIDTH 18 0
BBX 16 13 1 0
BITMAP
A101
4082
A101
4082
A101
E183
4082
A101
4286
A508
EFBC
58D0
A120
ENDCHAR
STARTCHAR E147
ENCODING 57671
SWIDTH 300 0
DWIDTH 5 0
BBX 3 16 1 0
BITMAP
A0
40
A0
A0
40
A0
40
A0
E0
40
A0
40
A0
E0
40
A0
ENDCHAR
STARTCHAR E148
ENCODING 57672
SWIDTH 660 0
DWIDTH 11 0
BBX 9 13 1 0
BITMAP
A500
5A80
A500
0080
0100
A580
5A80
A500
4080
A100
E580
5A80
A500
ENDCHAR
STARTCHAR E15F
ENCODING 57695
SWIDTH 1080 0
DWIDTH 18 0
BBX 16 13 1 0
BITMAP
A529
5AD6
A529
0082
0101
A5AB
5AD6
A529
4080
A100
E5A9
5AD6
A529
ENDCHAR
STARTCHAR E160
ENCODING 57696
SWIDTH 660 0
DWIDTH 11 0
BBX 9 13 1 0
BITMAP
A500
5A80
A500
4080
A100
E780
5A00
A500
4280
A100
E580
5A80
A500
ENDCHAR
STARTCHAR E161
ENCODING 57697
SWIDTH 660 0
DWIDTH 11 0
BBX 9 13 1 0
BITMAP
A500
5A80
A500
4080
A100
E180
4000
A000
4000
A100
E580
5A80
A500
ENDCHAR
STARTCHAR E166
ENCODING 57702
SWIDTH 660 0
DWIDTH 11 0
BBX 9 13 1 0
BITMAP
A500
5A80
A500
4080
A100
E580
5A80
A500
4000
A000
E500
5A80
A500
ENDCHAR
STARTCHAR E177
ENCODING 57719
SWIDTH 660 0
DWIDTH 11 0
BBX 9 13 1 0
BITMAP
A500
5A80
A500
4000
A000
E500
5A00
A500
4000
A000
E000
4000
A000
ENDCHAR
STARTCHAR E178
ENCODING 57720
SWIDTH 660 0
DWIDTH 11 0
BBX 9 13 1 0
BITMAP
A500
5A80
A500
4000
A000
E500
4280
A500
4080
A100
E580
5A80
A500
ENDCHAR
STARTCHAR E17C
ENCODING 57724
SWIDTH 480 0
DWIDTH 8 0
BBX 6 13 1 0
BITMAP
04
08
04
08
04
0C
08
04
08
04
AC
58
A4
ENDCHAR
STARTCHAR E17D
ENCODING 57725
SWIDTH 660 0
DWIDTH 11 0
BBX 9 13 1 0
BITMAP
A100
4080
A100
4280
A500
EF00
5A80
A500
4080
A100
E180
4080
A100
ENDCHAR
STARTCHAR E17F
ENCODING 57727
SWIDTH 600 0
DWIDTH 10 0
BBX 8 13 1 0
BITMAP
A0
40
A0
40
A0
E0
40
A0
40
A0
E5
5A
A5
ENDCHAR
STARTCHAR E184
ENCODING 57732
SWIDTH 900 0
DWIDTH 15 0
BBX 13 13 1 0
BITMAP
A528
5AD0
A528
4210
A528
E738
4210
A528
4210
A528
E738
4210
A528
ENDCHAR
STARTCHAR E185
ENCODING 57733
SWIDTH 660 0
DWIDTH 11 0
BBX 9 13 1 0
BITMAP
A500
5A80
A500
4080
A100
E180
4080
A100
4080
A100
E180
4080
A100
ENDCHAR
STARTCHAR E189
ENCODING 57737
SWIDTH 660 0
DWIDTH 11 0
BBX 9 16 1 -3
BITMAP
A500
5A80
A500
4080
A100
E180
4080
A100
4080
A100
E180
4080
A100
0080
0500
0780
ENDCHAR
STARTCHAR E18B
ENCODING 57739
SWIDTH 660 0
DWIDTH 11 0
BBX 9 13 1 0
BITMAP
A500
5A80
A500
4080
A100
E180
4080
A100
4080
A100
E580
5A80
A500
ENDCHAR
STARTCHAR E198
ENCODING 57752
SWIDTH 840 0
DWIDTH 14 0
BBX 13 14 1 0
BITMAP
0028
A538
5AD0
A520
4080
A100
E180
4080
A100
4080
A100
E580
5A80
A500
ENDCHAR
STARTCHAR E1A2
ENCODING 57762
SWIDTH 1080 0
DWIDTH 18 0
BBX 16 13 1 0
BITMAP
A529
5AD6
A529
4082
A101
E1AB
40D6
A129
4080
A100
E5A9
5AD6
A529
ENDCHAR
STARTCHAR E1A3
ENCODING 57763
SWIDTH 660 0
DWIDTH 11 0
BBX 9 13 1 0
BITMAP
A500
5A80
A500
4080
A100
E180
4080
A500
5A80
A500
E000
4000
A000
ENDCHAR
STARTCHAR E1A4
ENCODING 57764
SWIDTH 660 0
DWIDTH 11 0
BBX 9 13 1 0
BITMAP
A000
4000
A500
5A80
A500
E180
4080
A100
4080
A500
FF80
4000
A000
ENDCHAR
STARTCHAR E1A5
ENCODING 57765
SWIDTH 660 0
DWIDTH 11 0
BBX 9 15 1 -2
BITMAP
A500
5A80
A500
4080
A100
E180
4080
A100
4080
A500
ED80
5A80
A500
0800
0400
ENDCHAR
STARTCHAR E1A6
ENCODING 57766
SWIDTH 660 0
DWIDTH 11 0
BBX 9 13 1 0
BITMAP
A500
5A80
A500
4080
A100
E180
4080
A500
5A80
A500
E380
4080
A100
ENDCHAR
STARTCHAR E1AA
ENCODING 57770
SWIDTH 660 0
DWIDTH 11 0
BBX 9 13 1 0
BITMAP
A500
5A80
A500
4000
A000
E500
5A80
A500
0080
0100
A580
5A80
A500
ENDCHAR
STARTCHAR E1B0
ENCODING 57776
SWIDTH 660 0
DWIDTH 11 0
BBX 9 13 1 0
BITMAP
A100
4080
A100
4080
A100
E180
4080
A100
4080
A100
E580
5A80
A500
ENDCHAR
STARTCHAR E1BC
ENCODING 57788
SWIDTH 840 0
DWIDTH 14 0
BBX 13 14 1 0
BITMAP
0028
A138
40D0
A120
4080
A100
E180
4080
A100
4080
A100
E580
5A80
A500
ENDCHAR
STARTCHAR E1C7
ENCODING 57799
SWIDTH 900 0
DWIDTH 15 0
BBX 13 13 1 0
BITMAP
A528
4210
A528
4210
A528
E738
4210
A528
4210
A528
E738
5AD0
A528
ENDCHAR
STARTCHAR E1CC
ENCODING 57804
SWIDTH 660 0
DWIDTH 11 0
BBX 9 13 1 0
BITMAP
A100
4080
A100
4080
A100
E580
5A80
A500
0080
0100
A580
5A80
A500
ENDCHAR
STARTCHAR E1D4
ENCODING 57812
SWIDTH 660 0
DWIDTH 11 0
BBX 9 13 1 0
BITMAP
A500
5A80
A500
0080
0100
A580
5A80
A500
4000
A000
E500
5A80
A500
ENDCHAR
STARTCHAR E1D8
ENCODING 57816
SWIDTH 660 0
DWIDTH 11 0
BBX 9 13 1 0
BITMAP
A500
5A80
A500
0080
0100
2580
5A80
A500
4080
A100
E580
5A80
2500
ENDCHAR
STARTCHAR E1EF
ENCODING 57839
SWIDTH 1080 0
DWIDTH 18 0
BBX 16 13 1 0
BITMAP
A528
5AD6
A529
0082
0101
25AB
5AD6
A529
4080
A100
E5A9
5AD6
2529
ENDCHAR
STARTCHAR E1F0
ENCODING 57840
SWIDTH 660 0
DWIDTH 11 0
BBX 9 13 1 0
BITMAP
2500
5A80
A500
4000
A000
E000
4000
A000
4000
A000
E500
5A80
2500
ENDCHAR
STARTCHAR E1F5
ENCODING 57845
SWIDTH 660 0
DWIDTH 11 0
BBX 9 13 1 0
BITMAP
2500
5A80
A500
4080
A100
E580
5A80
A500
4000
A000
E500
5A80
2500
ENDCHAR
STARTCHAR E206
ENCODING 57862
SWIDTH 660 0
DWIDTH 11 0
BBX 9 13 1 0
BITMAP
2500
5A80
A500
4080
A100
E400
5800
A400
4000
A000
E000
4000
A000
ENDCHAR
STARTCHAR E207
ENCODING 57863
SWIDTH 660 0
DWIDTH 11 0
BBX 9 13 1 0
BITMAP
2500
5A80
A500
4080
A100
E580
5A80
2500
0080
0100
A580
5A80
A500
ENDCHAR
STARTCHAR E20B
ENCODING 57867
SWIDTH 600 0
DWIDTH 10 0
BBX 8 13 1 0
BITMAP
05
02
05
02
05
07
02
05
02
A5
E7
5A
24
ENDCHAR
STARTCHAR E20C
ENCODING 57868
SWIDTH 1080 0
DWIDTH 18 0
BBX 16 13 1 0
BITMAP
2528
5AD6
A529
4082
A101
E183
4082
A101
4082
A101
E183
4082
A101
ENDCHAR
STARTCHAR E20D
ENCODING 57869
SWIDTH 660 0
DWIDTH 11 0
BBX 9 13 1 0
BITMAP
2500
5A80
A500
4080
A100
E180
4080
A100
4080
A100
E180
4080
A100
ENDCHAR
STARTCHAR E211
ENCODING 57873
SWIDTH 660 0
DWIDTH 11 0
BBX 9 16 1 -3
BITMAP
2500
5A80
A500
4080
A100
E180
4080
A100
4080
A100
E180
4080
A100
0080
0500
0780
ENDCHAR
STARTCHAR E213
ENCODING 57875
SWIDTH 1080 0
DWIDTH 18 0
BBX 16 13 1 0
BITMAP
2528
5AD6
A529
4082
A101
E1AB
40D6
A129
4080
A100
E5A9
5AD6
2529
ENDCHAR
STARTCHAR E214
ENCODING 57876
SWIDTH 600 0
DWIDTH 10 0
BBX 8 13 1 0
BITMAP
25
5A
A5
40
A0
E0
40
A0
40
A0
E0
40
A0
ENDCHAR
STARTCHAR E218
ENCODING 57880
SWIDTH 660 0
DWIDTH 11 0
BBX 9 13 1 0
BITMAP
2500
5A80
A500
4000
A000
E500
5A80
2500
0080
0100
A580
5A80
A500
ENDCHAR
STARTCHAR E21D
ENCODING 57885
SWIDTH 1080 0
DWIDTH 18 0
BBX 16 13 1 0
BITMAP
A101
4082
A101
4082
A101
E183
4082
A101
4082
A101
E5AB
5AD6
2528
ENDCHAR
STARTCHAR E222
ENCODING 57890
SWIDTH 660 0
DWIDTH 11 0
BBX 9 13 1 0
BITMAP
A100
4080
A100
4080
A100
E580
5A80
2500
0080
0100
A580
5A80
A500
ENDCHAR
STARTCHAR E22A
ENCODING 57898
SWIDTH 660 0
DWIDTH 11 0
BBX 9 13 1 0
BITMAP
A000
5800
A400
4A00
A500
E380
4080
A500
5A80
A500
E180
4080
A100
ENDCHAR
STARTCHAR E242
ENCODING 57922
SWIDTH 660 0
DWIDTH 11 0
BBX 9 13 1 0
BITMAP
A500
5A80
A500
4080
A100
E780
5A80
A500
4080
A100
E780
5A00
A400
ENDCHAR
STARTCHAR E243
ENCODING 57923
SWIDTH 660 0
DWIDTH 11 0
BBX 9 13 1 0
BITMAP
A500
5A80
A500
4000
A000
E000
4000
A000
5000
2000
1D00
0A80
0500
ENDCHAR
STARTCHAR E248
ENCODING 57928
SWIDTH 780 0
DWIDTH 13 0
BBX 11 13 1 0
BITMAP
A520
5AC0
A520
4040
A020
E060
4040
A020
40C0
A100
E780
5A00
A400
ENDCHAR
STARTCHAR E249
ENCODING 57929
SWIDTH 840 0
DWIDTH 14 0
BBX 13 13 0 0
BITMAP
2D68
1290
2D68
1010
2828
BC38
5010
AC28
1010
2860
3DC0
1280
2D00
ENDCHAR
STARTCHAR E24B
ENCODING 57931
SWIDTH 840 0
DWIDTH 14 0
BBX 13 13 0 0
BITMAP
2D68
1290
2D68
1010
2828
BC38
5010
AC28
1010
2860
3DC0
1280
2D00
ENDCHAR
STARTCHAR E24C
ENCODING 57932
SWIDTH 660 0
DWIDTH 11 0
BBX 9 13 1 0
BITMAP
0500
1A80
2500
5000
A000
E500
5A00
A500
4000
A000
E500
5A80
A500
ENDCHAR
STARTCHAR E25D
ENCODING 57949
SWIDTH 780 0
DWIDTH 13 0
BBX 11 13 1 0
BITMAP
A520
5AC0
A520
4000
A000
E520
42C0
A520
4040
A020
7560
1AC0
0520
ENDCHAR
STARTCHAR E261
ENCODING 57953
SWIDTH 600 0
DWIDTH 10 0
BBX 8 13 1 0
BITMAP
A5
5A
A5
02
05
07
02
05
02
A5
EE
58
A0
ENDCHAR
STARTCHAR E262
ENCODING 57954
SWIDTH 600 0
DWIDTH 10 0
BBX 8 13 1 0
BITMAP
A0
40
A0
40
A0
E0
40
A0
40
A0
75
1A
05
ENDCHAR
STARTCHAR E267
ENCODING 57959
SWIDTH 1080 0
DWIDTH 18 0
BBX 16 13 1 0
BITMAP
0509
0A96
0529
18D2
2121
F1C3
4082
A101
4082
A101
E183
4082
A101
ENDCHAR
STARTCHAR E268
ENCODING 57960
SWIDTH 660 0
DWIDTH 11 0
BBX 9 13 1 0
BITMAP
0500
0A80
0500
1880
2100
F180
4080
A100
4080
A100
E180
4080
A100
ENDCHAR
STARTCHAR E26C
ENCODING 57964
SWIDTH 660 0
DWIDTH 11 0
BBX 9 16 1 -3
BITMAP
0500
0A80
0500
1880
2100
F180
4080
A100
4080
A100
E180
4080
A100
0080
0500
0780
ENDCHAR
STARTCHAR E26E
ENCODING 57966
SWIDTH 780 0
DWIDTH 13 0
BBX 11 13 1 0
BITMAP
0520
1AC0
2520
5040
A020
E060
4040
A020
4040
A020
E5C0
5A80
A500
ENDCHAR
STARTCHAR E27F
ENCODING 57983
SWIDTH 660 0
DWIDTH 11 0
BBX 9 13 1 0
BITMAP
A500
5A80
A500
4080
A100
E180
4280
A500
5A00
A400
E000
4000
A000
ENDCHAR
STARTCHAR E280
ENCODING 57984
SWIDTH 660 0
DWIDTH 11 0
BBX 9 13 1 0
BITMAP
A000
4000
A500
5A80
A500
E180
4080
A100
4280
A500
FE00
4000
A000
ENDCHAR
STARTCHAR E281
ENCODING 57985
SWIDTH 780 0
DWIDTH 13 0
BBX 11 15 1 -2
BITMAP
0520
1AC0
2520
5040
A020
E060
4040
A020
4040
A420
EDC0
5A80
A500
0800
0400
ENDCHAR
STARTCHAR E282
ENCODING 57986
SWIDTH 660 0
DWIDTH 11 0
BBX 9 13 1 0
BITMAP
A500
5A80
A500
4080
A100
E180
4280
A500
5A00
A500
E380
4080
A100
ENDCHAR
STARTCHAR E286
ENCODING 57990
SWIDTH 660 0
DWIDTH 11 0
BBX 9 13 1 0
BITMAP
0500
1A80
2500
5000
A000
E500
5A80
A500
0080
0100
A780
5A00
A400
ENDCHAR
STARTCHAR E28A
ENCODING 57994
SWIDTH 660 0
DWIDTH 11 0
BBX 9 13 1 0
BITMAP
A100
4080
A100
4080
A100
E180
4080
A100
5080
2100
1D80
0A80
0500
ENDCHAR
STARTCHAR E28B
ENCODING 57995
SWIDTH 1080 0
DWIDTH 18 0
BBX 16 13 1 0
BITMAP
A101
4082
A101
4082
A101
E183
4082
A101
50C2
2121
1DFB
0A96
0509
ENDCHAR
STARTCHAR E290
ENCODING 58000
SWIDTH 660 0
DWIDTH 11 0
BBX 9 13 1 0
BITMAP
A100
4080
A100
4080
A100
E180
5080
2500
1A80
0500
0180
0080
0100
ENDCHAR
STARTCHAR E298
ENCODING 58008
SWIDTH 660 0
DWIDTH 11 0
BBX 9 13 1 0
BITMAP
A500
5A80
A500
0280
0500
0E00
1800
2000
5000
A000
E500
5A80
A500
ENDCHAR
STARTCHAR E29C
ENCODING 58012
SWIDTH 780 0
DWIDTH 13 0
BBX 11 13 1 0
BITMAP
A500
5A80
A500
40C0
A000
E520
42C0
A520
4040
A020
E5C0
5A80
A500
ENDCHAR
STARTCHAR E29D
ENCODING 58013
SWIDTH 660 0
DWIDTH 11 0
BBX 9 13 1 0
BITMAP
A500
5A80
A500
4080
A100
E180
4080
A500
5A80
A500
E180
4080
A100
ENDCHAR
STARTCHAR E29E
ENCODING 58014
SWIDTH 660 0
DWIDTH 11 0
BBX 9 13 1 0
BITMAP
A500
5A80
A500
4000
A000
E500
5A80
A500
4080
A100
E580
5A80
A500
ENDCHAR
STARTCHAR E29F
ENCODING 58015
SWIDTH 660 0
DWIDTH 11 0
BBX 9 13 1 0
BITMAP
A500
5A80
A500
4080
A100
E780
5A00
A500
4280
A100
E580
5A80
A500
ENDCHAR
STARTCHAR E2A0
ENCODING 58016
SWIDTH 660 0
DWIDTH 11 0
BBX 9 13 1 0
BITMAP
A500
5A80
A500
4000
A000
E000
4000
A000
4000
A000
E000
4000
A000
ENDCHAR
STARTCHAR E2A2
ENCODING 58018
SWIDTH 660 0
DWIDTH 11 0
BBX 9 13 1 0
BITMAP
A500
5A80
A500
4000
A000
E500
5A00
A500
4000
A000
E500
5A80
A500
ENDCHAR
STARTCHAR E2A4
ENCODING 58020
SWIDTH 1080 0
DWIDTH 18 0
BBX 16 13 1 0
BITMAP
A101
4082
A101
5086
2108
BDBD
5AD6
A529
4082
A101
E183
4082
A101
ENDCHAR
STARTCHAR E2A5
ENCODING 58021
SWIDTH 780 0
DWIDTH 13 0
BBX 11 13 1 0
BITMAP
A520
5AC0
A520
4040
A020
05C0
0A80
0500
00C0
A020
E560
5AC0
A520
ENDCHAR
STARTCHAR E2A6
ENCODING 58022
SWIDTH 660 0
DWIDTH 11 0
BBX 9 13 1 0
BITMAP
A100
4080
A100
4280
A500
EF00
5A80
A500
4080
A100
E180
4080
A100
ENDCHAR
STARTCHAR E2A8
ENCODING 58024
SWIDTH 1080 0
DWIDTH 18 0
BBX 16 13 1 0
BITMAP
A529
5AD6
A529
4082
A101
E183
4082
A101
4082
A101
E183
4082
A101
ENDCHAR
STARTCHAR E2A9
ENCODING 58025
SWIDTH 780 0
DWIDTH 13 0
BBX 11 13 1 0
BITMAP
A520
5AC0
A520
4040
A020
E060
4040
A020
4040
A020
E560
5AC0
A520
ENDCHAR
STARTCHAR E2AA
ENCODING 58026
SWIDTH 780 0
DWIDTH 13 0
BBX 11 13 1 0
BITMAP
A520
5AC0
A520
4040
A020
E060
4040
A020
4040
A020
E060
4040
A020
ENDCHAR
STARTCHAR E2AB
ENCODING 58027
SWIDTH 660 0
DWIDTH 11 0
BBX 9 13 1 0
BITMAP
A500
5A80
A500
4080
A100
E180
4080
A100
4080
A500
FF80
4000
A000
ENDCHAR
STARTCHAR E2AC
ENCODING 58028
SWIDTH 780 0
DWIDTH 13 0
BBX 11 13 1 0
BITMAP
A520
5AC0
A520
4040
A020
E060
4000
A000
4000
A020
E560
5AC0
A520
ENDCHAR
STARTCHAR E2AD
ENCODING 58029
SWIDTH 660 0
DWIDTH 11 0
BBX 9 13 1 0
BITMAP
A100
4080
A100
4080
A100
E580
5A80
A500
0080
0100
A580
5A80
A500
ENDCHAR
STARTCHAR E2AE
ENCODING 58030
SWIDTH 900 0
DWIDTH 15 0
BBX 13 16 1 -2
BITMAP
0500
A728
5AD0
A528
4210
A528
E738
4210
A528
4210
A528
E738
5AD0
A528
0200
0500
ENDCHAR
STARTCHAR E2AF
ENCODING 58031
SWIDTH 780 0
DWIDTH 13 0
BBX 11 13 1 0
BITMAP
A020
4040
A020
4040
A020
75C0
1A80
2500
50C0
A020
E060
4040
A020
ENDCHAR
STARTCHAR E2B0
ENCODING 58032
SWIDTH 660 0
DWIDTH 11 0
BBX 9 13 1 0
BITMAP
A100
4080
A100
4080
A100
E580
5A80
A500
0080
0100
0180
0080
0100
ENDCHAR
STARTCHAR E2B1
ENCODING 58033
SWIDTH 840 0
DWIDTH 14 0
BBX 13 15 1 -2
BITMAP
A020
4040
A020
4040
A020
E060
4040
A020
4040
A020
E560
5AD0
A528
0010
0028
ENDCHAR
STARTCHAR E2B2
ENCODING 58034
SWIDTH 1080 0
DWIDTH 18 0
BBX 16 13 1 0
BITMAP
A101
4082
A101
4082
A101
E183
4082
A101
4082
A101
E5AB
5AD6
A529
ENDCHAR
STARTCHAR E2B3
ENCODING 58035
SWIDTH 1140 0
DWIDTH 19 0
BBX 18 15 1 -2
BITMAP
A10100
408200
A10100
408200
A10100
E18300
408200
A10100
408200
A10100
E5AB00
5AD680
A52940
000080
000140
ENDCHAR
STARTCHAR E2B4
ENCODING 58036
SWIDTH 660 0
DWIDTH 11 0
BBX 9 13 1 0
BITMAP
A000
4000
A000
4000
A000
E500
5A80
A500
4080
A100
E580
5A80
A500
ENDCHAR
STARTCHAR E2B5
ENCODING 58037
SWIDTH 780 0
DWIDTH 13 0
BBX 11 13 1 0
BITMAP
A000
5000
A000
1000
2000
3520
1AC0
2520
1040
2020
3560
1AC0
2520
ENDCHAR
STARTCHAR E2B6
ENCODING 58038
SWIDTH 900 0
DWIDTH 15 0
BBX 14 13 1 0
BITMAP
A014
4008
A014
4008
A014
E51C
5A88
A514
4088
A114
E59C
5A88
A514
ENDCHAR
STARTCHAR E2B7
ENCODING 58039
SWIDTH 780 0
DWIDTH 13 0
BBX 11 13 1 0
BITMAP
A520
5AC0
A520
4040
A020
0560
0AC0
0520
0040
A020
E560
5AC0
A520
ENDCHAR
STARTCHAR E2B8
ENCODING 58040
SWIDTH 1080 0
DWIDTH 18 0
BBX 16 13 1 0
BITMAP
A529
42D6
A529
4202
A501
E703
5A02
A501
4202
A501
E72B
42D6
A529
ENDCHAR
STARTCHAR E2B9
ENCODING 58041
SWIDTH 660 0
DWIDTH 11 0
BBX 9 13 1 0
BITMAP
A500
5A80
A500
4080
A100
E180
4080
A100
4080
A500
7F80
5080
A100
ENDCHAR
STARTCHAR E2BE
ENCODING 58046
SWIDTH 660 0
DWIDTH 11 0
BBX 9 13 1 0
BITMAP
0500
0A80
0500
1880
2100
F180
4080
A500
5A80
A500
E180
4080
A100
ENDCHAR
STARTCHAR E2BF
ENCODING 58047
SWIDTH 660 0
DWIDTH 11 0
BBX 9 13 1 0
BITMAP
A500
5A80
A500
4000
A000
E500
5A80
A500
4080
A100
E780
5A00
A400
ENDCHAR
STARTCHAR E2C0
ENCODING 58048
SWIDTH 660 0
DWIDTH 11 0
BBX 9 13 1 0
BITMAP
A500
5A80
A500
4080
A100
E780
5A80
A500
4080
A100
E780
5A00
A400
ENDCHAR
STARTCHAR E2C1
ENCODING 58049
SWIDTH 660 0
DWIDTH 11 0
BBX 9 13 1 0
BITMAP
0500
1A80
2500
5000
A000
E000
4000
A000
4000
A000
E000
4000
A000
ENDCHAR
STARTCHAR E2C2
ENCODING 58050
SWIDTH 660 0
DWIDTH 11 0
BBX 9 13 1 0
BITMAP
A500
5A80
A500
4000
A000
E500
5A00
A500
4000
A000
7500
1A80
0500
ENDCHAR
STARTCHAR E2C5
ENCODING 58053
SWIDTH 780 0
DWIDTH 13 0
BBX 11 13 1 0
BITMAP
2520
1AC0
2520
1040
2020
3060
1040
2020
1040
2020
B060
5040
A020
ENDCHAR
STARTCHAR E2C6
ENCODING 58054
SWIDTH 1080 0
DWIDTH 18 0
BBX 16 13 1 0
BITMAP
A120
58D0
A528
4A94
A508
E387
4082
A101
4082
A101
E183
4082
A101
ENDCHAR
STARTCHAR E2C7
ENCODING 58055
SWIDTH 780 0
DWIDTH 13 0
BBX 11 13 1 0
BITMAP
A500
5A80
A500
40C0
A020
E060
4040
A020
4040
A020
7560
1AC0
0520
ENDCHAR
STARTCHAR E2C8
ENCODING 58056
SWIDTH 660 0
DWIDTH 11 0
BBX 9 13 1 0
BITMAP
A500
5A80
A500
4080
A100
E180
4080
A100
4280
A500
FE00
4000
A000
ENDCHAR
STARTCHAR E2C9
ENCODING 58057
SWIDTH 660 0
DWIDTH 11 0
BBX 9 13 1 0
BITMAP
0500
0A80
0500
1800
2000
F000
4000
A000
4000
A000
E500
5A80
A500
ENDCHAR
STARTCHAR E2CA
ENCODING 58058
SWIDTH 900 0
DWIDTH 15 0
BBX 13 16 1 -2
BITMAP
0500
A700
5AC0
A520
4250
A528
E738
4210
A528
4210
A528
7738
1AD0
0528
0200
0500
ENDCHAR
STARTCHAR E2CB
ENCODING 58059
SWIDTH 660 0
DWIDTH 11 0
BBX 9 13 1 0
BITMAP
A000
4000
A000
4000
A000
E500
5A80
A500
4080
A100
E780
5A00
A400
ENDCHAR
STARTCHAR E2CC
ENCODING 58060
SWIDTH 780 0
DWIDTH 13 0
BBX 11 13 1 0
BITMAP
A000
5000
A000
1000
2000
3520
1AC0
2520
1040
2020
35C0
1A80
2500
ENDCHAR
STARTCHAR E2CD
ENCODING 58061
SWIDTH 900 0
DWIDTH 15 0
BBX 14 13 1 0
BITMAP
A014
4008
A014
4008
A014
E51C
5A88
A514
4088
A114
E79C
5A08
A414
ENDCHAR
STARTCHAR E2CF
ENCODING 58063
SWIDTH 1080 0
DWIDTH 18 0
BBX 16 13 1 0
BITMAP
A528
42D4
A528
4206
A501
E703
5A02
A501
4202
A501
E3AB
40D6
A029
ENDCHAR
STARTCHAR E2D0
ENCODING 58064
SWIDTH 660 0
DWIDTH 11 0
BBX 9 13 1 0
BITMAP
A500
5A80
A500
4080
A100
E180
4080
A100
5080
2500
3F80
5080
A100
ENDCHAR
STARTCHAR E2D1
ENCODING 58065
SWIDTH 660 0
DWIDTH 11 0
BBX 9 13 1 0
BITMAP
A500
5A80
A500
0080
0100
A580
5A80
A500
4080
A100
E580
5A80
A500
ENDCHAR
STARTCHAR E2D2
ENCODING 58066
SWIDTH 660 0
DWIDTH 11 0
BBX 9 13 1 0
BITMAP
A500
5A80
A500
4000
A000
E500
5A80
A500
4080
A100
E580
5A80
A500
ENDCHAR
STARTCHAR E2D3
ENCODING 58067
SWIDTH 660 0
DWIDTH 11 0
BBX 9 13 1 0
BITMAP
A500
5A80
A500
4080
A100
E780
5A00
A500
4280
A100
E580
5A80
A500
ENDCHAR
STARTCHAR E2D4
ENCODING 58068
SWIDTH 600 0
DWIDTH 10 0
BBX 8 13 1 0
BITMAP
A5
5A
A5
40
A0
E0
40
A0
40
A0
E0
40
A0
ENDCHAR
STARTCHAR E2D6
ENCODING 58070
SWIDTH 660 0
DWIDTH 11 0
BBX 9 13 1 0
BITMAP
A500
5A80
A500
4080
A100
E580
5A80
A500
4000
A000
E500
5A80
A500
ENDCHAR
STARTCHAR E2D8
ENCODING 58072
SWIDTH 1080 0
DWIDTH 18 0
BBX 16 13 1 0
BITMAP
A101
4082
A101
5086
2108
BDBD
5AD6
A529
4082
A101
E183
4082
A101
ENDCHAR
STARTCHAR E2D9
ENCODING 58073
SWIDTH 660 0
DWIDTH 11 0
BBX 9 13 1 0
BITMAP
A500
5A80
A500
4080
A100
0780
0A00
0500
0280
A100
E580
5A80
A500
ENDCHAR
STARTCHAR E2DA
ENCODING 58074
SWIDTH 660 0
DWIDTH 11 0
BBX 9 13 1 0
BITMAP
A100
4080
A100
4280
A500
EF00
5A80
A500
4080
A100
E180
4080
A100
ENDCHAR
STARTCHAR E2DC
ENCODING 58076
SWIDTH 900 0
DWIDTH 15 0
BBX 13 13 1 0
BITMAP
A528
5AD0
A528
4210
A528
E738
4210
A528
4210
A528
E738
4210
A528
ENDCHAR
STARTCHAR E2DD
ENCODING 58077
SWIDTH 660 0
DWIDTH 11 0
BBX 9 13 1 0
BITMAP
A500
5A80
A500
4080
A100
E180
4080
A100
4080
A100
E580
5A80
A500
ENDCHAR
STARTCHAR E2DE
ENCODING 58078
SWIDTH 660 0
DWIDTH 11 0
BBX 9 13 1 0
BITMAP
A500
5A80
A500
4080
A100
E180
4080
A100
4080
A100
E180
4080
A100
ENDCHAR
STARTCHAR E2DF
ENCODING 58079
SWIDTH 660 0
DWIDTH 11 0
BBX 9 13 1 0
BITMAP
A500
5A80
A500
4080
A100
E180
4080
A500
5A80
A500
E000
4000
A000
ENDCHAR
STARTCHAR E2E0
ENCODING 58080
SWIDTH 660 0
DWIDTH 11 0
BBX 9 13 1 0
BITMAP
A500
5A80
A500
4080
A100
E180
4000
A000
4000
A100
E580
5A80
A500
ENDCHAR
STARTCHAR E2E1
ENCODING 58081
SWIDTH 660 0
DWIDTH 11 0
BBX 9 13 1 0
BITMAP
A100
4080
A100
4080
A100
E580
5A80
A500
0080
0100
A580
5A80
A500
ENDCHAR
STARTCHAR E2E2
ENCODING 58082
SWIDTH 900 0
DWIDTH 15 0
BBX 13 16 1 -2
BITMAP
0500
A728
5AD0
A528
4210
A528
E738
4210
A528
4210
A528
E738
5AD0
A528
0200
0500
ENDCHAR
STARTCHAR E2E3
ENCODING 58083
SWIDTH 660 0
DWIDTH 11 0
BBX 9 13 1 0
BITMAP
A100
4080
A100
4080
A100
E580
5A80
A500
0080
0100
0180
0080
0100
ENDCHAR
STARTCHAR E2E4
ENCODING 58084
SWIDTH 720 0
DWIDTH 12 0
BBX 11 15 1 -2
BITMAP
A100
4080
A100
4080
A100
E180
4080
A100
4080
A100
E580
5AC0
A520
0040
0020
ENDCHAR
STARTCHAR E2E5
ENCODING 58085
SWIDTH 900 0
DWIDTH 15 0
BBX 13 13 1 0
BITMAP
A528
4210
A528
4210
A528
E738
4210
A528
4210
A528
E738
5AD0
A528
ENDCHAR
STARTCHAR E2E6
ENCODING 58086
SWIDTH 900 0
DWIDTH 15 0
BBX 14 15 1 -2
BITMAP
A528
4210
A528
4210
A528
E738
4210
A528
4210
A528
E738
5AD4
A528
0004
0008
ENDCHAR
STARTCHAR E2E7
ENCODING 58087
SWIDTH 660 0
DWIDTH 11 0
BBX 9 13 1 0
BITMAP
A000
4000
A000
4000
A000
E500
5A80
A500
4080
A100
E580
5A80
A500
ENDCHAR
STARTCHAR E2E8
ENCODING 58088
SWIDTH 780 0
DWIDTH 13 0
BBX 11 13 1 0
BITMAP
A000
5000
A000
1000
2000
3520
1AC0
2520
1040
2020
3560
1AC0
2520
ENDCHAR
STARTCHAR E2E9
ENCODING 58089
SWIDTH 900 0
DWIDTH 15 0
BBX 14 13 1 0
BITMAP
A014
4008
A014
4008
A014
E51C
5A88
A514
4088
A114
E59C
5A88
A514
ENDCHAR
STARTCHAR E2EA
ENCODING 58090
SWIDTH 780 0
DWIDTH 13 0
BBX 11 13 1 0
BITMAP
A520
5AC0
A520
4040
A020
0560
0AC0
0520
0040
A020
E560
5AC0
A520
ENDCHAR
STARTCHAR E2EB
ENCODING 58091
SWIDTH 960 0
DWIDTH 16 0
BBX 14 13 1 0
BITMAP
A528
42D4
A528
4204
A508
E70C
5A04
A508
4204
A508
E72C
42D4
A528
ENDCHAR
STARTCHAR E2EC
ENCODING 58092
SWIDTH 660 0
DWIDTH 11 0
BBX 9 13 1 0
BITMAP
A500
5A80
A500
4080
A100
E180
4080
A500
5A80
2500
F180
4080
A100
ENDCHAR
STARTCHAR E2F1
ENCODING 58097
SWIDTH 660 0
DWIDTH 11 0
BBX 9 13 1 0
BITMAP
A000
5800
A400
4A00
A500
E380
4080
A500
5A80
A500
E180
4080
A100
ENDCHAR
STARTCHAR E2F2
ENCODING 58098
SWIDTH 660 0
DWIDTH 11 0
BBX 9 13 1 0
BITMAP
A500
5A80
A500
4000
A000
E400
5A00
A500
4280
A100
E580
5A80
A500
ENDCHAR
STARTCHAR E2F3
ENCODING 58099
SWIDTH 660 0
DWIDTH 11 0
BBX 9 13 1 0
BITMAP
A500
5A80
A500
4080
A100
E780
5A80
A500
4080
A100
E780
5A00
A400
ENDCHAR
STARTCHAR E2F4
ENCODING 58100
SWIDTH 600 0
DWIDTH 10 0
BBX 8 13 1 0
BITMAP
05
1A
25
50
A0
E0
40
A0
40
A0
E0
40
A0
ENDCHAR
STARTCHAR E2F5
ENCODING 58101
SWIDTH 660 0
DWIDTH 11 0
BBX 9 13 1 0
BITMAP
0500
1A80
2500
5000
A000
E500
5A00
A500
4000
A000
E500
5A80
A500
ENDCHAR
STARTCHAR E2F8
ENCODING 58104
SWIDTH 780 0
DWIDTH 13 0
BBX 11 13 1 0
BITMAP
2520
1AC0
2520
1040
2020
3060
1040
2020
1040
2020
B060
5040
A020
ENDCHAR
STARTCHAR E2F9
ENCODING 58105
SWIDTH 1080 0
DWIDTH 18 0
BBX 16 13 1 0
BITMAP
0509
0A96
0529
18D2
2121
F1C3
4082
A101
4082
A101
E183
4082
A101
ENDCHAR
STARTCHAR E2FA
ENCODING 58106
SWIDTH 780 0
DWIDTH 13 0
BBX 11 13 1 0
BITMAP
0520
1AC0
2520
5040
A020
E060
4040
A020
4040
A020
E5C0
5A80
A500
ENDCHAR
STARTCHAR E2FB
ENCODING 58107
SWIDTH 660 0
DWIDTH 11 0
BBX 9 13 1 0
BITMAP
A500
5A80
A500
4080
A100
E180
4280
A500
5A00
A400
E000
4000
A000
ENDCHAR
STARTCHAR E2FC
ENCODING 58108
SWIDTH 660 0
DWIDTH 11 0
BBX 9 13 1 0
BITMAP
A500
5A80
A500
4000
A000
E000
4000
A000
5000
2000
1D00
0A80
0500
ENDCHAR
STARTCHAR E2FD
ENCODING 58109
SWIDTH 900 0
DWIDTH 15 0
BBX 13 16 1 -2
BITMAP
0500
0728
1AD0
2528
5210
A528
E738
4210
A528
4210
A528
E770
5AC0
A500
0200
0500
ENDCHAR
STARTCHAR E2FE
ENCODING 58110
SWIDTH 660 0
DWIDTH 11 0
BBX 9 13 1 0
BITMAP
A000
4000
A000
4000
A000
E400
5A00
A500
4280
A100
E580
5A80
A500
ENDCHAR
STARTCHAR E2FF
ENCODING 58111
SWIDTH 780 0
DWIDTH 13 0
BBX 11 13 1 0
BITMAP
A000
5000
A000
1000
2000
3500
1A80
2500
10C0
2020
3560
1AC0
2520
ENDCHAR
STARTCHAR E300
ENCODING 58112
SWIDTH 900 0
DWIDTH 15 0
BBX 14 13 1 0
BITMAP
A014
4008
A014
4008
A014
E41C
5A08
A514
4288
A114
E59C
5A88
A514
ENDCHAR
STARTCHAR E302
ENCODING 58114
SWIDTH 1080 0
DWIDTH 18 0
BBX 16 13 1 0
BITMAP
A029
40D6
A129
4282
A501
E703
5A02
A501
4202
A501
E72E
42D4
A528
ENDCHAR
STARTCHAR E303
ENCODING 58115
SWIDTH 660 0
DWIDTH 11 0
BBX 9 13 1 0
BITMAP
A500
5A80
A500
4080
A100
E180
5080
2500
1A80
2500
F180
4080
A100
ENDCHAR
STARTCHAR E304
ENCODING 58116
SWIDTH 660 0
DWIDTH 11 0
BBX 9 13 1 0
BITMAP
2500
5A80
A500
4080
A100
E180
4080
A100
4080
A100
E580
5A80
A500
ENDCHAR
STARTCHAR E305
ENCODING 58117
SWIDTH 660 0
DWIDTH 11 0
BBX 9 13 1 0
BITMAP
A500
5A80
A500
4080
A100
2580
5A80
A500
4000
A000
E500
5A80
A500
ENDCHAR
STARTCHAR E306
ENCODING 58118
SWIDTH 660 0
DWIDTH 11 0
BBX 9 13 1 0
BITMAP
A500
5A80
A500
4080
A100
0580
0A80
0500
0080
A100
E580
5A80
A500
ENDCHAR
STARTCHAR E307
ENCODING 58119
SWIDTH 660 0
DWIDTH 11 0
BBX 9 13 1 0
BITMAP
A100
4080
A100
4080
A100
E180
4080
A500
5A80
A500
0180
0080
0100
ENDCHAR
STARTCHAR E308
ENCODING 58120
SWIDTH 660 0
DWIDTH 11 0
BBX 9 13 1 0
BITMAP
A500
5A80
A500
4000
A000
E500
5A80
A500
4080
A100
E580
5A80
A500
ENDCHAR
STARTCHAR E309
ENCODING 58121
SWIDTH 660 0
DWIDTH 11 0
BBX 9 13 1 0
BITMAP
A500
5A80
A500
0080
0100
2580
1A80
2500
0080
0100
0180
0080
0100
ENDCHAR
STARTCHAR E30A
ENCODING 58122
SWIDTH 660 0
DWIDTH 11 0
BBX 9 13 1 0
BITMAP
A500
5A80
A500
4080
A100
E580
5A80
A500
4080
A100
E580
5A80
A500
ENDCHAR
STARTCHAR E30B
ENCODING 58123
SWIDTH 660 0
DWIDTH 11 0
BBX 9 13 1 0
BITMAP
A500
5A80
A500
4080
A100
E580
5A80
A500
0080
0100
A580
5A80
A500
ENDCHAR
STARTCHAR E30C
ENCODING 58124
SWIDTH 660 0
DWIDTH 11 0
BBX 9 13 1 0
BITMAP
2500
5A80
A500
4080
A100
2580
5A80
A500
4000
A000
E500
5A80
A500
ENDCHAR
STARTCHAR E30D
ENCODING 58125
SWIDTH 660 0
DWIDTH 11 0
BBX 9 13 1 0
BITMAP
2500
5A80
A500
4080
A100
0580
0A80
0500
0080
A100
E580
5A80
2500
ENDCHAR
STARTCHAR E30E
ENCODING 58126
SWIDTH 660 0
DWIDTH 11 0
BBX 9 13 1 0
BITMAP
0500
1A00
2500
5200
A500
E700
4200
A500
5A80
A500
0700
0200
0500
ENDCHAR
STARTCHAR E30F
ENCODING 58127
SWIDTH 660 0
DWIDTH 11 0
BBX 9 13 1 0
BITMAP
A000
4000
A000
4000
A500
FF80
4080
A100
4080
A100
E580
5A80
2500
ENDCHAR
STARTCHAR E310
ENCODING 58128
SWIDTH 660 0
DWIDTH 11 0
BBX 9 13 1 0
BITMAP
A500
5A80
A500
0080
0100
0580
1A80
2500
1000
2000
3000
1000
2000
ENDCHAR
STARTCHAR E311
ENCODING 58129
SWIDTH 660 0
DWIDTH 11 0
BBX 9 13 1 0
BITMAP
2500
5A80
A500
4080
A100
E580
5A80
A500
4080
A100
E580
5A80
2500
ENDCHAR
STARTCHAR E312
ENCODING 58130
SWIDTH 660 0
DWIDTH 11 0
BBX 9 13 1 0
BITMAP
2500
5A80
A500
4080
A100
E180
4080
A500
5A80
2500
0180
0080
0100
ENDCHAR
STARTCHAR E313
ENCODING 58131
SWIDTH 660 0
DWIDTH 11 0
BBX 9 13 1 0
BITMAP
A500
5A80
A500
4080
A100
E180
4080
A100
4080
A100
E580
5A80
2500
ENDCHAR
STARTCHAR E314
ENCODING 58132
SWIDTH 660 0
DWIDTH 11 0
BBX 9 13 1 0
BITMAP
A500
5A80
A500
4080
A100
0780
0A00
0400
1800
2000
F500
5A80
A500
ENDCHAR
STARTCHAR E315
ENCODING 58133
SWIDTH 660 0
DWIDTH 11 0
BBX 9 13 1 0
BITMAP
A500
5A80
A500
4080
A100
0780
0A80
0500
0080
A100
E580
5A80
A500
ENDCHAR
STARTCHAR E316
ENCODING 58134
SWIDTH 660 0
DWIDTH 11 0
BBX 9 13 1 0
BITMAP
0500
1A80
2500
5000
A000
E500
5A80
A500
4080
A100
E580
5A80
A500
ENDCHAR
STARTCHAR E317
ENCODING 58135
SWIDTH 660 0
DWIDTH 11 0
BBX 9 13 1 0
BITMAP
A500
5A80
A500
4080
A100
7780
1A00
2500
5280
A100
E580
5A80
A500
ENDCHAR
STARTCHAR E318
ENCODING 58136
SWIDTH 660 0
DWIDTH 11 0
BBX 9 13 1 0
BITMAP
A500
5A80
A500
4080
A100
E580
5A80
A500
0080
0100
A780
5A00
A400
ENDCHAR
STARTCHAR E338
ENCODING 58168
SWIDTH 660 0
DWIDTH 11 0
BBX 9 13 1 0
BITMAP
A500
5A80
A500
4080
A100
0580
0A80
0500
0800
0400
0400
0800
0400
ENDCHAR
STARTCHAR E339
ENCODING 58169
SWIDTH 660 0
DWIDTH 11 0
BBX 9 13 1 0
BITMAP
0400
0800
0400
0000
0400
AC00
5800
A400
4000
A100
E580
5A80
A500
ENDCHAR
STARTCHAR E33C
ENCODING 58172
SWIDTH 0 0
DWIDTH 0 0
BBX 8 5 -8 13
BITMAP
A5
42
B5
4A
34
ENDCHAR
STARTCHAR E33D
ENCODING 58173
SWIDTH 0 0
DWIDTH 0 0
BBX 8 10 -8 13
BITMAP
05
0A
14
08
30
A5
42
B5
4A
34
ENDCHAR
STARTCHAR E33E
ENCODING 58174
SWIDTH 0 0
DWIDTH 0 0
BBX 9 10 -9 13
BITMAP
A000
4000
3000
0800
1400
5280
2100
5A80
2500
1A00
ENDCHAR
STARTCHAR E33F
ENCODING 58175
SWIDTH 0 0
DWIDTH 0 0
BBX 8 11 -8 13
BITMAP
48
7E
04
0A
14
08
A5
42
B5
4A
34
ENDCHAR
STARTCHAR E340
ENCODING 58176
SWIDTH 0 0
DWIDTH 0 0
BBX 9 10 -9 13
BITMAP
2100
5880
A500
4A80
A500
5280
2100
5A80
2500
1A00
ENDCHAR
STARTCHAR E341
ENCODING 58177
SWIDTH 0 0
DWIDTH 0 0
BBX 6 10 -6 13
BITMAP
08
14
28
50
20
50
28
D4
08
D4
ENDCHAR
STARTCHAR E342
ENCODING 58178
SWIDTH 0 0
DWIDTH 0 0
BBX 8 10 -8 13
BITMAP
A0
40
30
08
14
14
0A
35
02
35
ENDCHAR
STARTCHAR E343
ENCODING 58179
SWIDTH 0 0
DWIDTH 0 0
BBX 6 11 -6 13
BITMAP
D0
FC
08
54
28
50
50
28
D4
08
D4
ENDCHAR
STARTCHAR E344
ENCODING 58180
SWIDTH 0 0
DWIDTH 0 0
BBX 9 10 -8 13
BITMAP
3180
4800
B580
4A00
A500
1400
0A00
3500
0200
3500
ENDCHAR
ENDFONT
